<?xml version="1.0" encoding="UTF-8"?>
<svg id="Layer_1" data-name="Layer 1" xmlns="http://www.w3.org/2000/svg" viewBox="0 0 1000 775">
  <defs>
    <style>
      .cls-1 {
        fill: none;
      }

      .cls-2 {
        fill: #7c297d;
      }

      .cls-3 {
        fill: #f79a23;
      }

      .cls-4 {
        fill: #dd552c;
      }

      .cls-5 {
        fill: #fff;
      }

      .cls-6 {
        fill: #d22128;
      }
    </style>
  </defs>
  <path class="cls-1" d="M840.5431358,525.6526841h-11.6386719v42.3959961h11.8457031c12.9892578,0,21.7177734-8.4165039,21.7177734-21.1977539s-8.7285156-21.1982422-21.9248047-21.1982422Z"/>
  <path class="cls-1" d="M394.4972374,535.62827c0-7.065918-4.46875-11.0146484-12.6777344-11.0146484h-12.4697266v22.0292969h12.4697266c8.2089844,0,12.6777344-3.9487305,12.6777344-11.0146484Z"/>
  <path class="cls-1" d="M49.8136436,524.7176255c-12.8847656,0-21.9257812,9.0400391-21.9257812,22.1333008,0,13.0927734,9.0410156,22.1333008,21.9257812,22.1333008s21.9257812-9.0405273,21.9257812-22.1333008c0-13.0932617-9.0410156-22.1333008-21.9257812-22.1333008Z"/>
  <path class="cls-1" d="M698.9034874,546.8509263c0,13.0927734,9.0410156,22.1333008,21.9257812,22.1333008s21.9257812-9.0405273,21.9257812-22.1333008c0-13.0932617-9.0410156-22.1333008-21.9257812-22.1333008s-21.9257812,9.0400391-21.9257812,22.1333008Z"/>
  <path class="cls-1" d="M180.4152061,445.741063c17.9804688,0,30.5957031-12.6152344,30.5957031-30.8857422s-12.6152344-30.8857422-30.5957031-30.8857422c-17.9814453,0-30.5966797,12.6152344-30.5966797,30.8857422s12.6152344,30.8857422,30.5966797,30.8857422Z"/>
  <path class="cls-2" d="M59.2784874,445.741063c-17.2558594,0-29.4365234-12.6152344-29.4365234-30.8857422,0-18.4155273,12.3251953-30.8857422,29.5810547-30.8857422,12.9052734,0,23.6357422,6.9599609,27.40625,18.2705078h23.7802734c-5.7998047-24.5058594-26.1005859-40.1665039-51.9111328-40.1665039-30.7412109,0-52.3466797,21.7509766-52.3466797,52.7817383s21.6054688,52.7817383,52.4912109,52.7817383c26.6806641,0,47.4169922-16.2407227,52.4921875-40.8916016h-23.78125c-4.2050781,11.7456055-14.9355469,18.9956055-28.2753906,18.9956055Z"/>
  <path class="cls-2" d="M180.4152061,467.6370591c31.6103516,0,54.0859375-21.8959961,54.0859375-52.7817383s-22.4755859-52.7817383-54.0859375-52.7817383c-31.7568359,0-54.0869141,21.8959961-54.0869141,52.7817383s22.3300781,52.7817383,54.0869141,52.7817383ZM180.4152061,383.9695786c17.9804688,0,30.5957031,12.6152344,30.5957031,30.8857422s-12.6152344,30.8857422-30.5957031,30.8857422c-17.9814453,0-30.5966797-12.6152344-30.5966797-30.8857422s12.6152344-30.8857422,30.5966797-30.8857422Z"/>
  <polygon class="cls-2" points="278.8722374 404.5599106 303.522628 440.5208481 319.4728233 440.5208481 344.1241905 404.5599106 344.1241905 465.6067856 367.0343468 465.6067856 367.0343468 364.1038559 347.6036827 364.1038559 311.4982139 416.7405747 275.3917686 364.1038559 255.9611046 364.1038559 255.9611046 465.6067856 278.8722374 465.6067856 278.8722374 404.5599106"/>
  <polygon class="cls-2" points="417.4239952 404.5599106 442.0743858 440.5208481 458.0245811 440.5208481 482.6759483 404.5599106 482.6759483 465.6067856 505.5861046 465.6067856 505.5861046 364.1038559 486.1554405 364.1038559 450.0499718 416.7405747 413.9435264 364.1038559 394.5128624 364.1038559 394.5128624 465.6067856 417.4239952 465.6067856 417.4239952 404.5599106"/>
  <path class="cls-2" d="M532.1505577,364.1038559v59.5966797c0,27.4057617,16.0957031,43.9365234,42.4863281,43.9365234s42.4863281-16.5307617,42.4863281-43.9365234v-59.5966797h-23.0556641v58.1464844c0,15.515625-6.5253906,23.4907227-19.4306641,23.4907227s-19.2851562-7.9750977-19.2851562-23.4907227v-58.1464844h-23.2011719Z"/>
  <polygon class="cls-2" points="666.2941124 403.3997544 711.100753 465.6067856 730.6759483 465.6067856 730.6759483 364.1038559 707.9103233 364.1038559 707.9103233 426.1653794 663.1046593 364.1038559 643.5284874 364.1038559 643.5284874 465.6067856 666.2941124 465.6067856 666.2941124 403.3997544"/>
  <rect class="cls-2" x="757.9376671" y="364.1038559" width="23.0556641" height="101.5029297"/>
  <polygon class="cls-2" points="798.2189171 385.7093247 830.2648155 385.7093247 830.2648155 465.6067856 853.4659874 465.6067856 853.4659874 385.7093247 885.5118858 385.7093247 885.5118858 364.1038559 798.2189171 364.1038559 798.2189171 385.7093247"/>
  <polygon class="cls-2" points="957.1124718 387.5945786 947.1075889 406.0101059 936.9571983 387.5945786 924.3419639 364.1038559 898.0958702 364.1038559 935.507003 430.0809067 935.507003 465.6067856 958.5626671 465.6067856 958.5626671 429.7908677 995.8292686 364.1038559 969.5831749 364.1038559 957.1124718 387.5945786"/>
  <path class="cls-2" d="M49.8136436,509.0267075c-22.7568359,0-38.7597656,15.690918-38.7597656,37.8242188s16.0029297,37.8237305,38.7597656,37.8237305c22.6533203,0,38.7597656-15.6904297,38.7597656-37.8237305s-16.1064453-37.8242188-38.7597656-37.8242188ZM49.8136436,568.984227c-12.8847656,0-21.9257812-9.0405273-21.9257812-22.1333008,0-13.0932617,9.0410156-22.1333008,21.9257812-22.1333008s21.9257812,9.0400391,21.9257812,22.1333008c0,13.0927734-9.0410156,22.1333008-21.9257812,22.1333008Z"/>
  <polygon class="cls-2" points="174.9083702 536.3558091 166.1798546 559.4241684 157.4513389 536.3558091 147.7872764 510.4812973 130.0187218 510.4812973 157.9708702 583.2200669 174.1808311 583.2200669 202.1339561 510.4812973 184.4689171 510.4812973 174.9083702 536.3558091"/>
  <polygon class="cls-2" points="299.9308311 569.1917466 267.5109093 569.1917466 267.5109093 553.2933091 296.0861046 553.2933091 296.0861046 539.3689927 267.5109093 539.3689927 267.5109093 524.4056138 298.788253 524.4056138 298.788253 510.4812973 251.0929405 510.4812973 251.0929405 583.2200669 299.9308311 583.2200669 299.9308311 569.1917466"/>
  <path class="cls-2" d="M353.0362999,583.2200669h16.5214844v-22.652832h10.8066406l13.09375,22.652832h19.1191406l-15.0673828-25.2504883c8.7294922-3.7412109,13.8203125-11.6381836,13.8203125-22.4453125,0-15.4829102-10.5986328-25.0429688-27.328125-25.0429688h-30.9658203v72.7387695ZM369.3497764,524.6136216h12.4697266c8.2089844,0,12.6777344,3.9487305,12.6777344,11.0146484s-4.46875,11.0146484-12.6777344,11.0146484h-12.4697266v-22.0292969Z"/>
  <polygon class="cls-3" points="470.8790733 589.8704575 486.2589561 589.8704575 514.3146202 503.8309067 498.8321983 503.8309067 470.8790733 589.8704575"/>
  <path class="cls-2" d="M596.710128,524.7176255c9.2480469,0,16.9375,4.987793,19.6396484,13.0927734h17.0419922c-4.1572266-17.5610352-18.7050781-28.7836914-37.2011719-28.7836914-22.0292969,0-37.5126953,15.5869141-37.5126953,37.8242188s15.4833984,37.8237305,37.6171875,37.8237305c19.1191406,0,33.9785156-11.6381836,37.6162109-29.3032227h-17.0419922c-3.0136719,8.4169922-10.703125,13.612793-20.2626953,13.612793-12.3662109,0-21.0947266-9.0405273-21.0947266-22.1333008,0-13.1972656,8.8330078-22.1333008,21.1982422-22.1333008Z"/>
  <path class="cls-2" d="M682.069503,546.8509263c0,22.1333008,16.0029297,37.8237305,38.7597656,37.8237305,22.6533203,0,38.7597656-15.6904297,38.7597656-37.8237305s-16.1064453-37.8242188-38.7597656-37.8242188c-22.7568359,0-38.7597656,15.690918-38.7597656,37.8242188ZM742.7550499,546.8509263c0,13.0927734-9.0410156,22.1333008-21.9257812,22.1333008s-21.9257812-9.0405273-21.9257812-22.1333008c0-13.0932617,9.0410156-22.1333008,21.9257812-22.1333008s21.9257812,9.0400391,21.9257812,22.1333008Z"/>
  <path class="cls-2" d="M841.1661827,510.4812973h-28.7832031v72.7387695h28.7832031c22.9648438,0,38.34375-14.6518555,38.34375-36.3691406,0-21.6137695-15.3789062-36.3696289-38.34375-36.3696289ZM840.7501671,568.0486802h-11.8457031v-42.3959961h11.6386719c13.1962891,0,21.9248047,8.4169922,21.9248047,21.1982422s-8.7285156,21.1977539-21.7177734,21.1977539Z"/>
  <polygon class="cls-2" points="948.6808311 553.2933091 977.2560264 553.2933091 977.2560264 539.3689927 948.6808311 539.3689927 948.6808311 524.4056138 979.9581749 524.4056138 979.9581749 510.4812973 932.2628624 510.4812973 932.2628624 583.2200669 981.100753 583.2200669 981.100753 569.1917466 948.6808311 569.1917466 948.6808311 553.2933091"/>
  <path class="cls-4" d="M513.4449913,143.0557602c8.5092773-21.0410156,18.003418-42.0407715,28.1904297-60.6535645-15.206543-11.2946777-29.8085938-35.6503906-35.8081055-46.4414062-2.1542969,2.447998-3.5532227,5.267334-4.1875,7.5610352-5.6518555,20.4067383,14.4672852,45.0493164-1.737793,36.0458984-13.5014648-7.5024414-43.9042969-23.9321289-55.5014648-7.6022949,12.9882812,16.6882324,46.9584961,58.6748047,69.0444336,71.090332Z"/>
  <path class="cls-3" d="M541.635421,82.4021958c9.8710938-18.034668,20.390625-33.8300781,31.296875-45.2097168,0,0-10.8779297,15.7453613-26.4150391,47.2211914,9.409668,2.5913086,36.2075195,7.9086914,73.5351562-1.7333984.9174805-6.7834473-3.6425781-14.2443848-26.3681641-16.7424316-14.8364258-1.6289062,17.8081055-35.4267578-5.8408203-51.4111328-.7631836-.5170898-1.5136719-.9731445-2.2490234-1.3815918-.7929688-.2844238-1.6303711-.545166-2.5239258-.7775879-27.6191406-7.2070312-31.4477539,39.6254883-42.46875,29.5578613-17.8100586-16.269043-29.0517578-12.4677734-34.7744141-5.9645996,5.9995117,10.7910156,20.6015625,35.1467285,35.8081055,46.4414062Z"/>
  <path class="cls-6" d="M491.2311241,203.6790513c6.2348633-18.6779785,13.7353516-39.6625977,22.2138672-60.623291-22.0859375-12.4155273-56.0561523-54.4020996-69.0444336-71.090332-2.3183594,3.2624512-3.902832,7.8129883-4.4306641,14.0361328-2.8325195,33.4262695,31.6513672,58.1728516,24.7768555,62.6931152-9.0932617,5.9797363-27.1923828-14.3642578-34.3256836-1.4379883,10.3393555,13.2822266,31.3999023,37.2817383,60.8100586,56.4223633Z"/>
  <path class="cls-4" d="M546.5172569,84.4136704c-8.0429688,16.2971191-17.3310547,36.8342285-27.0175781,61.5961914,10.0883789,4.3137207,51.2797852,20.248291,109.4614258,20.3308105,9.7822266-25.4785156-25.6108398-28.8432617-42.1816406-34.7514648-17.4604492-6.2272949,18.2451172-22.9284668,29.8398438-40.6462402,1.4838867-2.2653809,3.0170898-5.1933594,3.4331055-8.2626953-37.3276367,9.6420898-64.1254883,4.324707-73.5351562,1.7333984Z"/>
  <path class="cls-6" d="M497.9777061,207.0413559c10.2597656,3.1972656,44.2553711,12.7480469,80.3598633,11.3100586,4.8500977-13.1323242-13.2836914-14.4140625-14.7607422-24.9465332-1.1435547-8.1496582,47.722168,6.8486328,63.4448242-22.7851562.7949219-1.4987793,1.4150391-2.9128418,1.9394531-4.2790527-58.1816406-.0825195-99.3730469-16.0170898-109.4614258-20.3308105-7.0786133,18.0957031-14.3608398,38.4047852-21.5219727,61.0314941Z"/>
  <path class="cls-2" d="M497.9777061,207.0413559c-4.6103516,14.5639648-9.1586914,30.1225586-13.5732422,46.5654297-1.5664062,5.829834-3.1137695,11.7683105-4.6396484,17.8371582,34.2675781,11.3122559,65.8227539.026123,66.8925781-13.9621582.0087891-.1108398-.0117188-.1933594-.0053711-.2998047.8154297-14.815918-21.390625-6.6032715-20.8652344-15.5109863.527832-8.9729004,38.7685547-.052002,50.5947266-19.2902832.9067383-1.4748535,1.4975586-2.784668,1.9560547-4.0292969-36.1044922,1.4379883-70.1000977-8.112793-80.3598633-11.3100586Z"/>
  <path class="cls-2" d="M463.0167686,207.3606919c-5.7592773,5.6950684-13.2651367-7.3200684-22.5205078-1.9440918-1.0141602.5908203-2.0439453,1.3356934-3.1005859,2.4196777-10.4672852,10.7236328-.1640625,41.6171875,29.5341797,58.1079102-6.9301758,23.2695312-13.8300781,49.267334-20.5839844,76.4553223,2.4501953-.8579102,5.3823242-1.7180176,6.1123047-4.0290527,1.0957031-4.5048828,7.8681641-31.916748,18.8647461-69.1052246,0,0,2.0068359-7.6174316,5.6811523-20.1677246,3.3969727-11.6057129,8.2246094-27.4335938,14.2270508-45.418457-29.4101562-19.140625-50.4707031-43.1401367-60.8100586-56.4223633-.4995117.9057617-.9501953,1.9526367-1.3344727,3.2038574-6.6411133,21.5839844,40.3193359,50.5793457,33.9301758,56.9001465Z"/>
  <polygon class="cls-4" points="360.2130577 728.7972153 373.5655968 728.7972153 366.8683311 712.550145 360.2130577 728.7972153"/>
  <path class="cls-4" d="M717.2599327,721.7020005c-5.1035156,0-8.6669922,3.4013672-8.6669922,8.2719727,0,4.8413086,3.5634766,8.2226562,8.6669922,8.2226562,5.0742188,0,8.6181641-3.3813477,8.6181641-8.2226562,0-4.8706055-3.5439453-8.2719727-8.6181641-8.2719727Z"/>
  <path class="cls-4" d="M491.7560264,737.8997544c8.3505859,0,13.9609375-5.6899414,13.9609375-14.1586914s-5.6103516-14.1586914-13.9609375-14.1586914c-8.3798828,0-14.0097656,5.6899414-14.0097656,14.1586914s5.6298828,14.1586914,14.0097656,14.1586914Z"/>
  <path class="cls-4" d="M215.7423546,763.3901108h539.590332l26.1694336-80.1202393H241.9117882l-26.1694336,80.1202393ZM707.1915733,720.6614731l10.4990234-15.1147461h5.5029297l-8.4414062,12.1972656c.9550781-.2158203,1.9423828-.324707,2.953125-.324707,7.4462891,0,12.8515625,5.2802734,12.8515625,12.5546875s-5.5917969,12.5546875-13.296875,12.5546875c-7.828125,0-13.2958984-5.1625977-13.2958984-12.5546875,0-3.2739258.9951172-6.1459961,3.2275391-9.3125ZM669.9845421,738.3914536l15.1269531-13.815918c3.4746094-3.1884766,4.9570312-5.7314453,4.9570312-8.5024414,0-4.0302734-2.9267578-6.7382812-7.2822266-6.7382812-4.5166016,0-7.5507812,2.96875-7.7285156,7.5639648l-.0322266.8457031h-4.5234375l.0263672-.9057617c.2119141-7.1088867,5.1376953-11.8852539,12.2578125-11.8852539,7.0419922,0,11.9609375,4.5522461,11.9609375,11.0703125,0,4.1186523-2.1044922,7.9262695-6.6240234,11.9829102l-10.2988281,9.4477539h17.8623047v4.4804688h-25.7021484v-3.543457ZM646.2228233,704.9534653c8.9033203,0,14.4345703,7.1992188,14.4345703,18.7875977s-5.53125,18.7875977-14.4345703,18.7875977c-8.8730469,0-14.3847656-7.1992188-14.3847656-18.7875977s5.5117188-18.7875977,14.3847656-18.7875977ZM596.9435264,738.3914536l15.1269531-13.815918c3.4746094-3.1884766,4.9570312-5.7314453,4.9570312-8.5024414,0-4.0302734-2.9267578-6.7382812-7.2822266-6.7382812-4.5166016,0-7.5507812,2.96875-7.7285156,7.5639648l-.0322266.8457031h-4.5234375l.0263672-.9057617c.2119141-7.1088867,5.1376953-11.8852539,12.2578125-11.8852539,7.0419922,0,11.9609375,4.5522461,11.9609375,11.0703125,0,4.1186523-2.1044922,7.9262695-6.6240234,11.9829102l-10.2988281,9.4477539h17.8623047v4.4804688h-25.7021484v-3.543457ZM521.4376671,705.546727l9.1953125,28.0522461,4.328125-12.0356445,5.8515625-16.0166016h4.1015625l10.1748047,28.1079102,9.1992188-28.1079102h5.0185547l-11.9560547,36.3881836h-4.1708984l-10.3164062-28.3725586-10.2666016,28.3725586h-4.2226562l-11.9052734-36.3881836h4.96875ZM491.7560264,704.9534653c11.0625,0,18.7880859,7.7255859,18.7880859,18.7875977s-7.7255859,18.7875977-18.7880859,18.7875977c-11.0908203,0-18.8369141-7.7255859-18.8369141-18.7875977s7.7460938-18.7875977,18.8369141-18.7875977ZM445.2355186,704.9534653c8.3193359,0,14.9902344,4.5727539,17.4082031,11.9335938l.3789062,1.1542969h-5.0761719l-.2216797-.5532227c-2.0087891-5.0244141-6.5253906-7.9057617-12.390625-7.9057617-8.1435547,0-13.6142578,5.6899414-13.6142578,14.1586914s5.4912109,14.1586914,13.6640625,14.1586914c7.265625,0,12.3857422-4.440918,13.2763672-11.3994141h-15.34375v-4.4306641h20.3447266l.015625.8637695c.1035156,5.7504883-1.7597656,10.8725586-5.2460938,14.4228516-3.3232422,3.3837891-7.8525391,5.1723633-13.0966797,5.1723633-10.8583984,0-18.4414062-7.7255859-18.4414062-18.7875977s7.5429688-18.7875977,18.3427734-18.7875977ZM403.7218468,725.7371567c-8.90625-1.9160156-12.7089844-5.1469727-12.7089844-10.8017578,0-6.0639648,4.9863281-9.9819336,12.703125-9.9819336,8.0722656,0,13.0800781,4.1977539,13.3945312,11.2285156l.0410156.9194336h-4.6669922l-.0488281-.8276367c-.2646484-4.4428711-3.3613281-6.8896484-8.7197266-6.8896484-4.9189453,0-7.9746094,2.1269531-7.9746094,5.5512695,0,2.659668,1.5654297,4.7851562,9.2080078,6.5131836,8.9394531,1.9804688,12.7558594,5.2109375,12.7558594,10.8007812,0,6.340332-5.0380859,10.2792969-13.1484375,10.2792969-8.3476562,0-13.7646484-4.4521484-14.1357422-11.6186523l-.0478516-.925293h4.7246094l.0478516.8291016c.2636719,4.5610352,3.78125,7.2836914,9.4111328,7.2836914,5.1630859,0,8.3710938-2.2026367,8.3710938-5.7490234,0-2.3637695-1.1152344-4.8007812-9.2060547-6.6113281ZM364.8429405,705.546727h4.0957031l15.0234375,36.3881836h-5.0673828l-3.6611328-8.7558594h-16.7353516l-3.6611328,8.7558594h-5.0683594l15.0742188-36.3881836ZM320.2071983,705.546727h4.7285156v31.7592773h17.6103516v4.6289062h-22.3388672v-36.3881836ZM290.5704796,704.9534653c8.3203125,0,14.9902344,4.5727539,17.4072266,11.9335938l.3789062,1.1542969h-5.0751953l-.2216797-.5532227c-2.0087891-5.0244141-6.5253906-7.9057617-12.390625-7.9057617-8.1435547,0-13.6142578,5.6899414-13.6142578,14.1586914s5.4912109,14.1586914,13.6640625,14.1586914c7.265625,0,12.3857422-4.440918,13.2763672-11.3994141h-15.34375v-4.4306641h20.3447266l.015625.8637695c.1035156,5.7504883-1.7597656,10.8725586-5.2460938,14.4228516-3.3232422,3.3837891-7.8525391,5.1723633-13.0966797,5.1723633-10.8583984,0-18.4414062-7.7255859-18.4414062-18.7875977s7.5429688-18.7875977,18.3427734-18.7875977Z"/>
  <path class="cls-4" d="M646.2228233,737.9983872c6.1083984,0,9.7558594-5.3295898,9.7558594-14.2573242s-3.6474609-14.2578125-9.7558594-14.2578125c-6.078125,0-9.7060547,5.3300781-9.7060547,14.2578125s3.6279297,14.2573242,9.7060547,14.2573242Z"/>
  <path class="cls-5" d="M290.6691124,742.5286606c5.2441406,0,9.7734375-1.7885742,13.0966797-5.1723633,3.4863281-3.550293,5.3496094-8.6723633,5.2460938-14.4228516l-.015625-.8637695h-20.3447266v4.4306641h15.34375c-.890625,6.9584961-6.0107422,11.3994141-13.2763672,11.3994141-8.1728516,0-13.6640625-5.6899414-13.6640625-14.1586914s5.4707031-14.1586914,13.6142578-14.1586914c5.8652344,0,10.3818359,2.8813477,12.390625,7.9057617l.2216797.5532227h5.0751953l-.3789062-1.1542969c-2.4169922-7.3608398-9.0869141-11.9335938-17.4072266-11.9335938-10.7998047,0-18.3427734,7.7255859-18.3427734,18.7875977s7.5830078,18.7875977,18.4414062,18.7875977Z"/>
  <polygon class="cls-5" points="342.5460655 737.3060044 324.9357139 737.3060044 324.9357139 705.546727 320.2071983 705.546727 320.2071983 741.9349106 342.5460655 741.9349106 342.5460655 737.3060044"/>
  <path class="cls-5" d="M358.4982139,733.1790513h16.7353516l3.6611328,8.7558594h5.0673828l-15.0234375-36.3881836h-4.0957031l-15.0742188,36.3881836h5.0683594l3.6611328-8.7558594ZM360.2130577,728.7972153l6.6552734-16.2470703,6.6972656,16.2470703h-13.3525391Z"/>
  <path class="cls-5" d="M404.5568077,738.0975083c-5.6298828,0-9.1474609-2.7226562-9.4111328-7.2836914l-.0478516-.8291016h-4.7246094l.0478516.925293c.3710938,7.1665039,5.7880859,11.6186523,14.1357422,11.6186523,8.1103516,0,13.1484375-3.9389648,13.1484375-10.2792969,0-5.5898438-3.8164062-8.8203125-12.7558594-10.8007812-7.6425781-1.7280273-9.2080078-3.8535156-9.2080078-6.5131836,0-3.4243164,3.0556641-5.5512695,7.9746094-5.5512695,5.3583984,0,8.4550781,2.4467773,8.7197266,6.8896484l.0488281.8276367h4.6669922l-.0410156-.9194336c-.3144531-7.0307617-5.3222656-11.2285156-13.3945312-11.2285156-7.7167969,0-12.703125,3.9179688-12.703125,9.9819336,0,5.6547852,3.8027344,8.8857422,12.7089844,10.8017578,8.0908203,1.8105469,9.2060547,4.2475586,9.2060547,6.6113281,0,3.5463867-3.2080078,5.7490234-8.3710938,5.7490234Z"/>
  <path class="cls-5" d="M445.3341514,742.5286606c5.2441406,0,9.7734375-1.7885742,13.0966797-5.1723633,3.4863281-3.550293,5.3496094-8.6723633,5.2460938-14.4228516l-.015625-.8637695h-20.3447266v4.4306641h15.34375c-.890625,6.9584961-6.0107422,11.3994141-13.2763672,11.3994141-8.1728516,0-13.6640625-5.6899414-13.6640625-14.1586914s5.4707031-14.1586914,13.6142578-14.1586914c5.8652344,0,10.3818359,2.8813477,12.390625,7.9057617l.2216797.5532227h5.0761719l-.3789062-1.1542969c-2.4179688-7.3608398-9.0888672-11.9335938-17.4082031-11.9335938-10.7998047,0-18.3427734,7.7255859-18.3427734,18.7875977s7.5830078,18.7875977,18.4414062,18.7875977Z"/>
  <path class="cls-5" d="M491.7560264,742.5286606c11.0625,0,18.7880859-7.7255859,18.7880859-18.7875977s-7.7255859-18.7875977-18.7880859-18.7875977c-11.0908203,0-18.8369141,7.7255859-18.8369141,18.7875977s7.7460938,18.7875977,18.8369141,18.7875977ZM491.7560264,709.5823716c8.3505859,0,13.9609375,5.6899414,13.9609375,14.1586914s-5.6103516,14.1586914-13.9609375,14.1586914c-8.3798828,0-14.0097656-5.6899414-14.0097656-14.1586914s5.6298828-14.1586914,14.0097656-14.1586914Z"/>
  <polygon class="cls-5" points="532.5968468 741.9349106 542.8634483 713.562352 553.1798546 741.9349106 557.350753 741.9349106 569.3068077 705.546727 564.288253 705.546727 555.0890343 733.6546372 544.9142296 705.546727 540.8126671 705.546727 534.9611046 721.5633286 530.6329796 733.5989731 521.4376671 705.546727 516.4689171 705.546727 528.3741905 741.9349106 532.5968468 741.9349106"/>
  <path class="cls-5" d="M622.6456749,737.4544419h-17.8623047l10.2988281-9.4477539c4.5195312-4.0566406,6.6240234-7.8642578,6.6240234-11.9829102,0-6.5180664-4.9189453-11.0703125-11.9609375-11.0703125-7.1201172,0-12.0458984,4.7763672-12.2578125,11.8852539l-.0263672.9057617h4.5234375l.0322266-.8457031c.1777344-4.5952148,3.2119141-7.5639648,7.7285156-7.5639648,4.3554688,0,7.2822266,2.7080078,7.2822266,6.7382812,0,2.7709961-1.4824219,5.3139648-4.9570312,8.5024414l-15.1269531,13.815918v3.543457h25.7021484v-4.4804688Z"/>
  <path class="cls-5" d="M646.2228233,742.5286606c8.9033203,0,14.4345703-7.1992188,14.4345703-18.7875977s-5.53125-18.7875977-14.4345703-18.7875977c-8.8730469,0-14.3847656,7.1992188-14.3847656,18.7875977s5.5117188,18.7875977,14.3847656,18.7875977ZM646.2228233,709.4832505c6.1083984,0,9.7558594,5.3300781,9.7558594,14.2578125s-3.6474609,14.2573242-9.7558594,14.2573242c-6.078125,0-9.7060547-5.3295898-9.7060547-14.2573242s3.6279297-14.2578125,9.7060547-14.2578125Z"/>
  <path class="cls-5" d="M695.6866905,737.4544419h-17.8623047l10.2988281-9.4477539c4.5195312-4.0566406,6.6240234-7.8642578,6.6240234-11.9829102,0-6.5180664-4.9189453-11.0703125-11.9609375-11.0703125-7.1201172,0-12.0458984,4.7763672-12.2578125,11.8852539l-.0263672.9057617h4.5234375l.0322266-.8457031c.1777344-4.5952148,3.2119141-7.5639648,7.7285156-7.5639648,4.3554688,0,7.2822266,2.7080078,7.2822266,6.7382812,0,2.7709961-1.4824219,5.3139648-4.9570312,8.5024414l-15.1269531,13.815918v3.543457h25.7021484v-4.4804688Z"/>
  <path class="cls-5" d="M717.2599327,742.5286606c7.7050781,0,13.296875-5.2802734,13.296875-12.5546875s-5.4052734-12.5546875-12.8515625-12.5546875c-1.0107422,0-1.9980469.1088867-2.953125.324707l8.4414062-12.1972656h-5.5029297l-10.4990234,15.1147461c-2.2324219,3.1665039-3.2275391,6.0385742-3.2275391,9.3125,0,7.3920898,5.4677734,12.5546875,13.2958984,12.5546875ZM717.2599327,738.1966294c-5.1035156,0-8.6669922-3.3813477-8.6669922-8.2226562,0-4.8706055,3.5634766-8.2719727,8.6669922-8.2719727,5.0742188,0,8.6181641,3.4013672,8.6181641,8.2719727,0,4.8413086-3.5439453,8.2226562-8.6181641,8.2226562Z"/>
</svg>