<?xml version="1.0" encoding="UTF-8"?>
<svg id="Layer_1" data-name="Layer 1" xmlns="http://www.w3.org/2000/svg" viewBox="0 0 1000 325">
  <g>
    <path d="M242.1622764,71.9612056c0-23.5532227,16.3994141-40.0625,39.7324219-40.0625,19.5908203,0,35,11.8867188,39.4023438,30.4868164h-18.0507812c-2.8613281-8.5844727-11.0058594-13.8676758-20.8007812-13.8676758-13.0976562,0-22.453125,9.465332-22.453125,23.4433594,0,13.8676758,9.2451172,23.4428711,22.3427734,23.4428711,10.1259766,0,18.2705078-5.5029297,21.4619141-14.4179688h18.0498047c-3.8515625,18.7104492-19.5908203,31.0375977-39.8417969,31.0375977-23.4433594,0-39.8427734-16.5092773-39.8427734-40.0625Z"/>
    <path d="M333.2267296,71.9612056c0-23.4433594,16.9501953-40.0625,41.0527344-40.0625,23.9941406,0,41.0537109,16.6191406,41.0537109,40.0625,0,23.4428711-17.0595703,40.0625-41.0537109,40.0625-24.1025391,0-41.0527344-16.6196289-41.0527344-40.0625ZM397.5030968,71.9612056c0-13.8676758-9.5751953-23.4433594-23.2236328-23.4433594-13.6474609,0-23.2226562,9.5756836-23.2226562,23.4433594s9.5751953,23.4428711,23.2226562,23.4428711c13.6484375,0,23.2236328-9.5751953,23.2236328-23.4428711Z"/>
    <path d="M431.6222374,33.4397212h14.7480469l27.4052734,39.9521484,27.4052734-39.9521484h14.7480469v77.0429688h-17.3896484v-46.3359375l-18.7099609,27.2954102h-12.1074219l-18.7099609-27.2954102v46.3359375h-17.3896484V33.4397212Z"/>
    <path d="M536.7853233,33.4397212h14.7480469l27.4052734,39.9521484,27.4052734-39.9521484h14.7480469v77.0429688h-17.3896484v-46.3359375l-18.7099609,27.2954102h-12.1074219l-18.7099609-27.2954102v46.3359375h-17.3896484V33.4397212Z"/>
    <path d="M641.2560264,78.6750728v-45.2353516h17.6103516v44.1347656c0,11.7763672,4.8427734,17.8295898,14.6376953,17.8295898,9.7958984,0,14.7480469-6.0532227,14.7480469-17.8295898v-44.1347656h17.5v45.2353516c0,20.8012695-12.2167969,33.3486328-32.2480469,33.3486328s-32.2480469-12.5473633-32.2480469-33.3486328Z"/>
    <path d="M725.7941124,33.4397212h14.8583984l34.0087891,47.1064453v-47.1064453h17.2792969v77.0429688h-14.8583984l-34.0087891-47.2163086v47.2163086h-17.2792969V33.4397212Z"/>
    <path d="M812.6329796,33.4397212h17.5v77.0429688h-17.5V33.4397212Z"/>
    <path d="M867.5304405,49.838647h-24.3232422v-16.3989258h66.2568359v16.3989258h-24.3232422v60.644043h-17.6103516v-60.644043Z"/>
    <path d="M947.4122764,83.517358l-28.3964844-50.0776367h19.921875l9.5751953,17.8295898,7.7041016,13.9780273,7.59375-13.9780273,9.4658203-17.8295898h19.9208984l-28.2851562,49.8579102v27.1850586h-17.5v-26.965332Z"/>
    <path d="M245.7316124,172.1482173c0-16.7998047,12.1464844-28.7094727,29.4189453-28.7094727,17.1943359,0,29.4199219,11.909668,29.4199219,28.7094727s-12.2255859,28.7094727-29.4199219,28.7094727c-17.2724609,0-29.4189453-11.909668-29.4189453-28.7094727ZM291.7931358,172.1482173c0-9.9379883-6.8623047-16.7998047-16.6425781-16.7998047-9.7792969,0-16.6416016,6.8618164-16.6416016,16.7998047s6.8623047,16.7998047,16.6416016,16.7998047c9.7802734,0,16.6425781-6.8618164,16.6425781-16.7998047Z"/>
    <path d="M336.0284874,144.5427486h13.4873047l7.3349609,19.6391602,6.625,17.5097656,6.6259766-17.5097656,7.2558594-19.6391602h13.4082031l-21.2167969,55.2109375h-12.3037109l-21.2167969-55.2109375Z"/>
    <path d="M427.9259483,144.5427486h36.203125v10.5688477h-23.7412109v11.3579102h21.6904297v10.5688477h-21.6904297v12.0673828h24.6083984v10.6479492h-37.0703125v-55.2109375Z"/>
    <path d="M505.3029014,144.5427486h23.5039062c12.6992188,0,20.7441406,7.2563477,20.7441406,19.0083008,0,8.2026367-3.8652344,14.1972656-10.4902344,17.0366211l11.4365234,19.1660156h-14.5126953l-9.9384766-17.1943359h-8.2021484v17.1943359h-12.5410156v-55.2109375ZM527.1505577,171.9905025c6.2314453,0,9.6230469-2.9970703,9.6230469-8.3603516s-3.3916016-8.3608398-9.6230469-8.3608398h-9.4648438v16.7211914h9.4648438Z"/>
    <path d="M615.9650108,139.494897h11.7519531l-21.2949219,65.3066406h-11.6738281l21.2167969-65.3066406Z"/>
    <path d="M661.3907921,172.1482173c0-16.8789062,11.7519531-28.7094727,28.4726562-28.7094727,14.0400391,0,25.0820312,8.5180664,28.2363281,21.8476562h-12.9345703c-2.0507812-6.1523438-7.8876953-9.9379883-14.9072266-9.9379883-9.3857422,0-16.0898438,6.7832031-16.0898438,16.7998047,0,9.9379883,6.625,16.7998047,16.0107422,16.7998047,7.2568359,0,13.0927734-3.9433594,15.3808594-10.3320312h12.9345703c-2.7607422,13.4082031-14.0390625,22.2416992-28.5517578,22.2416992-16.7998047,0-28.5517578-11.8305664-28.5517578-28.7094727Z"/>
    <path d="M755.0470421,172.1482173c0-16.7998047,12.1464844-28.7094727,29.4199219-28.7094727,17.1933594,0,29.4189453,11.909668,29.4189453,28.7094727s-12.2255859,28.7094727-29.4189453,28.7094727c-17.2734375,0-29.4199219-11.909668-29.4199219-28.7094727ZM801.1085655,172.1482173c0-9.9379883-6.8623047-16.7998047-16.6416016-16.7998047-9.7802734,0-16.6425781,6.8618164-16.6425781,16.7998047s6.8623047,16.7998047,16.6425781,16.7998047c9.7792969,0,16.6416016-6.8618164,16.6416016-16.7998047Z"/>
    <path d="M853.9571983,144.5427486h21.8476562c17.4306641,0,29.1044922,11.2001953,29.1044922,27.6054688,0,16.484375-11.6738281,27.6054688-29.1044922,27.6054688h-21.8476562v-55.2109375ZM875.4894249,188.2380611c9.859375,0,16.484375-6.3886719,16.484375-16.0898438s-6.625-16.0898438-16.6416016-16.0898438h-8.8339844v32.1796875h8.9912109Z"/>
    <path d="M944.9484093,144.5427486h36.2021484v10.5688477h-23.7402344v11.3579102h21.6904297v10.5688477h-21.6904297v12.0673828h24.6083984v10.6479492h-37.0703125v-55.2109375Z"/>
  </g>
  <g>
    <path d="M84.9052363,130.9117367c7.9174869-19.5779696,16.7515228-39.1175391,26.2302755-56.4359681-14.1494131-10.5094913-27.7359622-33.1715923-33.3181189-43.2121986-2.0048876,2.2777301-3.3064476,4.9010608-3.896596,7.035296-5.2587877,18.9878212,13.4612436,41.9167017-1.6168448,33.5394245-12.5628842-6.9807275-40.8516052-22.2679952-51.6420232-7.073696,12.0849044,15.5277733,43.6932099,54.5947861,64.2433075,66.1471423Z"/>
    <path d="M111.1355118,74.4757686c9.1846891-16.7808281,18.9726633-31.4779474,29.1203856-42.0662599,0,0-10.1214485,14.650635-24.5780622,43.9377577,8.7552146,2.4111198,33.6899932,7.3586649,68.4218408-1.6128027.8538962-6.3117579-3.3893109-13.2540853-24.5346095-15.5782997-13.8048231-1.515792,16.5696277-32.9634236-5.4346196-47.8363748-.7104012-.4810113-1.408676-.9054331-2.0928035-1.2853916-.7376854-.2647583-1.5168025-.5072851-2.3484671-.7235381-25.6987377-6.7058639-29.260849,36.8701248-39.5156872,27.5025302-16.5716488-15.1377095-27.0316242-11.6008615-32.3560962-5.5498198,5.5821567,10.0406063,19.1687058,32.7027073,33.3181189,43.2121986Z"/>
    <path d="M64.2358964,187.3194101c5.8014413-17.3790607,12.7801477-36.9044828,20.6693398-56.4076733-20.5500975-11.5523562-52.1584031-50.6193689-64.2433075-66.1471423-2.1574773,3.0356261-3.6318377,7.2697385-4.1229543,13.060064-2.635457,31.102031,29.4508282,54.1279221,23.0541859,58.3337397-8.461151,5.5639672-25.3016002-13.3652434-31.9387482-1.3379391,9.6202266,12.3587575,29.2163857,34.6894054,56.5814841,52.498951Z"/>
    <path d="M153.1401294,120.242582c-16.2462588-5.7943676,16.9768705-21.3342673,27.7652675-37.8200212,1.3803813-2.1079614,2.8072468-4.8323449,3.194279-7.6880971-34.7318476,8.9714676-59.6666261,4.0239225-68.4218408,1.6128027-7.4839704,15.1639833-16.1260059,34.2730679-25.1389052,57.3131064,9.3867947,4.0138172,47.7141009,18.8402842,101.8501073,18.9170843,9.1018258-23.706987-23.8302715-26.8376028-39.2489078-32.3348752Z"/>
    <path d="M70.5132964,190.4480048c9.5464581,2.9749945,41.1780057,11.8615777,74.7719988,10.5236387,4.5130181-12.2193047-12.359768-13.4117277-13.7340861-23.2118283-1.064086-7.5830022,44.4036111,6.3723896,59.0330251-21.2008776.7397065-1.3945286,1.316718-2.7102361,1.804803-3.9814803-54.1360064-.0768001-92.4633126-14.903267-101.8501073-18.9170843-6.5866215,16.8374176-13.3622118,35.7342914-20.0256335,56.7876319Z"/>
    <path d="M70.5132964,190.4480048c-4.2896914,13.5511806-8.5217827,28.0280048-12.629579,43.3273988-1.4571814,5.4245143-2.8971838,10.9500815-4.3169756,16.596912,31.8851902,10.5256597,61.2460814.0242527,62.2414515-12.9913481.0080842-.1030739-.0111158-.179874-.0050526-.2789057.7589065-13.7856231-19.9033596-6.1440103-19.4142641-14.432361.4911166-8.3489824,36.0728182-.0485053,47.0764577-17.9489985.8437909-1.372297,1.3935181-2.5909938,1.8199609-3.7490589-33.593993,1.3379391-65.2255407-7.5486442-74.7719988-10.5236387Z"/>
    <path d="M7.6544123,134.8204591c-.4648429.8427804-.884212,1.8169294-1.2419389,2.9810576-6.1793788,20.0832336,37.5158522,47.0623103,31.570916,52.9435833-5.35883,5.2992089-12.3425891-6.8109588-20.9543087-1.8088451-.9438332.5497272-1.9018137,1.2429494-2.8850575,2.2514564-9.7394689,9.9779535-.1525897,38.7234332,27.4802986,54.0672905-6.4481792,21.6515731-12.8680636,45.8415925-19.1525373,71.1391506,2.2797512-.7983171,5.0081768-1.5986553,5.6872516-3.7490589,1.0196228-4.1916702,7.3212754-29.6973971,17.5528715-64.2998971,0,0,1.8674558-7.0878434,5.286072-18.7655051,3.1609316-10.7985023,7.6527286-25.5259374,13.2379169-42.2602812-27.3650984-17.8095456-46.9612575-40.1401935-56.5814841-52.498951Z"/>
  </g>
  <g>
    <path d="M559.272628,265.1809322c-4.6142578,0-7.3681641,4.0458984-7.3681641,10.8232422,0,6.7768555,2.7539062,10.8227539,7.3681641,10.8227539,4.6367188,0,7.4052734-4.0458984,7.4052734-10.8227539,0-6.7773438-2.7685547-10.8232422-7.4052734-10.8232422Z"/>
    <polygon points="351.4415733 279.8425533 346.3575889 267.5090572 341.3048546 279.8425533 351.4415733 279.8425533"/>
    <path d="M441.6603233,265.2561275c-6.3613281,0-10.6347656,4.3193359-10.6347656,10.7480469s4.2734375,10.7475586,10.6347656,10.7475586c6.3388672,0,10.5976562-4.3188477,10.5976562-10.7475586s-4.2587891-10.7480469-10.5976562-10.7480469Z"/>
    <path d="M252.7648155,245.2878658l-19.8632812,60.8132324h409.5610352l19.8632812-60.8132324H252.7648155ZM298.1505577,286.3391353c-2.5224609,2.5688477-5.9599609,3.9267578-9.9414062,3.9267578-8.2421875,0-13.9990234-5.8647461-13.9990234-14.2617188s5.7255859-14.2617188,13.9238281-14.2617188c6.3154297,0,11.3789062,3.4711914,13.2148438,9.0585938l.2871094.8764648h-3.8525391l-.1679688-.4199219c-1.5253906-3.8139648-4.9541016-6.0014648-9.40625-6.0014648-6.1816406,0-10.3349609,4.3193359-10.3349609,10.7480469s4.1679688,10.7475586,10.3720703,10.7475586c5.5166016,0,9.4033203-3.3710938,10.078125-8.652832h-11.6474609v-3.3637695h15.4443359l.0117188.6557617c.0791016,4.3652344-1.3349609,8.2529297-3.9824219,10.9482422ZM327.7589561,289.8152095h-16.9580078v-27.6220703h3.5888672v24.1079102h13.3691406v3.5141602ZM355.4874718,289.8152095l-2.7792969-6.6464844h-12.7050781l-2.7792969,6.6464844h-3.8476562l11.4443359-27.6220703h3.1083984l11.4042969,27.6220703h-3.8457031ZM375.1407921,290.2658931c-6.3378906,0-10.4492188-3.3798828-10.7314453-8.8198242l-.0361328-.7026367h3.5859375l.0371094.6293945c.1992188,3.4624023,2.8710938,5.5292969,7.1445312,5.5292969,3.9189453,0,6.3535156-1.671875,6.3535156-4.3637695,0-1.7944336-.8466797-3.6445312-6.9873047-5.0185547-6.7607422-1.4545898-9.6474609-3.9072266-9.6474609-8.2001953,0-4.6030273,3.7851562-7.5771484,9.6425781-7.5771484,6.1279297,0,9.9287109,3.1865234,10.1679688,8.5239258l.03125.6977539h-3.5429688l-.0380859-.628418c-.2001953-3.3725586-2.5507812-5.2294922-6.6181641-5.2294922-3.734375,0-6.0537109,1.6142578-6.0537109,4.2133789,0,2.0195312,1.1884766,3.6333008,6.9892578,4.9443359,6.7861328,1.503418,9.6835938,3.9560547,9.6835938,8.1992188,0,4.8129883-3.8242188,7.8027344-9.9804688,7.8027344ZM416.2052452,286.3391353c-2.5224609,2.5688477-5.9599609,3.9267578-9.9414062,3.9267578-8.2421875,0-13.9990234-5.8647461-13.9990234-14.2617188s5.7255859-14.2617188,13.9238281-14.2617188c6.3154297,0,11.3789062,3.4711914,13.2148438,9.0585938l.2871094.8764648h-3.8525391l-.1679688-.4199219c-1.5253906-3.8139648-4.9541016-6.0014648-9.40625-6.0014648-6.1816406,0-10.3349609,4.3193359-10.3349609,10.7480469s4.1679688,10.7475586,10.3720703,10.7475586c5.5166016,0,9.4033203-3.3710938,10.078125-8.652832h-11.6474609v-3.3637695h15.4443359l.0117188.6557617c.0791016,4.3652344-1.3349609,8.2529297-3.9824219,10.9482422ZM441.6603233,290.2658931c-8.4189453,0-14.2988281-5.8647461-14.2988281-14.2617188s5.8798828-14.2617188,14.2988281-14.2617188c8.3974609,0,14.2626953,5.8647461,14.2626953,14.2617188s-5.8652344,14.2617188-14.2626953,14.2617188ZM491.6310264,289.8152095h-3.1660156l-7.8320312-21.5380859-7.7929688,21.5380859h-3.2060547l-9.0361328-27.6220703h3.7705078l6.9814453,21.2944336,3.2841797-9.1367188,4.4433594-12.1577148h3.1132812l7.7226562,21.3369141,6.9833984-21.3369141h3.8095703l-9.0751953,27.6220703ZM541.1896202,289.8152095h-19.5107422v-2.6899414l11.4833984-10.487793c2.6367188-2.4204102,3.7626953-4.3510742,3.7626953-6.4541016,0-3.0595703-2.2216797-5.1147461-5.5283203-5.1147461-3.4287109,0-5.7314453,2.253418-5.8662109,5.7416992l-.0244141.6420898h-3.4335938l.0195312-.6879883c.1601562-5.3959961,3.8994141-9.0219727,9.3046875-9.0219727,5.3457031,0,9.0800781,3.4555664,9.0800781,8.4033203,0,3.1264648-1.5976562,6.0166016-5.0283203,9.0966797l-7.8183594,7.1713867h13.5595703v3.4013672ZM559.272628,290.2658931c-6.7353516,0-10.9199219-5.4648438-10.9199219-14.2617188s4.1845703-14.2617188,10.9199219-14.2617188c6.7587891,0,10.9570312,5.4648438,10.9570312,14.2617188s-4.1982422,14.2617188-10.9570312,14.2617188ZM597.0011436,289.8152095h-19.5107422v-2.6899414l11.4833984-10.487793c2.6367188-2.4204102,3.7626953-4.3510742,3.7626953-6.4541016,0-3.0595703-2.2216797-5.1147461-5.5283203-5.1147461-3.4287109,0-5.7314453,2.253418-5.8662109,5.7416992l-.0244141.6420898h-3.4335938l.0195312-.6879883c.1601562-5.3959961,3.8994141-9.0219727,9.3046875-9.0219727,5.3457031,0,9.0800781,3.4555664,9.0800781,8.4033203,0,3.1264648-1.5976562,6.0166016-5.0283203,9.0966797l-7.8183594,7.1713867h13.5595703v3.4013672ZM613.5665733,290.2658931c-5.9433594,0-10.09375-3.9189453-10.09375-9.5302734,0-2.4848633.7558594-4.6650391,2.4511719-7.0688477l7.96875-11.4736328h4.1777344l-6.4072266,9.2583008c.7246094-.1635742,1.4736328-.2460938,2.2412109-.2460938,5.6523438,0,9.7558594,4.0083008,9.7558594,9.5302734s-4.2451172,9.5302734-10.09375,9.5302734Z"/>
    <path d="M613.5665733,274.4563228c-3.8740234,0-6.5791016,2.5820312-6.5791016,6.2792969,0,3.675293,2.7050781,6.2416992,6.5791016,6.2416992,3.8515625,0,6.5419922-2.5664062,6.5419922-6.2416992,0-3.6972656-2.6904297-6.2792969-6.5419922-6.2792969Z"/>
  </g>
</svg>