<?xml version="1.0" encoding="UTF-8"?>
<svg id="Layer_1" data-name="Layer 1" xmlns="http://www.w3.org/2000/svg" viewBox="0 0 1000 775">
  <g>
    <g>
      <path d="M6.3517296,414.8547603c0-31.0307617,21.6054688-52.7817383,52.3466797-52.7817383,25.8105469,0,46.1113281,15.6606445,51.9111328,40.1665039h-23.7802734c-3.7705078-11.3105469-14.5009766-18.2705078-27.40625-18.2705078-17.2558594,0-29.5810547,12.4702148-29.5810547,30.8857422,0,18.2705078,12.1806641,30.8857422,29.4365234,30.8857422,13.3398438,0,24.0703125-7.25,28.2753906-18.9956055h23.78125c-5.0751953,24.6508789-25.8115234,40.8916016-52.4921875,40.8916016-30.8857422,0-52.4912109-21.7509766-52.4912109-52.7817383Z"/>
      <path d="M126.3282921,414.8547603c0-30.8857422,22.3300781-52.7817383,54.0869141-52.7817383,31.6103516,0,54.0859375,21.8959961,54.0859375,52.7817383s-22.4755859,52.7817383-54.0859375,52.7817383c-31.7568359,0-54.0869141-21.8959961-54.0869141-52.7817383ZM211.0109093,414.8547603c0-18.2705078-12.6152344-30.8857422-30.5957031-30.8857422-17.9814453,0-30.5966797,12.6152344-30.5966797,30.8857422s12.6152344,30.8857422,30.5966797,30.8857422c17.9804688,0,30.5957031-12.6152344,30.5957031-30.8857422Z"/>
      <path d="M255.9611046,364.1032955h19.4306641l36.1064453,52.6367188,36.1054688-52.6367188h19.4306641v101.5029297h-22.9101562v-61.046875l-24.6513672,35.9609375h-15.9501953l-24.6503906-35.9609375v61.046875h-22.9111328v-101.5029297Z"/>
      <path d="M394.5128624,364.1032955h19.4306641l36.1064453,52.6367188,36.1054688-52.6367188h19.4306641v101.5029297h-22.9101562v-61.046875l-24.6513672,35.9609375h-15.9501953l-24.6503906-35.9609375v61.046875h-22.9111328v-101.5029297Z"/>
      <path d="M532.1505577,423.6999751v-59.5966797h23.2011719v58.1464844c0,15.515625,6.3798828,23.4907227,19.2851562,23.4907227s19.4306641-7.9750977,19.4306641-23.4907227v-58.1464844h23.0556641v59.5966797c0,27.4057617-16.0957031,43.9365234-42.4863281,43.9365234s-42.4863281-16.5307617-42.4863281-43.9365234Z"/>
      <path d="M643.5284874,364.1032955h19.5761719l44.8056641,62.0615234v-62.0615234h22.765625v101.5029297h-19.5751953l-44.8066406-62.2070312v62.2070312h-22.765625v-101.5029297Z"/>
      <path d="M757.9376671,364.1032955h23.0556641v101.5029297h-23.0556641v-101.5029297Z"/>
      <path d="M830.2648155,385.7087642h-32.0458984v-21.6054688h87.2929688v21.6054688h-32.0458984v79.8974609h-23.2011719v-79.8974609Z"/>
      <path d="M935.507003,430.0803462l-37.4111328-65.9770508h26.2460938l12.6152344,23.4907227,10.1503906,18.4155273,10.0048828-18.4155273,12.4707031-23.4907227h26.2460938l-37.2666016,65.6870117v35.815918h-23.0556641v-35.5258789Z"/>
      <path d="M11.053878,546.8503658c0-22.1333008,16.0029297-37.8242188,38.7597656-37.8242188,22.6533203,0,38.7597656,15.690918,38.7597656,37.8242188s-16.1064453,37.8237305-38.7597656,37.8237305c-22.7568359,0-38.7597656-15.6904297-38.7597656-37.8237305ZM71.7394249,546.8503658c0-13.0932617-9.0410156-22.1333008-21.9257812-22.1333008s-21.9257812,9.0400391-21.9257812,22.1333008c0,13.0927734,9.0410156,22.1333008,21.9257812,22.1333008s21.9257812-9.0405273,21.9257812-22.1333008Z"/>
      <path d="M130.0187218,510.4807369h17.7685547l9.6640625,25.8745117,8.7285156,23.0683594,8.7285156-23.0683594,9.5605469-25.8745117h17.6650391l-27.953125,72.7387695h-16.2099609l-27.9521484-72.7387695Z"/>
      <path d="M251.0929405,510.4807369h47.6953125v13.9243164h-31.2773438v14.9633789h28.5751953v13.9243164h-28.5751953v15.8984375h32.4199219v14.0283203h-48.8378906v-72.7387695Z"/>
      <path d="M353.0362999,510.4807369h30.9658203c16.7294922,0,27.328125,9.5600586,27.328125,25.0429688,0,10.8071289-5.0908203,18.7041016-13.8203125,22.4453125l15.0673828,25.2504883h-19.1191406l-13.09375-22.652832h-10.8066406v22.652832h-16.5214844v-72.7387695ZM381.819503,546.642358c8.2089844,0,12.6777344-3.9487305,12.6777344-11.0146484s-4.46875-11.0146484-12.6777344-11.0146484h-12.4697266v22.0292969h12.4697266Z"/>
      <path d="M498.8321983,503.8303462h15.4824219l-28.0556641,86.0395508h-15.3798828l27.953125-86.0395508Z"/>
      <path d="M558.6779014,546.8503658c0-22.2373047,15.4833984-37.8242188,37.5126953-37.8242188,18.4960938,0,33.0439453,11.2226562,37.2011719,28.7836914h-17.0419922c-2.7021484-8.1049805-10.3916016-13.0927734-19.6396484-13.0927734-12.3652344,0-21.1982422,8.9360352-21.1982422,22.1333008,0,13.0927734,8.7285156,22.1333008,21.0947266,22.1333008,9.5595703,0,17.2490234-5.1958008,20.2626953-13.612793h17.0419922c-3.6376953,17.6650391-18.4970703,29.3032227-37.6162109,29.3032227-22.1337891,0-37.6171875-15.5864258-37.6171875-37.8237305Z"/>
      <path d="M682.069503,546.8503658c0-22.1333008,16.0029297-37.8242188,38.7597656-37.8242188,22.6533203,0,38.7597656,15.690918,38.7597656,37.8242188s-16.1064453,37.8237305-38.7597656,37.8237305c-22.7568359,0-38.7597656-15.6904297-38.7597656-37.8237305ZM742.7550499,546.8503658c0-13.0932617-9.0410156-22.1333008-21.9257812-22.1333008s-21.9257812,9.0400391-21.9257812,22.1333008c0,13.0927734,9.0410156,22.1333008,21.9257812,22.1333008s21.9257812-9.0405273,21.9257812-22.1333008Z"/>
      <path d="M812.3829796,510.4807369h28.7832031c22.9648438,0,38.34375,14.7558594,38.34375,36.3696289,0,21.7172852-15.3789062,36.3691406-38.34375,36.3691406h-28.7832031v-72.7387695ZM840.7501671,568.0481197c12.9892578,0,21.7177734-8.4165039,21.7177734-21.1977539s-8.7285156-21.1982422-21.9248047-21.1982422h-11.6386719v42.3959961h11.8457031Z"/>
      <path d="M932.2628624,510.4807369h47.6953125v13.9243164h-31.2773438v14.9633789h28.5751953v13.9243164h-28.5751953v15.8984375h32.4199219v14.0283203h-48.8378906v-72.7387695Z"/>
    </g>
    <g>
      <path d="M513.445067,143.0558339c8.5091709-21.0410564,18.0033855-42.040843,28.1904976-60.6535004-15.2068169-11.294879-29.8087062-35.650548-35.8080246-46.4415016-2.1547154,2.4479478-3.5535427,5.2673234-4.1877936,7.5610527-5.6517837,20.4068055,14.4672196,45.0491906-1.7376737,36.0458687-13.5017246-7.5024062-43.904498-23.932111-55.5012979-7.6023224,12.9880248,16.6881838,46.9584595,58.6747244,69.0442922,71.090403Z"/>
      <path d="M541.6355646,82.4023336c9.8710726-18.0348809,20.3905148-33.8303348,31.2965893-45.2099254,0,0-10.8778373,15.7454958-26.4148123,47.2212827,9.4095031,2.5913059,36.2076896,7.9085874,73.5350927-1.7333295.9177089-6.7834437-3.6425985-14.2445801-26.3681123-16.7424861-14.8364752-1.6290691,17.8078972-35.4268225-5.8407557-51.4112484-.7634904-.5169579-1.5139482-.9730973-2.2492014-1.3814506-.7928136-.2845441-1.6301551-.5451951-2.523971-.777609-27.6192374-7.2070017-31.4475497,39.6254765-42.4687451,29.5578296-17.8100693-16.26897-29.0517321-12.4678088-34.7741088-5.964565,5.9993184,10.7909537,20.6012077,35.1466226,35.8080246,46.4415016Z"/>
      <path d="M491.2310809,203.678925c6.2349904-18.6778201,13.7352245-39.6624021,22.2139861-60.6230911-22.0858327-12.4156786-56.0562674-54.4022192-69.0442922-71.090403-2.3187083,3.2624824-3.9032495,7.8130154-4.4310679,14.0360593-2.8324081,33.4263256,31.6517264,58.1729712,24.7770548,62.6930949-9.0934637,5.9797696-27.1924213-14.3640452-34.3255718-1.437925,10.3391585,13.2823433,31.3997637,37.2817892,60.809891,56.4222649Z"/>
      <path d="M586.7792412,131.5893596c-17.4603625-6.2273881,18.2455738-22.9286044,29.8402015-40.6463598,1.4835389-2.2654921,3.017036-5.1934723,3.4329916-8.2626384-37.3274031,9.6419169-64.1255896,4.3246354-73.5350927,1.7333295-8.0432571,16.2972072-17.331123,36.8343382-27.0175678,61.5961883,10.0882819,4.313775,51.2798368,20.2482427,109.4614964,20.3307822,9.7820169-25.4786406-25.6111382-28.8432113-42.182029-34.7513018Z"/>
      <path d="M497.977599,207.0413236c10.2598771,3.1973196,44.2552909,12.7480087,80.3598061,11.3100837,4.8502817-13.132469-13.2834294-14.4140033-14.760452-24.946478-1.1436065-8.1496896,47.7219499,6.8486065,63.4446387-22.7852463.7949857-1.4987436,1.415118-2.9127755,1.9396783-4.2790215-58.1816595-.0825395-99.3732145-16.0170073-109.4614964-20.3307822-7.0788482,18.0956995-14.3607871,38.4047608-21.5221748,61.0314444Z"/>
      <path d="M497.977599,207.0413236c-4.6102655,14.5638777-9.1586264,30.1225735-13.5734037,46.5653109-1.5660784,5.8298953-3.1136941,11.7683951-4.6395888,17.8372205,34.2680113,11.3122558,65.8230796.0260651,66.892835-13.9622081.0086884-.1107767-.0119465-.1933162-.0054302-.2997487.8156206-14.8158404-21.3907632-6.60316-20.8651169-15.5109098.5278184-8.9729125,38.7685862-.0521302,50.5945418-19.2903501.9068485-1.4748505,1.4976575-2.7846221,1.955969-4.0292309-36.1045152,1.437925-70.099929-8.1127641-80.3598061-11.3100837Z"/>
      <path d="M430.4211899,147.2566601c-.4995812.9057624-.9502903,1.9527108-1.3347506,3.2038359-6.6411717,21.5840794,40.31946,50.5793371,33.930251,56.9001252-5.7593023,5.6952255-13.2649666-7.3199504-22.5202511-1.9440224-1.014367.5908091-2.0439387,1.3358367-3.1006615,2.4197106-10.4673119,10.7236188-.163993,41.617285,29.5339366,58.1078084-6.9300599,23.2696229-13.8297105,49.2673935-20.583831,76.4554705,2.4501199-.8579764,5.3824443-1.7181249,6.1122672-4.0292309,1.0958205-4.5049191,7.8684037-31.9167216,18.8646201-69.1051108,0,0,2.0070131-7.6175271,5.6811069-20.1678753,3.3971521-11.6054882,8.2246268-27.4335235,14.2272034-45.4184462-29.4101273-19.1404758-50.4707325-43.1399216-60.809891-56.4222649Z"/>
    </g>
  </g>
  <g>
    <path d="M491.7560264,709.5818111c-8.3798828,0-14.0097656,5.6899414-14.0097656,14.1586914s5.6298828,14.1586914,14.0097656,14.1586914c8.3505859,0,13.9609375-5.6899414,13.9609375-14.1586914s-5.6103516-14.1586914-13.9609375-14.1586914Z"/>
    <path d="M646.2228233,709.48269c-6.078125,0-9.7060547,5.3300781-9.7060547,14.2578125s3.6279297,14.2573242,9.7060547,14.2573242c6.1083984,0,9.7558594-5.3295898,9.7558594-14.2573242s-3.6474609-14.2578125-9.7558594-14.2578125Z"/>
    <polygon points="373.5655968 728.7966548 366.8683311 712.5495845 360.2130577 728.7966548 373.5655968 728.7966548"/>
    <path d="M717.2599327,721.70144c-5.1035156,0-8.6669922,3.4013672-8.6669922,8.2719727,0,4.8413086,3.5634766,8.2226562,8.6669922,8.2226562,5.0742188,0,8.6181641-3.3813477,8.6181641-8.2226562,0-4.8706055-3.5439453-8.2719727-8.6181641-8.2719727Z"/>
    <path d="M241.9117882,683.2697994l-26.1694336,80.1203613h539.590332l26.1694336-80.1203613H241.9117882ZM303.7657921,737.3557369c-3.3232422,3.3837891-7.8525391,5.1723633-13.0966797,5.1723633-10.8583984,0-18.4414062-7.7255859-18.4414062-18.7875977s7.5429688-18.7875977,18.3427734-18.7875977c8.3203125,0,14.9902344,4.5727539,17.4072266,11.9335938l.3789062,1.1542969h-5.0751953l-.2216797-.5532227c-2.0087891-5.0244141-6.5253906-7.9057617-12.390625-7.9057617-8.1435547,0-13.6142578,5.6899414-13.6142578,14.1586914s5.4912109,14.1586914,13.6640625,14.1586914c7.265625,0,12.3857422-4.440918,13.2763672-11.3994141h-15.34375v-4.4306641h20.3447266l.015625.8637695c.1035156,5.7504883-1.7597656,10.8725586-5.2460938,14.4228516ZM342.5460655,741.9343501h-22.3388672v-36.3881836h4.7285156v31.7592773h17.6103516v4.6289062ZM378.8946983,741.9343501l-3.6611328-8.7558594h-16.7353516l-3.6611328,8.7558594h-5.0683594l15.0742188-36.3881836h4.0957031l15.0234375,36.3881836h-5.0673828ZM404.5568077,742.5281001c-8.3476562,0-13.7646484-4.4521484-14.1357422-11.6186523l-.0478516-.925293h4.7246094l.0478516.8291016c.2636719,4.5610352,3.78125,7.2836914,9.4111328,7.2836914,5.1630859,0,8.3710938-2.2026367,8.3710938-5.7490234,0-2.3637695-1.1152344-4.8007812-9.2060547-6.6113281-8.90625-1.9160156-12.7089844-5.1469727-12.7089844-10.8017578,0-6.0639648,4.9863281-9.9819336,12.703125-9.9819336,8.0722656,0,13.0800781,4.1977539,13.3945312,11.2285156l.0410156.9194336h-4.6669922l-.0488281-.8276367c-.2646484-4.4428711-3.3613281-6.8896484-8.7197266-6.8896484-4.9189453,0-7.9746094,2.1269531-7.9746094,5.5512695,0,2.659668,1.5654297,4.7851562,9.2080078,6.5131836,8.9394531,1.9804688,12.7558594,5.2109375,12.7558594,10.8007812,0,6.340332-5.0380859,10.2792969-13.1484375,10.2792969ZM458.4308311,737.3557369c-3.3232422,3.3837891-7.8525391,5.1723633-13.0966797,5.1723633-10.8583984,0-18.4414062-7.7255859-18.4414062-18.7875977s7.5429688-18.7875977,18.3427734-18.7875977c8.3193359,0,14.9902344,4.5727539,17.4082031,11.9335938l.3789062,1.1542969h-5.0761719l-.2216797-.5532227c-2.0087891-5.0244141-6.5253906-7.9057617-12.390625-7.9057617-8.1435547,0-13.6142578,5.6899414-13.6142578,14.1586914s5.4912109,14.1586914,13.6640625,14.1586914c7.265625,0,12.3857422-4.440918,13.2763672-11.3994141h-15.34375v-4.4306641h20.3447266l.015625.8637695c.1035156,5.7504883-1.7597656,10.8725586-5.2460938,14.4228516ZM491.7560264,742.5281001c-11.0908203,0-18.8369141-7.7255859-18.8369141-18.7875977s7.7460938-18.7875977,18.8369141-18.7875977c11.0625,0,18.7880859,7.7255859,18.7880859,18.7875977s-7.7255859,18.7875977-18.7880859,18.7875977ZM557.350753,741.9343501h-4.1708984l-10.3164062-28.3725586-10.2666016,28.3725586h-4.2226562l-11.9052734-36.3881836h4.96875l9.1953125,28.0522461,4.328125-12.0356445,5.8515625-16.0166016h4.1015625l10.1748047,28.1079102,9.1992188-28.1079102h5.0185547l-11.9560547,36.3881836ZM622.6456749,741.9343501h-25.7021484v-3.543457l15.1269531-13.815918c3.4746094-3.1884766,4.9570312-5.7314453,4.9570312-8.5024414,0-4.0302734-2.9267578-6.7382812-7.2822266-6.7382812-4.5166016,0-7.5507812,2.96875-7.7285156,7.5639648l-.0322266.8457031h-4.5234375l.0263672-.9057617c.2119141-7.1088867,5.1376953-11.8852539,12.2578125-11.8852539,7.0419922,0,11.9609375,4.5522461,11.9609375,11.0703125,0,4.1186523-2.1044922,7.9262695-6.6240234,11.9829102l-10.2988281,9.4477539h17.8623047v4.4804688ZM646.2228233,742.5281001c-8.8730469,0-14.3847656-7.1992188-14.3847656-18.7875977s5.5117188-18.7875977,14.3847656-18.7875977c8.9033203,0,14.4345703,7.1992188,14.4345703,18.7875977s-5.53125,18.7875977-14.4345703,18.7875977ZM695.6866905,741.9343501h-25.7021484v-3.543457l15.1269531-13.815918c3.4746094-3.1884766,4.9570312-5.7314453,4.9570312-8.5024414,0-4.0302734-2.9267578-6.7382812-7.2822266-6.7382812-4.5166016,0-7.5507812,2.96875-7.7285156,7.5639648l-.0322266.8457031h-4.5234375l.0263672-.9057617c.2119141-7.1088867,5.1376953-11.8852539,12.2578125-11.8852539,7.0419922,0,11.9609375,4.5522461,11.9609375,11.0703125,0,4.1186523-2.1044922,7.9262695-6.6240234,11.9829102l-10.2988281,9.4477539h17.8623047v4.4804688ZM717.2599327,742.5281001c-7.828125,0-13.2958984-5.1625977-13.2958984-12.5546875,0-3.2739258.9951172-6.1459961,3.2275391-9.3125l10.4990234-15.1147461h5.5029297l-8.4414062,12.1972656c.9550781-.2158203,1.9423828-.324707,2.953125-.324707,7.4462891,0,12.8515625,5.2802734,12.8515625,12.5546875s-5.5917969,12.5546875-13.296875,12.5546875Z"/>
  </g>
</svg>