<svg width="115" height="32" viewBox="0 0 115 32" fill="none" xmlns="http://www.w3.org/2000/svg">
<g clip-path="url(#clip0_6726_139524)">
<path d="M42.0222 7.95996V10.9333H34.0152V14.1686H41.3844V17.1631H34.0152V23.4022H30.1699V7.95996H42.0222Z" fill="white"/>
<path d="M44.4609 7.93945H47.7836V10.5595H44.4609V7.93945ZM44.4609 11.9648H47.7836V23.4029H44.4609V11.9648Z" fill="white"/>
<path d="M49.4219 11.9864H52.9668C54.3682 17.0597 54.609 18.0985 54.9795 20.2818C55.4374 17.7451 55.5035 17.4619 56.185 14.7718L56.8836 11.9731H60.3397L56.6428 23.3901H53.1203L49.4219 11.9864Z" fill="white"/>
<path d="M72.5984 20.4903C72.2109 21.1136 71.7475 21.6879 71.2184 22.1973C70.0395 23.2639 68.4989 23.8434 66.9098 23.8169C63.5172 23.8169 61.1338 21.6336 61.1338 17.91C61.1338 15.155 62.4915 11.6101 66.9972 11.6101C68.5361 11.5624 70.0258 12.1565 71.1098 13.2522C72.5984 14.8507 72.6858 17.0803 72.7292 18.3692H64.5744C64.5532 19.793 65.3601 21.2115 67.1944 21.2115C69.0281 21.2115 69.6646 20.006 70.0801 19.1988L72.5984 20.4903ZM69.2492 16.2692C69.2218 15.6751 68.9989 15.1061 68.6166 14.6496C68.1709 14.2353 67.5835 14.0091 66.9749 14.0171C66.3264 14.0144 65.7081 14.2843 65.2675 14.7594C64.9035 15.1894 64.6698 15.7121 64.5915 16.2705H69.2492V16.2692Z" fill="white"/>
<path d="M75.4958 8.68066H78.8449V12.2468H81.0535V14.3031H78.8226V19.4413C78.8226 20.1399 78.8226 20.7513 79.6958 20.7513L80.9015 20.7076V23.3276C80.3163 23.4348 79.7238 23.493 79.1295 23.5023C77.9678 23.5023 76.7026 23.4375 75.9815 22.3842C75.5238 21.708 75.5015 20.8955 75.5015 19.8039V14.2806H73.8369V12.2216H75.4998L75.4958 8.68066Z" fill="white"/>
<path d="M86.6265 13.165C87.3688 12.5325 88.1814 12.0297 89.9265 11.855V14.8416L88.8134 15.0162C87.194 15.2994 86.7134 15.5402 86.7134 16.9852V23.4029H83.3643V11.9648H86.6437L86.6265 13.165Z" fill="white"/>
<path d="M91.6911 15.2216C91.6768 14.2345 92.1225 13.2977 92.8968 12.685C93.9448 11.8553 95.3025 11.6807 96.6374 11.6807C98.0385 11.6807 101.44 12.0075 101.44 14.9596V21.6089C101.44 22.8356 101.504 23.0103 101.767 23.4033H98.466V22.3513C97.5928 22.9838 96.6505 23.7089 94.974 23.7089C92.354 23.7089 91.2334 21.8273 91.2334 20.2169C91.2334 18.3789 92.7008 17.3309 93.6391 16.9379C94.5774 16.5449 96.7208 16.1519 98.1448 15.8899V15.2785C98.1008 14.7545 98.0574 13.8772 96.8345 13.8772C95.346 13.8772 95.1488 14.7943 95.0625 15.2137L91.6911 15.2216ZM95.9563 18.6582C95.3883 18.8764 94.5111 19.2033 94.5111 20.0819C94.5465 20.7542 95.1185 21.2715 95.7905 21.2384C96.2048 21.2266 96.6071 21.0982 96.9523 20.8679C98.0654 20.1693 98.1088 19.1212 98.1351 17.9383L95.9563 18.6582Z" fill="white"/>
<path d="M107.524 13.0128C107.832 12.633 108.221 12.3274 108.663 12.1183C109.321 11.8404 110.027 11.6922 110.74 11.6816C111.446 11.6671 112.144 11.8245 112.774 12.1394C113.98 12.7719 114.285 13.8027 114.285 15.5759V23.4042H110.941V16.9732C110.941 15.9478 110.92 15.5719 110.789 15.2663C110.517 14.6893 109.915 14.3413 109.278 14.3929C107.507 14.3929 107.507 15.8167 107.507 17.2352V23.4042H104.149V12.0084H107.542L107.524 13.0128Z" fill="white"/>
<path d="M15.7844 15.8802H18.9735C19.2275 15.8855 19.4392 15.6831 19.4446 15.429C19.4459 15.3642 19.4339 15.2993 19.4088 15.2398L13.9213 0.304356C13.8552 0.121749 13.6818 -0.00131267 13.4873 1.05676e-05H10.2864C10.0323 -0.00131267 9.82456 0.20379 9.82324 0.459175C9.82324 0.514751 9.8325 0.569005 9.85238 0.620611L15.3385 15.5759C15.406 15.7625 15.586 15.8855 15.7844 15.8802Z" fill="white"/>
<path d="M15.2091 31.7578H18.3981C18.6522 31.7591 18.8599 31.554 18.8613 31.2986C18.8613 31.243 18.852 31.1888 18.8321 31.1372L7.51712 0.304352C7.45095 0.121745 7.27763 6.36688e-06 7.08175 6.36688e-06H3.89673C3.64267 -0.00131687 3.43492 0.203786 3.43359 0.459171C3.43359 0.514747 3.44286 0.569 3.46271 0.620606L14.7751 31.4561C14.8426 31.6374 15.0159 31.7578 15.2091 31.7578Z" fill="white"/>
<path d="M8.93027 31.7577H12.1193C12.3734 31.7696 12.589 31.5724 12.601 31.3183C12.6036 31.2561 12.5943 31.1953 12.5731 31.137L7.06713 16.1818C7.00095 15.9992 6.82764 15.8761 6.63313 15.8775H3.42823C3.17417 15.8841 2.97303 16.0958 2.97965 16.3499C2.98098 16.4015 2.99156 16.4531 3.01009 16.502L8.49627 31.4573C8.56375 31.6372 8.73707 31.7577 8.93027 31.7577Z" fill="white"/>
<path d="M16.17 0.624583L18.7424 7.62057C18.8086 7.80314 18.9819 7.92623 19.1765 7.92491H22.3655C22.6195 7.92623 22.8273 7.72114 22.8286 7.46571C22.8286 7.41017 22.8194 7.35589 22.7995 7.30429L20.2271 0.304356C20.161 0.121749 19.9876 -0.00131267 19.7931 1.05676e-05H16.6041C16.35 -0.00131267 16.141 0.202466 16.1396 0.457852C16.1396 0.514751 16.1489 0.571651 16.17 0.624583Z" fill="white"/>
<path d="M3.04742 31.7588H6.23646C6.49051 31.7601 6.69823 31.555 6.6996 31.2996C6.6996 31.244 6.69029 31.1898 6.67046 31.1382L4.08353 24.1237C4.01736 23.9411 3.84402 23.818 3.6495 23.8193H0.464458C0.210395 23.818 0.00132324 24.0218 0 24.2772C0 24.3341 0.00926269 24.391 0.0304346 24.4439L2.60282 31.4584C2.6703 31.6424 2.85026 31.7641 3.04742 31.7588Z" fill="white"/>
</g>
<defs>
<clipPath id="clip0_6726_139524">
<rect width="114.286" height="32" fill="white"/>
</clipPath>
</defs>
</svg>
