<svg width="42" height="33" viewBox="0 0 42 33" fill="none" xmlns="http://www.w3.org/2000/svg">
<rect x="2.0625" y="2.0625" width="37.125" height="26.8125" fill="white"/>
<path d="M35.0625 0H6.1875C4.54647 0 2.97266 0.651896 1.81228 1.81228C0.651896 2.97266 0 4.54647 0 6.1875V26.8125C0 28.4535 0.651896 30.0273 1.81228 31.1877C2.97266 32.3481 4.54647 33 6.1875 33H35.0625C36.7035 33 38.2773 32.3481 39.4377 31.1877C40.5981 30.0273 41.25 28.4535 41.25 26.8125V6.1875C41.25 4.54647 40.5981 2.97266 39.4377 1.81228C38.2773 0.651896 36.7035 0 35.0625 0V0ZM6.1875 4.125H35.0625C35.6095 4.125 36.1341 4.3423 36.5209 4.72909C36.9077 5.11589 37.125 5.64049 37.125 6.1875L20.625 16.2525L4.125 6.1875C4.125 5.64049 4.3423 5.11589 4.72909 4.72909C5.11589 4.3423 5.64049 4.125 6.1875 4.125V4.125ZM37.125 26.8125C37.125 27.3595 36.9077 27.8841 36.5209 28.2709C36.1341 28.6577 35.6095 28.875 35.0625 28.875H6.1875C5.64049 28.875 5.11589 28.6577 4.72909 28.2709C4.3423 27.8841 4.125 27.3595 4.125 26.8125V10.89L19.5525 20.3156C19.866 20.4966 20.2217 20.5919 20.5837 20.5919C20.9458 20.5919 21.3015 20.4966 21.615 20.3156L37.125 10.89V26.8125Z" fill="#712572"/>
</svg>
