<?xml version="1.0" encoding="UTF-8"?>
<svg id="Layer_1" xmlns="http://www.w3.org/2000/svg" version="1.1" viewBox="0 0 1000 775">
  <!-- Generator: Adobe Illustrator 30.0.0, SVG Export Plug-In . SVG Version: 2.1.1 Build 123)  -->
  <defs>
    <style>
      .st0 {
        fill: #7c297d;
      }

      .st1 {
        fill: #f79a23;
      }

      .st2 {
        fill: #dd552c;
      }

      .st3 {
        isolation: isolate;
      }

      .st4 {
        fill: #fff;
      }

      .st5 {
        fill: #d22128;
      }
    </style>
  </defs>
  <g>
    <g>
      <path class="st0" d="M6.3520885,414.8553162c0-31.0307617,21.6054692-52.7817383,52.3466802-52.7817383,25.8105469,0,46.1113281,15.6606445,51.9111328,40.1665039h-23.7802734c-3.7705078-11.3105469-14.5009766-18.2705078-27.40625-18.2705078-17.2558594,0-29.5810547,12.4702148-29.5810547,30.8857422,0,18.2705078,12.1806641,30.8857422,29.4365234,30.8857422,13.3398438,0,24.0703125-7.25,28.2753906-18.9956055h23.78125c-5.0751953,24.6508789-25.8115234,40.8916016-52.4921875,40.8916016-30.8857422,0-52.4912109-21.7509766-52.4912114-52.7817383Z"/>
      <path class="st0" d="M126.3286514,414.8553162c0-30.8857422,22.3300705-52.7817383,54.0869064-52.7817383,31.6103516,0,54.0859375,21.8959961,54.0859375,52.7817383s-22.4755859,52.7817383-54.0859375,52.7817383c-31.7568359,0-54.0869141-21.8959961-54.0869064-52.7817383ZM211.011261,414.8553162c0-18.2705078-12.6152344-30.8857422-30.5957031-30.8857422-17.9814453,0-30.5966797,12.6152344-30.5966797,30.8857422s12.6152344,30.8857422,30.5966797,30.8857422c17.9804688,0,30.5957031-12.6152344,30.5957031-30.8857422Z"/>
      <path class="st0" d="M255.9614563,364.1038513h19.4306641l36.1064453,52.6367188,36.1054688-52.6367188h19.4306641v101.5029297h-22.9101562v-61.046875l-24.6513672,35.9609375h-15.9501953l-24.6503906-35.9609375v61.046875h-22.9111328v-101.5029297Z"/>
      <path class="st0" d="M394.5132141,364.1038513h19.4306641l36.1064453,52.6367188,36.1054688-52.6367188h19.4306641v101.5029297h-22.9101562v-61.046875l-24.6513672,35.9609375h-15.9501953l-24.6503906-35.9609375v61.046875h-22.9111328v-101.5029297Z"/>
      <path class="st0" d="M532.1509399,423.700531v-59.5966797h23.2011719v58.1464844c0,15.515625,6.3798828,23.4907227,19.2851562,23.4907227s19.4306641-7.9750977,19.4306641-23.4907227v-58.1464844h23.0556641v59.5966797c0,27.4057617-16.0957031,43.9365234-42.4863281,43.9365234s-42.4863281-16.5307617-42.4863281-43.9365234Z"/>
      <path class="st0" d="M643.5288696,364.1038513h19.5761719l44.8056641,62.0615234v-62.0615234h22.765625v101.5029297h-19.5751953l-44.8066406-62.2070312v62.2070312h-22.765625v-101.5029297Z"/>
      <path class="st0" d="M757.9380493,364.1038513h23.0556641v101.5029297h-23.0556641v-101.5029297Z"/>
      <path class="st0" d="M830.2651978,385.7093201h-32.0458984v-21.6054688h87.2929688v21.6054688h-32.0458984v79.8974609h-23.2011719v-79.8974609Z"/>
      <path class="st0" d="M935.5073853,430.0809021l-37.4111328-65.9770508h26.2460938l12.6152344,23.4907227,10.1503906,18.4155273,10.0048828-18.4155273,12.4707031-23.4907227h26.2460938l-37.2666016,65.6870117v35.815918h-23.0556641v-35.5258789Z"/>
      <path class="st0" d="M11.0542364,546.8509521c0-22.1333008,16.0029306-37.8242188,38.7597666-37.8242188,22.6533203,0,38.7597656,15.690918,38.7597656,37.8242188s-16.1064453,37.8237305-38.7597656,37.8237305c-22.7568359,0-38.7597656-15.6904297-38.7597666-37.8237305ZM71.7397842,546.8509521c0-13.0932617-9.0410156-22.1333008-21.9257812-22.1333008s-21.9257812,9.0400391-21.9257812,22.1333008c0,13.0927734,9.0410156,22.1333008,21.9257812,22.1333008s21.9257812-9.0405273,21.9257812-22.1333008Z"/>
      <path class="st0" d="M130.0190735,510.4812927h17.7685547l9.6640625,25.8745422,8.7285156,23.0683594,8.7285156-23.0683594,9.5605469-25.8745117h17.6650391l-27.953125,72.7387695h-16.2099609l-27.9521484-72.7387695v-.0000305Z"/>
      <path class="st0" d="M251.0932922,510.4812927h47.6953125v13.9243469h-31.2773438v14.9633789h28.5751953v13.9243164h-28.5751953v15.8984375h32.4199219v14.0283203h-48.8378906v-72.7388Z"/>
      <path class="st0" d="M353.0366516,510.4812927h30.9658203c16.7294922,0,27.328125,9.5600891,27.328125,25.0429993,0,10.8071289-5.0908203,18.7041016-13.8203125,22.4453125l15.0673828,25.2504883h-19.1191406l-13.09375-22.652832h-10.8066406v22.652832h-16.5214844v-72.7388ZM381.8198547,546.6429443c8.2089844,0,12.6777344-3.9487305,12.6777344-11.0146484s-4.46875-11.0146484-12.6777344-11.0146484h-12.4697266v22.0292969h12.4697266Z"/>
      <path class="st1" d="M498.83255,503.8309021h15.4823914l-28.0556641,86.0395813h-15.3798828l27.953125-86.0395508.0000305-.0000305Z"/>
      <path class="st0" d="M558.6782837,546.8509521c0-22.2373047,15.4833984-37.8242188,37.5126953-37.8242188,18.4960938,0,33.0439453,11.2226562,37.2011719,28.7836914h-17.0419922c-2.7021484-8.1049805-10.3916016-13.0927734-19.6396484-13.0927734-12.3652344,0-21.1982422,8.9360352-21.1982422,22.1333008,0,13.0927734,8.7285156,22.1333008,21.0947266,22.1333008,9.5595703,0,17.2490234-5.1958008,20.2626953-13.612793h17.0419922c-3.6376953,17.6650391-18.4970703,29.3032227-37.6162109,29.3032227-22.1337891,0-37.6171875-15.5864258-37.6171875-37.8237305Z"/>
      <path class="st0" d="M682.0698853,546.8509521c0-22.1333008,16.0029297-37.8242188,38.7597656-37.8242188,22.6533203,0,38.7597656,15.690918,38.7597656,37.8242188s-16.1064453,37.8237305-38.7597656,37.8237305c-22.7568359,0-38.7597656-15.6904297-38.7597656-37.8237305ZM742.7554321,546.8509521c0-13.0932617-9.0410156-22.1333008-21.9257812-22.1333008s-21.9257812,9.0400391-21.9257812,22.1333008c0,13.0927734,9.0410156,22.1333008,21.9257812,22.1333008s21.9257812-9.0405273,21.9257812-22.1333008Z"/>
      <path class="st0" d="M812.3833618,510.4812927h28.7832031c22.9648438,0,38.34375,14.7558899,38.34375,36.3696594,0,21.7172852-15.3789062,36.3691406-38.34375,36.3691406h-28.7832031v-72.7388ZM840.7505493,568.0487061c12.9892578,0,21.7177734-8.4165039,21.7177734-21.1977539s-8.7285156-21.1982422-21.9248047-21.1982422h-11.6386719v42.3959961h11.8457031Z"/>
      <path class="st0" d="M932.2632446,510.4812927h47.6953125v13.9243469h-31.2773438v14.9633789h28.5751953v13.9243164h-28.5751953v15.8984375h32.4199219v14.0283203h-48.8378906v-72.7388Z"/>
    </g>
    <g>
      <path class="st2" d="M513.4450684,143.0558319c8.5091553-21.0410538,18.0033569-42.0408478,28.1904907-60.6535034-15.2067871-11.2948761-29.8087158-35.650547-35.8080139-46.4415016-2.1547241,2.4479485-3.5535278,5.2673225-4.1878052,7.5610542-5.6517944,20.4068069,14.4671936,45.0491943-1.7376709,36.0458679-13.5017395-7.5024033-43.9045105-23.9321136-55.5013123-7.6023254,12.9880371,16.6881866,46.9584656,58.6747284,69.0443115,71.0903931v.0000153Z"/>
      <path class="st1" d="M541.6355591,82.4023361c9.8710938-18.0348816,20.3905029-33.8303337,31.2965698-45.2099266,0,0-10.8778076,15.7454948-26.4147949,47.2212868,9.4094849,2.5913086,36.2077026,7.9085846,73.5350952-1.7333298.9177246-6.7834473-3.6425781-14.2445831-26.368103-16.742485-14.8364868-1.6290665,17.8079224-35.4268227-5.8407593-51.4112473-.7634888-.5169582-1.5139771-.9730968-2.2492065-1.3814507-.7927856-.284544-1.630127-.5451946-2.5239868-.7776089-27.6192627-7.2070017-31.4475708,39.6254749-42.46875,29.5578289-17.8100586-16.2689705-29.0517273-12.4678078-34.7741089-5.9645653,5.9993286,10.7909546,20.6011963,35.1466217,35.8080444,46.4414978Z"/>
      <path class="st5" d="M491.2310791,203.6789246c6.2349854-18.6778259,13.7352295-39.6623993,22.2139893-60.6230927-22.0858459-12.4156799-56.0562744-54.4022217-69.044281-71.0904007-2.3186951,3.2624817-3.9032593,7.8130188-4.4310608,14.0360565-2.8323975,33.4263229,31.6517334,58.172966,24.7770691,62.6930923-9.0934753,5.9797668-27.1924133-14.3640442-34.3255615-1.4379272,10.3391724,13.2823486,31.3997498,37.2817841,60.809906,56.4222717h-.000061Z"/>
      <path class="st2" d="M586.7792358,131.5893555c-17.4603882-6.2273865,18.2455444-22.9286041,29.84021-40.6463623,1.4835205-2.2654953,3.0170288-5.1934738,3.4329834-8.2626343-37.3273926,9.6419144-64.1256104,4.3246384-73.5350952,1.7333298-8.0432739,16.2972031-17.3311157,36.834343-27.0175781,61.5961838,10.0882568,4.3137817,51.2798462,20.2482452,109.4614868,20.33078,9.7820435-25.4786377-25.611145-28.8432159-42.1820068-34.751297Z"/>
      <path class="st5" d="M497.9776001,207.0413208c10.2598877,3.1973267,44.2553101,12.7480164,80.3598022,11.3100891,4.8502808-13.1324768-13.2834473-14.4140015-14.760437-24.9464722-1.1436157-8.1496887,47.7219238,6.8486023,63.4446411-22.7852478.7949829-1.4987488,1.4151001-2.9127808,1.9396973-4.2790222-58.1816406-.0825348-99.37323-16.0170135-109.4614868-20.33078-7.0788574,18.0957031-14.3607788,38.4047546-21.5221863,61.0314484l-.0000305-.0000153Z"/>
      <path class="st0" d="M497.9776001,207.0413208c-4.61026,14.5638733-9.1586304,30.1225739-13.5733948,46.5653076-1.5660706,5.829895-3.1137085,11.7684021-4.6395874,17.8372192,34.2680359,11.3122559,65.8230896.026062,66.8928528-13.9622192.008667-.1107788-.0119629-.1933289-.0054321-.2997437.8156128-14.8158417-21.3907471-6.6031647-20.8651123-15.51091.527832-8.9729156,38.7686157-.052124,50.5945435-19.2903442.9068604-1.4748535,1.4976807-2.7846222,1.9559937-4.0292358-36.1044922,1.4379272-70.0999146-8.1127625-80.3598022-11.3100891l-.000061.0000153Z"/>
      <path class="st0" d="M430.4212036,147.2566528c-.4995728.9057617-.9502869,1.952713-1.3347473,3.2038422-6.6411743,21.5840759,40.319458,50.5793304,33.9302673,56.9001312-5.7593079,5.6952209-13.2649536-7.3199463-22.5202637-1.9440155-1.0143738.5908051-2.0439453,1.3358307-3.100647,2.4197083-10.4673157,10.7236176-.1640015,41.6172943,29.5339355,58.1078033-6.9300537,23.2696228-13.8297119,49.267395-20.5838318,76.4554749,2.4501343-.8579712,5.3824463-1.7181396,6.1122742-4.0292358,1.0958252-4.5049133,7.8684082-31.9167175,18.864624-69.1051025,0,0,2.007019-7.6175232,5.6811218-20.1678772,3.3971558-11.605484,8.2246399-27.4335175,14.2272034-45.4184418-29.4101257-19.1404724-50.4707336-43.1399231-60.8098755-56.4222565l-.000061-.0000305Z"/>
    </g>
  </g>
  <g>
    <polygon class="st2" points="743.3237915 683.2697754 282.8457947 683.2697754 256.676239 763.3901367 717.1542358 763.3901367 743.3237915 683.2697754"/>
    <g class="st3">
      <g class="st3">
        <path class="st4" d="M314.9897461,706.4257812h13.40625c6.2822266,0,10.3881836,3.5117188,10.3881836,8.953125,0,3.859375-2.0776367,6.7285156-5.6391602,7.8671875,4.1552734,1.1367188,6.5791016,4.1542969,6.5791016,8.4589844,0,5.7382812-4.2045898,9.3496094-10.8833008,9.3496094h-13.8510742v-34.6289062ZM328.1484375,722.1074219c4.7490234,0,7.5688477-2.4238281,7.5688477-6.4804688s-2.8198242-6.5292969-7.5195312-6.5292969h-10.2397461v13.0097656h10.1904297ZM328.6430664,738.3828125c5.0458984,0,8.0141602-2.5722656,8.0141602-6.8261719,0-4.3046875-3.0175781-6.8769531-8.2119141-6.8769531h-10.4873047v13.703125h10.6850586Z"/>
      </g>
      <g class="st3">
        <path class="st4" d="M328.8408203,741.9345703h-14.730957v-36.3886719h14.2861328c6.7397461,0,11.2680664,3.9511719,11.2680664,9.8330078,0,3.4091797-1.5400391,6.1953125-4.2138672,7.7929688,3.3032227,1.6132812,5.1538086,4.6289062,5.1538086,8.5332031,0,6.2138672-4.6171875,10.2294922-11.7631836,10.2294922ZM315.8696289,740.1748047h12.9711914c6.1704102,0,10.003418-3.2451172,10.003418-8.4697266,0-3.8613281-2.1064453-6.5644531-5.9311523-7.6103516l-2.8623047-.7832031,2.8261719-.9033203c3.1948242-1.0214844,5.0273438-3.5839844,5.0273438-7.0292969,0-4.9042969-3.7324219-8.0732422-9.5083008-8.0732422h-12.5263672v32.8691406ZM328.6430664,739.2626953h-11.5649414v-15.4628906h11.3671875c5.6928711,0,9.0917969,2.8994141,9.0917969,7.7568359,0,4.7529297-3.4082031,7.7060547-8.894043,7.7060547ZM318.8378906,737.5029297h9.8051758c4.5341797,0,7.1342773-2.1669922,7.1342773-5.9462891,0-3.8115234-2.6723633-5.9970703-7.3320312-5.9970703h-9.6074219v11.9433594ZM328.1484375,722.9873047h-11.0703125v-14.7695312h11.1196289c5.1806641,0,8.3994141,2.8388672,8.3994141,7.4091797,0,4.5400391-3.2373047,7.3603516-8.4487305,7.3603516ZM318.8378906,721.2275391h9.3105469c4.2509766,0,6.6889648-2.0410156,6.6889648-5.6005859,0-3.5898438-2.4199219-5.6494141-6.6396484-5.6494141h-9.3598633v11.25Z"/>
      </g>
      <g class="st3">
        <path class="st4" d="M353.2993164,706.4257812h20.3813477v2.671875h-17.4130859v12.9609375h16.1269531v2.7207031h-16.1269531v13.5546875h17.9570312v2.7207031h-20.925293v-34.6289062Z"/>
      </g>
      <g class="st3">
        <path class="st4" d="M375.1044922,741.9345703h-22.6850586v-36.3886719h22.1411133v4.4316406h-17.4130859v11.2011719h16.1269531v4.4804688h-16.1269531v11.7949219h17.9570312v4.4804688ZM354.1791992,740.1748047h19.1655273v-.9609375h-17.9570312v-15.3144531h16.1269531v-.9609375h-16.1269531v-14.7207031h17.4130859v-.9121094h-18.621582v32.8691406Z"/>
      </g>
      <g class="st3">
        <path class="st4" d="M386.6567383,706.4257812h2.9682617v34.6289062h-2.9682617v-34.6289062Z"/>
      </g>
      <g class="st3">
        <path class="st4" d="M390.5048828,741.9345703h-4.7280273v-36.3886719h4.7280273v36.3886719ZM387.5366211,740.1748047h1.2084961v-32.8691406h-1.2084961v32.8691406Z"/>
      </g>
      <g class="st3">
        <path class="st4" d="M401.3974609,738.1855469h4.9960938c5.5405273,0,7.9150391-2.7714844,7.9150391-8.0136719v-23.7460938h3.0175781v23.9433594c0,6.8261719-3.6113281,10.6855469-10.8828125,10.6855469h-5.0458984v-2.8691406Z"/>
      </g>
      <g class="st3">
        <path class="st4" d="M406.4433594,741.9345703h-5.9257812v-4.6289062h5.8759766c4.8657227,0,7.0351562-2.2001953,7.0351562-7.1337891v-24.6259766h4.7773438v24.8232422c0,7.4580078-4.1772461,11.5654297-11.7626953,11.5654297ZM402.2773438,740.1748047h4.1660156c6.6376953,0,10.0029297-3.2988281,10.0029297-9.8056641v-23.0634766h-1.2578125v22.8662109c0,5.9013672-2.9589844,8.8935547-8.7949219,8.8935547h-4.1162109v1.109375Z"/>
      </g>
      <g class="st3">
        <path class="st4" d="M432.637207,706.4257812h2.9682617v34.6289062h-2.9682617v-34.6289062Z"/>
      </g>
      <g class="st3">
        <path class="st4" d="M436.4853516,741.9345703h-4.7280273v-36.3886719h4.7280273v36.3886719ZM433.5170898,740.1748047h1.2084961v-32.8691406h-1.2084961v32.8691406Z"/>
      </g>
      <g class="st3">
        <path class="st4" d="M451.0043945,706.4257812h2.7207031l21.2719727,29.484375v-29.484375h2.918457v34.6289062h-2.6713867l-21.2714844-29.5332031v29.5332031h-2.9682617v-34.6289062Z"/>
      </g>
      <g class="st3">
        <path class="st4" d="M478.7954102,741.9345703h-4.0019531l-19.940918-27.6865234v27.6865234h-4.7280273v-36.3886719h4.0507812l19.9418945,27.640625v-27.640625h4.6782227v36.3886719ZM475.6948242,740.1748047h1.3408203v-32.8691406h-1.1586914v31.328125l-22.6020508-31.328125h-1.390625v32.8691406h1.2084961v-31.3798828l22.6020508,31.3798828Z"/>
      </g>
      <g class="st3">
        <path class="st4" d="M491.1738281,723.7402344c0-10.5371094,7.2226562-17.9082031,17.4628906-17.9082031,8.1621094,0,14.3457031,4.5507812,16.5722656,11.328125h-3.265625c-2.078125-5.1933594-6.8759766-8.4589844-13.2080078-8.4589844-8.6074219,0-14.4946289,6.0859375-14.4946289,15.0390625s5.887207,15.0390625,14.5444336,15.0390625c8.2607422,0,13.703125-5.4921875,14.2460938-13.1601562h-15.4335938v-2.6699219h18.5996094c.1982422,10.9316406-6.8261719,18.6992188-17.4619141,18.6992188-10.3388672,0-17.5615234-7.3710938-17.5615234-17.9082031Z"/>
      </g>
      <g class="st3">
        <path class="st4" d="M508.7353516,742.5283203c-10.8579102,0-18.4414062-7.7255859-18.4414062-18.7880859s7.5429688-18.7880859,18.3427734-18.7880859c8.3193359,0,14.9902344,4.5722656,17.4082031,11.9335938l.3789062,1.1542969h-5.0761719l-.2207031-.5527344c-2.0107422-5.0244141-6.5273438-7.90625-12.3916016-7.90625-8.1435547,0-13.6147461,5.6904297-13.6147461,14.1591797s5.4912109,14.1591797,13.6645508,14.1591797c7.2675781,0,12.3867188-4.4414062,13.2753906-11.4003906h-15.3427734v-4.4296875h20.34375l.015625.8642578c.1044922,5.75-1.7587891,10.8710938-5.2451172,14.421875-3.3232422,3.3837891-7.8525391,5.1728516-13.0966797,5.1728516ZM508.6367188,706.7119141c-9.7636719,0-16.5830078,7.0019531-16.5830078,17.0283203s6.8598633,17.0283203,16.6816406,17.0283203c4.7617188,0,8.8564453-1.6064453,11.8408203-4.6455078,2.9804688-3.0351562,4.6474609-7.375,4.7412109-12.2939453h-16.8398438v.9101562h15.4980469l-.0664062.9423828c-.5927734,8.3603516-6.6699219,13.9775391-15.1240234,13.9775391-9.081543,0-15.4243164-6.5458984-15.4243164-15.9189453s6.3222656-15.9189453,15.3745117-15.9189453c6.3076172,0,11.4179688,3.1494141,13.7910156,8.4589844h1.4179688c-2.4677734-5.9345703-8.2226562-9.5683594-15.3076172-9.5683594Z"/>
      </g>
      <g class="st3">
        <path class="st4" d="M557.7099609,738.7792969l14.8408203-13.5546875c3.6113281-3.3144531,5.2431641-6.0351562,5.2431641-9.1523438,0-4.5019531-3.3134766-7.6171875-8.1621094-7.6171875-4.9970703,0-8.4091797,3.3144531-8.6074219,8.4082031h-2.7705078c.1972656-6.6777344,4.7490234-11.03125,11.3779297-11.03125,6.4804688,0,11.0810547,4.15625,11.0810547,10.1914062,0,3.8574219-1.9785156,7.4199219-6.3320312,11.328125l-11.9716797,10.9824219h19.2431641v2.7207031h-23.9423828v-2.2753906Z"/>
      </g>
      <g class="st3">
        <path class="st4" d="M582.5322266,741.9345703h-25.7021484v-3.5429688l15.1269531-13.8164062c3.4746094-3.1884766,4.9570312-5.7314453,4.9570312-8.5029297,0-4.0302734-2.9267578-6.7373047-7.2822266-6.7373047-4.515625,0-7.5498047,2.96875-7.7285156,7.5625l-.0322266.8457031h-4.5234375l.0263672-.90625c.2109375-7.1083984,5.1367188-11.8847656,12.2578125-11.8847656,7.0419922,0,11.9609375,4.5527344,11.9609375,11.0712891,0,4.1181641-2.1044922,7.9257812-6.6240234,11.9824219l-10.2988281,9.4482422h17.8623047v4.4804688ZM558.5898438,740.1748047h22.1826172v-.9609375h-20.6240234l13.6376953-12.5107422c4.1279297-3.7050781,6.046875-7.0966797,6.046875-10.6796875,0-5.4824219-4.1953125-9.3115234-10.2011719-9.3115234-5.8867188,0-9.9003906,3.6074219-10.4423828,9.2714844h1.0175781c.5527344-5.0644531,4.2490234-8.4082031,9.4248047-8.4082031,5.3242188,0,9.0419922,3.4941406,9.0419922,8.4970703,0,3.3134766-1.6533203,6.2441406-5.5283203,9.8007812l-14.5556641,13.2939453v1.0078125Z"/>
      </g>
      <g class="st3">
        <path class="st4" d="M592.6044922,723.7402344c0-11.0820312,5.1943359-17.9082031,13.5048828-17.9082031,8.4101562,0,13.5546875,6.8261719,13.5546875,17.9082031,0,11.0800781-5.1445312,17.9082031-13.5546875,17.9082031-8.3105469,0-13.5048828-6.828125-13.5048828-17.9082031ZM616.7460938,723.7402344c0-9.3984375-4.0078125-15.1367188-10.6367188-15.1367188-6.5791016,0-10.5859375,5.7382812-10.5859375,15.1367188s4.0068359,15.1367188,10.5859375,15.1367188c6.6289062,0,10.6367188-5.7382812,10.6367188-15.1367188Z"/>
      </g>
      <g class="st3">
        <path class="st4" d="M606.109375,742.5283203c-8.8730469,0-14.3847656-7.1992188-14.3847656-18.7880859s5.5117188-18.7880859,14.3847656-18.7880859c8.9033203,0,14.4345703,7.1992188,14.4345703,18.7880859s-5.53125,18.7880859-14.4345703,18.7880859ZM606.109375,706.7119141c-7.7871094,0-12.625,6.5244141-12.625,17.0283203s4.8378906,17.0283203,12.625,17.0283203c7.9365234,0,12.6748047-6.3652344,12.6748047-17.0283203s-4.7382812-17.0283203-12.6748047-17.0283203ZM606.109375,739.7568359c-7.0722656,0-11.4658203-6.1376953-11.4658203-16.0166016s4.3935547-16.0166016,11.4658203-16.0166016c7.1035156,0,11.5166016,6.1376953,11.5166016,16.0166016s-4.4130859,16.0166016-11.5166016,16.0166016ZM606.109375,709.4833984c-6.078125,0-9.7060547,5.3300781-9.7060547,14.2568359s3.6279297,14.2568359,9.7060547,14.2568359c6.109375,0,9.7568359-5.3300781,9.7568359-14.2568359s-3.6474609-14.2568359-9.7568359-14.2568359Z"/>
      </g>
      <g class="st3">
        <path class="st4" d="M630.7509766,738.7792969l14.8408203-13.5546875c3.6113281-3.3144531,5.2431641-6.0351562,5.2431641-9.1523438,0-4.5019531-3.3134766-7.6171875-8.1621094-7.6171875-4.9970703,0-8.4091797,3.3144531-8.6074219,8.4082031h-2.7705078c.1972656-6.6777344,4.7490234-11.03125,11.3779297-11.03125,6.4804688,0,11.0810547,4.15625,11.0810547,10.1914062,0,3.8574219-1.9785156,7.4199219-6.3320312,11.328125l-11.9716797,10.9824219h19.2431641v2.7207031h-23.9423828v-2.2753906Z"/>
      </g>
      <g class="st3">
        <path class="st4" d="M655.5732422,741.9345703h-25.7021484v-3.5429688l15.1269531-13.8164062c3.4746094-3.1884766,4.9570312-5.7314453,4.9570312-8.5029297,0-4.0302734-2.9267578-6.7373047-7.2822266-6.7373047-4.515625,0-7.5498047,2.96875-7.7285156,7.5625l-.0322266.8457031h-4.5234375l.0263672-.90625c.2109375-7.1083984,5.1367188-11.8847656,12.2578125-11.8847656,7.0419922,0,11.9609375,4.5527344,11.9609375,11.0712891,0,4.1181641-2.1044922,7.9257812-6.6240234,11.9824219l-10.2988281,9.4482422h17.8623047v4.4804688ZM631.6308594,740.1748047h22.1826172v-.9609375h-20.6240234l13.6376953-12.5107422c4.1279297-3.7050781,6.046875-7.0966797,6.046875-10.6796875,0-5.4824219-4.1953125-9.3115234-10.2011719-9.3115234-5.8867188,0-9.9003906,3.6074219-10.4423828,9.2714844h1.0175781c.5527344-5.0644531,4.2490234-8.4082031,9.4248047-8.4082031,5.3242188,0,9.0419922,3.4941406,9.0419922,8.4970703,0,3.3134766-1.6533203,6.2441406-5.5283203,9.8007812l-14.5556641,13.2939453v1.0078125Z"/>
      </g>
      <g class="st3">
        <path class="st4" d="M664.7304688,729.9726562c0-3.0664062.9394531-5.7871094,3.0664062-8.8046875l10.2402344-14.7421875h3.3642578l-9.0029297,13.0097656c1.5820312-.7421875,3.3144531-1.1367188,5.1933594-1.1367188,6.9257812,0,11.9716797,4.8964844,11.9716797,11.6738281,0,6.8769531-5.1943359,11.6757812-12.4169922,11.6757812-7.2714844,0-12.4160156-4.7988281-12.4160156-11.6757812ZM686.6445312,729.9726562c0-5.3417969-3.9082031-9.1503906-9.4980469-9.1503906-5.6386719,0-9.546875,3.8085938-9.546875,9.1503906,0,5.34375,3.9082031,9.1035156,9.546875,9.1035156,5.5898438,0,9.4980469-3.7597656,9.4980469-9.1035156Z"/>
      </g>
      <g class="st3">
        <path class="st4" d="M677.1464844,742.5283203c-7.828125,0-13.2958984-5.1630859-13.2958984-12.5556641,0-3.2734375.9951172-6.1455078,3.2275391-9.3115234l10.4990234-15.1152344h5.5029297l-8.4404297,12.1962891c.9541016-.2148438,1.9404297-.3232422,2.9521484-.3232422,7.4462891,0,12.8515625,5.2792969,12.8515625,12.5537109,0,7.2753906-5.5917969,12.5556641-13.296875,12.5556641ZM678.4970703,707.3056641l-9.9775391,14.3642578c-2.0126953,2.8564453-2.9091797,5.4150391-2.9091797,8.3027344,0,6.3564453,4.7441406,10.7958984,11.5361328,10.7958984,6.7929688,0,11.5371094-4.4394531,11.5371094-10.7958984,0-6.2548828-4.6650391-10.7939453-11.0917969-10.7939453-1.7080078,0-3.3300781.3544922-4.8193359,1.0537109l-2.9541016,1.3857422,9.9042969-14.3125h-1.2255859ZM677.1464844,739.9560547c-6.1386719,0-10.4267578-4.1054688-10.4267578-9.9833984,0-5.9052734,4.2880859-10.0302734,10.4267578-10.0302734,6.0136719,0,10.3779297,4.21875,10.3779297,10.0302734,0,5.8779297-4.2675781,9.9833984-10.3779297,9.9833984ZM677.1464844,721.7021484c-5.1035156,0-8.6669922,3.4013672-8.6669922,8.2705078,0,4.8417969,3.5634766,8.2236328,8.6669922,8.2236328,5.0742188,0,8.6181641-3.3818359,8.6181641-8.2236328,0-4.8691406-3.5439453-8.2705078-8.6181641-8.2705078Z"/>
      </g>
    </g>
  </g>
</svg>