<?xml version="1.0" encoding="UTF-8"?>
<svg id="Layer_1" data-name="Layer 1" xmlns="http://www.w3.org/2000/svg" viewBox="0 0 1000 325">
  <defs>
    <style>
      .cls-1 {
        fill: none;
      }

      .cls-2 {
        fill: #7c297d;
      }

      .cls-3 {
        fill: #f79a23;
      }

      .cls-4 {
        fill: #dd552c;
      }

      .cls-5 {
        fill: #fff;
      }

      .cls-6 {
        fill: #d22128;
      }
    </style>
  </defs>
  <path class="cls-1" d="M784.4669639,155.3489731c-9.7802734,0-16.6425781,6.8618164-16.6425781,16.7998047s6.8623047,16.7998047,16.6425781,16.7998047c9.7792969,0,16.6416016-6.8618164,16.6416016-16.7998047s-6.8623047-16.7998047-16.6416016-16.7998047Z"/>
  <path class="cls-1" d="M536.7736046,163.6307114c0-5.3632812-3.3916016-8.3608398-9.6230469-8.3608398h-9.4648438v16.7211914h9.4648438c6.2314453,0,9.6230469-2.9970703,9.6230469-8.3603516Z"/>
  <path class="cls-1" d="M374.2794639,95.4046372c13.6484375,0,23.2236328-9.5751953,23.2236328-23.4428711s-9.5751953-23.4433594-23.2236328-23.4433594c-13.6474609,0-23.2226562,9.5756836-23.2226562,23.4433594s9.5751953,23.4428711,23.2226562,23.4428711Z"/>
  <path class="cls-1" d="M258.5089561,172.1487778c0,9.9379883,6.8623047,16.7998047,16.6416016,16.7998047,9.7802734,0,16.6425781-6.8618164,16.6425781-16.7998047s-6.8623047-16.7998047-16.6425781-16.7998047c-9.7792969,0-16.6416016,6.8618164-16.6416016,16.7998047Z"/>
  <path class="cls-1" d="M875.3321983,156.0589341h-8.8339844v32.1796875h8.9912109c9.859375,0,16.484375-6.3886719,16.484375-16.0898438s-6.625-16.0898438-16.6416016-16.0898438Z"/>
  <path class="cls-2" d="M282.0050499,112.0242661c20.2509766,0,35.9902344-12.3271484,39.8417969-31.0375977h-18.0498047c-3.1914062,8.9150391-11.3359375,14.4179688-21.4619141,14.4179688-13.0976562,0-22.3427734-9.5751953-22.3427734-23.4428711,0-13.9780273,9.3554688-23.4433594,22.453125-23.4433594,9.7949219,0,17.9394531,5.2832031,20.8007812,13.8676758h18.0507812c-4.4023438-18.6000977-19.8115234-30.4868164-39.4023438-30.4868164-23.3330078,0-39.7324219,16.5092773-39.7324219,40.0625s16.3994141,40.0625,39.8427734,40.0625Z"/>
  <path class="cls-2" d="M374.2794639,112.0242661c23.9941406,0,41.0537109-16.6196289,41.0537109-40.0625,0-23.4433594-17.0595703-40.0625-41.0537109-40.0625-24.1025391,0-41.0527344,16.6191406-41.0527344,40.0625,0,23.4428711,16.9501953,40.0625,41.0527344,40.0625ZM374.2794639,48.5184067c13.6484375,0,23.2236328,9.5756836,23.2236328,23.4433594s-9.5751953,23.4428711-23.2236328,23.4428711c-13.6474609,0-23.2226562-9.5751953-23.2226562-23.4428711s9.5751953-23.4433594,23.2226562-23.4433594Z"/>
  <polygon class="cls-2" points="449.0118858 64.147313 467.7218468 91.4427231 479.8292686 91.4427231 498.5392296 64.147313 498.5392296 110.4832505 515.928878 110.4832505 515.928878 33.4402817 501.1808311 33.4402817 473.7755577 73.3924302 446.3702843 33.4402817 431.6222374 33.4402817 431.6222374 110.4832505 449.0118858 110.4832505 449.0118858 64.147313"/>
  <polygon class="cls-2" points="554.1749718 64.147313 572.8849327 91.4427231 584.9923546 91.4427231 603.7023155 64.147313 603.7023155 110.4832505 621.0919639 110.4832505 621.0919639 33.4402817 606.3439171 33.4402817 578.9386436 73.3924302 551.5333702 33.4402817 536.7853233 33.4402817 536.7853233 110.4832505 554.1749718 110.4832505 554.1749718 64.147313"/>
  <path class="cls-2" d="M673.5040733,112.0242661c20.03125,0,32.2480469-12.5473633,32.2480469-33.3486328v-45.2353516h-17.5v44.1347656c0,11.7763672-4.9521484,17.8295898-14.7480469,17.8295898-9.7949219,0-14.6376953-6.0532227-14.6376953-17.8295898v-44.1347656h-17.6103516v45.2353516c0,20.8012695,12.2167969,33.3486328,32.2480469,33.3486328Z"/>
  <polygon class="cls-2" points="791.9405968 110.4832505 791.9405968 33.4402817 774.6612999 33.4402817 774.6612999 80.546727 740.6525108 33.4402817 725.7941124 33.4402817 725.7941124 110.4832505 743.0734093 110.4832505 743.0734093 63.2669419 777.0821983 110.4832505 791.9405968 110.4832505"/>
  <rect class="cls-2" x="812.6329796" y="33.4402817" width="17.5" height="77.0429688"/>
  <polygon class="cls-2" points="843.2071983 49.8392075 867.5304405 49.8392075 867.5304405 110.4832505 885.1407921 110.4832505 885.1407921 49.8392075 909.4640343 49.8392075 909.4640343 33.4402817 843.2071983 33.4402817 843.2071983 49.8392075"/>
  <polygon class="cls-2" points="947.4122764 110.4832505 964.9122764 110.4832505 964.9122764 83.2981919 993.1974327 33.4402817 973.2765343 33.4402817 963.8107139 51.2698716 956.2169639 65.2478989 948.5128624 51.2698716 938.9376671 33.4402817 919.0157921 33.4402817 947.4122764 83.5179184 947.4122764 110.4832505"/>
  <path class="cls-2" d="M245.7316124,172.1487778c0,16.7998047,12.1464844,28.7094727,29.4189453,28.7094727,17.1943359,0,29.4199219-11.909668,29.4199219-28.7094727s-12.2255859-28.7094727-29.4199219-28.7094727c-17.2724609,0-29.4189453,11.909668-29.4189453,28.7094727ZM291.7931358,172.1487778c0,9.9379883-6.8623047,16.7998047-16.6425781,16.7998047-9.7792969,0-16.6416016-6.8618164-16.6416016-16.7998047s6.8623047-16.7998047,16.6416016-16.7998047c9.7802734,0,16.6425781,6.8618164,16.6425781,16.7998047Z"/>
  <polygon class="cls-2" points="363.475753 181.6922348 356.850753 164.1824692 349.5157921 144.5433091 336.0284874 144.5433091 357.2452843 199.7542466 369.5489952 199.7542466 390.7657921 144.5433091 377.3575889 144.5433091 370.1017296 164.1824692 363.475753 181.6922348"/>
  <polygon class="cls-2" points="464.9962608 189.1062973 440.3878624 189.1062973 440.3878624 177.0389145 462.0782921 177.0389145 462.0782921 166.4700669 440.3878624 166.4700669 440.3878624 155.1121567 464.1290733 155.1121567 464.1290733 144.5433091 427.9259483 144.5433091 427.9259483 199.7542466 464.9962608 199.7542466 464.9962608 189.1062973"/>
  <path class="cls-2" d="M505.3029014,199.7542466h12.5410156v-17.1943359h8.2021484l9.9384766,17.1943359h14.5126953l-11.4365234-19.1660156c6.625-2.8393555,10.4902344-8.8339844,10.4902344-17.0366211,0-11.7519531-8.0449219-19.0083008-20.7441406-19.0083008h-23.5039062v55.2109375ZM517.6857139,155.2698716h9.4648438c6.2314453,0,9.6230469,2.9975586,9.6230469,8.3608398s-3.3916016,8.3603516-9.6230469,8.3603516h-9.4648438v-16.7211914Z"/>
  <polygon class="cls-3" points="594.7482139 204.8020981 606.4220421 204.8020981 627.7169639 139.4954575 615.9650108 139.4954575 594.7482139 204.8020981"/>
  <path class="cls-2" d="M690.178878,188.9485825c-9.3857422,0-16.0107422-6.8618164-16.0107422-16.7998047,0-10.0166016,6.7041016-16.7998047,16.0898438-16.7998047,7.0195312,0,12.8564453,3.7856445,14.9072266,9.9379883h12.9345703c-3.1542969-13.3295898-14.1962891-21.8476562-28.2363281-21.8476562-16.7207031,0-28.4726562,11.8305664-28.4726562,28.7094727s11.7519531,28.7094727,28.5517578,28.7094727c14.5126953,0,25.7910156-8.8334961,28.5517578-22.2416992h-12.9345703c-2.2880859,6.3886719-8.1240234,10.3320312-15.3808594,10.3320312Z"/>
  <path class="cls-2" d="M784.4669639,143.4393052c-17.2734375,0-29.4199219,11.909668-29.4199219,28.7094727s12.1464844,28.7094727,29.4199219,28.7094727c17.1933594,0,29.4189453-11.909668,29.4189453-28.7094727s-12.2255859-28.7094727-29.4189453-28.7094727ZM784.4669639,188.9485825c-9.7802734,0-16.6425781-6.8618164-16.6425781-16.7998047s6.8623047-16.7998047,16.6425781-16.7998047c9.7792969,0,16.6416016,6.8618164,16.6416016,16.7998047s-6.8623047,16.7998047-16.6416016,16.7998047Z"/>
  <path class="cls-2" d="M875.8048546,144.5433091h-21.8476562v55.2109375h21.8476562c17.4306641,0,29.1044922-11.1210938,29.1044922-27.6054688,0-16.4052734-11.6738281-27.6054688-29.1044922-27.6054688ZM875.4894249,188.2386216h-8.9912109v-32.1796875h8.8339844c10.0166016,0,16.6416016,6.3886719,16.6416016,16.0898438s-6.625,16.0898438-16.484375,16.0898438Z"/>
  <polygon class="cls-2" points="957.4103233 177.0389145 979.100753 177.0389145 979.100753 166.4700669 957.4103233 166.4700669 957.4103233 155.1121567 981.1505577 155.1121567 981.1505577 144.5433091 944.9484093 144.5433091 944.9484093 199.7542466 982.0187218 199.7542466 982.0187218 189.1062973 957.4103233 189.1062973 957.4103233 177.0389145"/>
  <path class="cls-4" d="M77.8175499,31.2635239c-2.0048828,2.277832-3.3066406,4.901123-3.8964844,7.0354004-5.2587891,18.987793,13.4609375,41.916748-1.6171875,33.5393066-12.5629883-6.9807129-40.8515625-22.2680664-51.6420898-7.0737305,12.0849609,15.527832,43.6933594,54.5949707,64.2436523,66.1472168,7.9174805-19.5778809,16.7514648-39.1174316,26.2299805-56.4360352-14.1494141-10.5095215-27.7358398-33.1716309-33.3178711-43.2121582Z"/>
  <path class="cls-3" d="M184.0997764,74.7344712c.8540039-6.3117676-3.3896484-13.2541504-24.534668-15.5783691-13.8046875-1.515625,16.5698242-32.9633789-5.4345703-47.8364258-.7104492-.480957-1.4086914-.9052734-2.0927734-1.2851562-.737793-.2648926-1.5170898-.5073242-2.3486328-.7236328-25.6987305-6.7058105-29.2607422,36.8701172-39.515625,27.5024414-16.5717773-15.1376953-27.0317383-11.6008301-32.355957-5.5498047,5.5820312,10.0405273,19.168457,32.7026367,33.3178711,43.2121582,9.1845703-16.7807617,18.9726562-31.4777832,29.1206055-42.0661621,0,0-10.121582,14.6506348-24.578125,43.9377441,8.7548828,2.4111328,33.6899414,7.3586426,68.421875-1.612793Z"/>
  <path class="cls-6" d="M20.6617882,64.7645005c-2.1572266,3.0356445-3.6318359,7.2697754-4.1225586,13.0600586-2.6357422,31.1020508,29.4506836,54.1279297,23.0537109,58.3339844-8.4609375,5.5639648-25.3012695-13.3654785-31.9384766-1.3381348,9.6201172,12.3588867,29.2163086,34.6894531,56.581543,52.4990234,5.8012695-17.3791504,12.7797852-36.904541,20.6694336-56.4077148-20.550293-11.5522461-52.1586914-50.6193848-64.2436523-66.1472168Z"/>
  <path class="cls-4" d="M153.1403038,120.2425278c-16.246582-5.7944336,16.9765625-21.3342285,27.7651367-37.8198242,1.3803711-2.1081543,2.8071289-4.8325195,3.1943359-7.6882324-34.7319336,8.9714355-59.6669922,4.0239258-68.421875,1.612793-7.4838867,15.1640625-16.1259766,34.2731934-25.1391602,57.3132324,9.387207,4.0136719,47.7143555,18.8400879,101.8500977,18.9169922,9.1020508-23.7070312-23.8300781-26.8376465-39.2485352-32.3349609Z"/>
  <path class="cls-6" d="M70.5133507,190.4480942c9.5463867,2.9748535,41.1782227,11.8615723,74.7719727,10.5234375,4.5131836-12.2192383-12.3598633-13.4116211-13.734375-23.2116699-1.0639648-7.5830078,44.4038086,6.3723145,59.0332031-21.2009277.7397461-1.3945312,1.3168945-2.7102051,1.8046875-3.9814453-54.1357422-.0769043-92.4628906-14.9033203-101.8500977-18.9169922-6.5864258,16.8374023-13.3618164,35.7341309-20.0253906,56.7875977Z"/>
  <path class="cls-2" d="M70.5133507,190.4480942c-4.2895508,13.5510254-8.5219727,28.027832-12.6293945,43.3273926-1.4575195,5.4245605-2.8974609,10.9499512-4.3173828,16.5969238,31.8852539,10.5256348,61.2460938.0241699,62.2416992-12.9914551.0078125-.1030273-.0112305-.1799316-.0053711-.2788086.7592773-13.7856445-19.9033203-6.144043-19.4140625-14.432373.4912109-8.3491211,36.0727539-.048584,47.0766602-17.9492188.84375-1.3720703,1.3935547-2.5908203,1.8198242-3.7490234-33.59375,1.3381348-65.2255859-7.548584-74.7719727-10.5234375Z"/>
  <path class="cls-2" d="M7.6544639,134.8204087c-.4648438.8427734-.8842773,1.8168945-1.2421875,2.9812012-6.1791992,20.0830078,37.5161133,47.0622559,31.5712891,52.9433594-5.3588867,5.2993164-12.3427734-6.810791-20.9545898-1.8085938-.9438477.5495605-1.9018555,1.2429199-2.8847656,2.2514648-9.7397461,9.9777832-.152832,38.7233887,27.4799805,54.0671387-6.4482422,21.6516113-12.8681641,45.8415527-19.1523438,71.1391602,2.2797852-.7983398,5.0083008-1.5986328,5.6870117-3.7490234,1.0200195-4.1916504,7.3212891-29.6975098,17.5532227-64.3000488,0,0,1.8671875-7.0876465,5.2861328-18.7653809,3.1606445-10.798584,7.6523438-25.5258789,13.237793-42.2602539-27.3652344-17.8095703-46.9614258-40.1401367-56.581543-52.4990234Z"/>
  <polygon class="cls-4" points="341.3048546 279.8431138 351.4415733 279.8431138 346.3575889 267.5096177 341.3048546 279.8431138"/>
  <path class="cls-4" d="M232.9015343,306.1009263h409.5610352l19.8632812-60.8129883H252.7648155l-19.8632812,60.8129883ZM605.9239952,273.6673325l7.96875-11.4736328h4.1777344l-6.4072266,9.2583008c.7246094-.1635742,1.4736328-.2460938,2.2412109-.2460938,5.6523438,0,9.7558594,4.0083008,9.7558594,9.5302734s-4.2451172,9.5302734-10.09375,9.5302734c-5.9433594,0-10.09375-3.9189453-10.09375-9.5302734,0-2.4848633.7558594-4.6650391,2.4511719-7.0688477ZM577.4904014,287.1258286l11.4833984-10.487793c2.6367188-2.4204102,3.7626953-4.3510742,3.7626953-6.4541016,0-3.0595703-2.2216797-5.1147461-5.5283203-5.1147461-3.4287109,0-5.7314453,2.253418-5.8662109,5.7416992l-.0244141.6420898h-3.4335938l.0195312-.6879883c.1601562-5.3959961,3.8994141-9.0219727,9.3046875-9.0219727,5.3457031,0,9.0800781,3.4555664,9.0800781,8.4033203,0,3.1264648-1.5976562,6.0166016-5.0283203,9.0966797l-7.8183594,7.1713867h13.5595703v3.4013672h-19.5107422v-2.6899414ZM559.272628,261.7430161c6.7587891,0,10.9570312,5.4648438,10.9570312,14.2617188s-4.1982422,14.2617188-10.9570312,14.2617188c-6.7353516,0-10.9199219-5.4648438-10.9199219-14.2617188s4.1845703-14.2617188,10.9199219-14.2617188ZM521.678878,287.1258286l11.4833984-10.487793c2.6367188-2.4204102,3.7626953-4.3510742,3.7626953-6.4541016,0-3.0595703-2.2216797-5.1147461-5.5283203-5.1147461-3.4287109,0-5.7314453,2.253418-5.8662109,5.7416992l-.0244141.6420898h-3.4335938l.0195312-.6879883c.1601562-5.3959961,3.8994141-9.0219727,9.3046875-9.0219727,5.3457031,0,9.0800781,3.4555664,9.0800781,8.4033203,0,3.1264648-1.5976562,6.0166016-5.0283203,9.0966797l-7.8183594,7.1713867h13.5595703v3.4013672h-19.5107422v-2.6899414ZM464.3683311,262.1936997l6.9814453,21.2944336,3.2841797-9.1367188,4.4433594-12.1577148h3.1132812l7.7226562,21.3369141,6.9833984-21.3369141h3.8095703l-9.0751953,27.6220703h-3.1660156l-7.8320312-21.5380859-7.7929688,21.5380859h-3.2060547l-9.0361328-27.6220703h3.7705078ZM441.6603233,261.7430161c8.3974609,0,14.2626953,5.8647461,14.2626953,14.2617188s-5.8652344,14.2617188-14.2626953,14.2617188c-8.4189453,0-14.2988281-5.8647461-14.2988281-14.2617188s5.8798828-14.2617188,14.2988281-14.2617188ZM406.1886436,261.7430161c6.3154297,0,11.3789062,3.4711914,13.2148438,9.0585938l.2871094.8764648h-3.8525391l-.1679688-.4199219c-1.5253906-3.8139648-4.9541016-6.0014648-9.40625-6.0014648-6.1816406,0-10.3349609,4.3193359-10.3349609,10.7480469s4.1679688,10.7475586,10.3720703,10.7475586c5.5166016,0,9.4033203-3.3710938,10.078125-8.652832h-11.6474609v-3.3637695h15.4443359l.0117188.6557617c.0791016,4.3652344-1.3349609,8.2529297-3.9824219,10.9482422-2.5224609,2.5688477-5.9599609,3.9267578-9.9414062,3.9267578-8.2421875,0-13.9990234-5.8647461-13.9990234-14.2617188s5.7255859-14.2617188,13.9238281-14.2617188ZM374.507003,277.5203598c-6.7607422-1.4545898-9.6474609-3.9072266-9.6474609-8.2001953,0-4.6030273,3.7851562-7.5771484,9.6425781-7.5771484,6.1279297,0,9.9287109,3.1865234,10.1679688,8.5239258l.03125.6977539h-3.5429688l-.0380859-.628418c-.2001953-3.3725586-2.5507812-5.2294922-6.6181641-5.2294922-3.734375,0-6.0537109,1.6142578-6.0537109,4.2133789,0,2.0195312,1.1884766,3.6333008,6.9892578,4.9443359,6.7861328,1.503418,9.6835938,3.9560547,9.6835938,8.1992188,0,4.8129883-3.8242188,7.8027344-9.9804688,7.8027344-6.3378906,0-10.4492188-3.3798828-10.7314453-8.8198242l-.0361328-.7026367h3.5859375l.0371094.6293945c.1992188,3.4624023,2.8710938,5.5292969,7.1445312,5.5292969,3.9189453,0,6.3535156-1.671875,6.3535156-4.3637695,0-1.7944336-.8466797-3.6445312-6.9873047-5.0185547ZM344.8204796,262.1936997h3.1083984l11.4042969,27.6220703h-3.8457031l-2.7792969-6.6464844h-12.7050781l-2.7792969,6.6464844h-3.8476562l11.4443359-27.6220703ZM310.8009483,262.1936997h3.5888672v24.1079102h13.3691406v3.5141602h-16.9580078v-27.6220703ZM288.1339561,261.7430161c6.3154297,0,11.3789062,3.4711914,13.2148438,9.0585938l.2871094.8764648h-3.8525391l-.1679688-.4199219c-1.5253906-3.8139648-4.9541016-6.0014648-9.40625-6.0014648-6.1816406,0-10.3349609,4.3193359-10.3349609,10.7480469s4.1679688,10.7475586,10.3720703,10.7475586c5.5166016,0,9.4033203-3.3710938,10.078125-8.652832h-11.6474609v-3.3637695h15.4443359l.0117188.6557617c.0791016,4.3652344-1.3349609,8.2529297-3.9824219,10.9482422-2.5224609,2.5688477-5.9599609,3.9267578-9.9414062,3.9267578-8.2421875,0-13.9990234-5.8647461-13.9990234-14.2617188s5.7255859-14.2617188,13.9238281-14.2617188Z"/>
  <path class="cls-4" d="M613.5665733,274.4568833c-3.8740234,0-6.5791016,2.5820312-6.5791016,6.2792969,0,3.675293,2.7050781,6.2416992,6.5791016,6.2416992,3.8515625,0,6.5419922-2.5664062,6.5419922-6.2416992,0-3.6972656-2.6904297-6.2792969-6.5419922-6.2792969Z"/>
  <path class="cls-4" d="M559.272628,286.8274888c4.6367188,0,7.4052734-4.0458984,7.4052734-10.8227539,0-6.7773438-2.7685547-10.8232422-7.4052734-10.8232422-4.6142578,0-7.3681641,4.0458984-7.3681641,10.8232422,0,6.7768555,2.7539062,10.8227539,7.3681641,10.8227539Z"/>
  <path class="cls-4" d="M441.6603233,286.7522934c6.3388672,0,10.5976562-4.3188477,10.5976562-10.7475586s-4.2587891-10.7480469-10.5976562-10.7480469c-6.3613281,0-10.6347656,4.3193359-10.6347656,10.7480469s4.2734375,10.7475586,10.6347656,10.7475586Z"/>
  <path class="cls-5" d="M288.2091514,290.2664536c3.9814453,0,7.4189453-1.3579102,9.9414062-3.9267578,2.6474609-2.6953125,4.0615234-6.5830078,3.9824219-10.9482422l-.0117188-.6557617h-15.4443359v3.3637695h11.6474609c-.6748047,5.2817383-4.5615234,8.652832-10.078125,8.652832-6.2041016,0-10.3720703-4.3188477-10.3720703-10.7475586s4.1533203-10.7480469,10.3349609-10.7480469c4.4521484,0,7.8808594,2.1875,9.40625,6.0014648l.1679688.4199219h3.8525391l-.2871094-.8764648c-1.8359375-5.5874023-6.8994141-9.0585938-13.2148438-9.0585938-8.1982422,0-13.9238281,5.8647461-13.9238281,14.2617188s5.7568359,14.2617188,13.9990234,14.2617188Z"/>
  <polygon class="cls-5" points="327.7589561 286.3016098 314.3898155 286.3016098 314.3898155 262.1936997 310.8009483 262.1936997 310.8009483 289.81577 327.7589561 289.81577 327.7589561 286.3016098"/>
  <path class="cls-5" d="M340.0030968,283.1692856h12.7050781l2.7792969,6.6464844h3.8457031l-11.4042969-27.6220703h-3.1083984l-11.4443359,27.6220703h3.8476562l2.7792969-6.6464844ZM341.3048546,279.8431138l5.0527344-12.3334961,5.0839844,12.3334961h-10.1367188Z"/>
  <path class="cls-5" d="M375.1407921,286.9026841c-4.2734375,0-6.9453125-2.0668945-7.1445312-5.5292969l-.0371094-.6293945h-3.5859375l.0361328.7026367c.2822266,5.4399414,4.3935547,8.8198242,10.7314453,8.8198242,6.15625,0,9.9804688-2.9897461,9.9804688-7.8027344,0-4.2431641-2.8974609-6.6958008-9.6835938-8.1992188-5.8007812-1.3110352-6.9892578-2.9248047-6.9892578-4.9443359,0-2.5991211,2.3193359-4.2133789,6.0537109-4.2133789,4.0673828,0,6.4179688,1.8569336,6.6181641,5.2294922l.0380859.628418h3.5429688l-.03125-.6977539c-.2392578-5.3374023-4.0400391-8.5239258-10.1679688-8.5239258-5.8574219,0-9.6425781,2.9741211-9.6425781,7.5771484,0,4.2929688,2.8867188,6.7456055,9.6474609,8.2001953,6.140625,1.3740234,6.9873047,3.2241211,6.9873047,5.0185547,0,2.6918945-2.4345703,4.3637695-6.3535156,4.3637695Z"/>
  <path class="cls-5" d="M406.2638389,290.2664536c3.9814453,0,7.4189453-1.3579102,9.9414062-3.9267578,2.6474609-2.6953125,4.0615234-6.5830078,3.9824219-10.9482422l-.0117188-.6557617h-15.4443359v3.3637695h11.6474609c-.6748047,5.2817383-4.5615234,8.652832-10.078125,8.652832-6.2041016,0-10.3720703-4.3188477-10.3720703-10.7475586s4.1533203-10.7480469,10.3349609-10.7480469c4.4521484,0,7.8808594,2.1875,9.40625,6.0014648l.1679688.4199219h3.8525391l-.2871094-.8764648c-1.8359375-5.5874023-6.8994141-9.0585938-13.2148438-9.0585938-8.1982422,0-13.9238281,5.8647461-13.9238281,14.2617188s5.7568359,14.2617188,13.9990234,14.2617188Z"/>
  <path class="cls-5" d="M441.6603233,290.2664536c8.3974609,0,14.2626953-5.8647461,14.2626953-14.2617188s-5.8652344-14.2617188-14.2626953-14.2617188c-8.4189453,0-14.2988281,5.8647461-14.2988281,14.2617188s5.8798828,14.2617188,14.2988281,14.2617188ZM441.6603233,265.256688c6.3388672,0,10.5976562,4.3193359,10.5976562,10.7480469s-4.2587891,10.7475586-10.5976562,10.7475586c-6.3613281,0-10.6347656-4.3188477-10.6347656-10.7475586s4.2734375-10.7480469,10.6347656-10.7480469Z"/>
  <polygon class="cls-5" points="472.8400108 289.81577 480.6329796 268.2776841 488.4650108 289.81577 491.6310264 289.81577 500.7062218 262.1936997 496.8966514 262.1936997 489.913253 283.5306138 482.1905968 262.1936997 479.0773155 262.1936997 474.6339561 274.3514145 471.3497764 283.4881333 464.3683311 262.1936997 460.5978233 262.1936997 469.6339561 289.81577 472.8400108 289.81577"/>
  <path class="cls-5" d="M541.1896202,286.4144028h-13.5595703l7.8183594-7.1713867c3.4306641-3.0800781,5.0283203-5.9702148,5.0283203-9.0966797,0-4.9477539-3.734375-8.4033203-9.0800781-8.4033203-5.4052734,0-9.1445312,3.6259766-9.3046875,9.0219727l-.0195312.6879883h3.4335938l.0244141-.6420898c.1347656-3.4882812,2.4375-5.7416992,5.8662109-5.7416992,3.3066406,0,5.5283203,2.0551758,5.5283203,5.1147461,0,2.1030273-1.1259766,4.0336914-3.7626953,6.4541016l-11.4833984,10.487793v2.6899414h19.5107422v-3.4013672Z"/>
  <path class="cls-5" d="M559.272628,290.2664536c6.7587891,0,10.9570312-5.4648438,10.9570312-14.2617188s-4.1982422-14.2617188-10.9570312-14.2617188c-6.7353516,0-10.9199219,5.4648438-10.9199219,14.2617188s4.1845703,14.2617188,10.9199219,14.2617188ZM559.272628,265.1814927c4.6367188,0,7.4052734,4.0458984,7.4052734,10.8232422,0,6.7768555-2.7685547,10.8227539-7.4052734,10.8227539-4.6142578,0-7.3681641-4.0458984-7.3681641-10.8227539,0-6.7773438,2.7539062-10.8232422,7.3681641-10.8232422Z"/>
  <path class="cls-5" d="M597.0011436,286.4144028h-13.5595703l7.8183594-7.1713867c3.4306641-3.0800781,5.0283203-5.9702148,5.0283203-9.0966797,0-4.9477539-3.734375-8.4033203-9.0800781-8.4033203-5.4052734,0-9.1445312,3.6259766-9.3046875,9.0219727l-.0195312.6879883h3.4335938l.0244141-.6420898c.1347656-3.4882812,2.4375-5.7416992,5.8662109-5.7416992,3.3066406,0,5.5283203,2.0551758,5.5283203,5.1147461,0,2.1030273-1.1259766,4.0336914-3.7626953,6.4541016l-11.4833984,10.487793v2.6899414h19.5107422v-3.4013672Z"/>
  <path class="cls-5" d="M613.5665733,290.2664536c5.8486328,0,10.09375-4.0083008,10.09375-9.5302734s-4.1035156-9.5302734-9.7558594-9.5302734c-.7675781,0-1.5166016.0825195-2.2412109.2460938l6.4072266-9.2583008h-4.1777344l-7.96875,11.4736328c-1.6953125,2.4038086-2.4511719,4.5839844-2.4511719,7.0688477,0,5.6113281,4.1503906,9.5302734,10.09375,9.5302734ZM613.5665733,286.9778794c-3.8740234,0-6.5791016-2.5664062-6.5791016-6.2416992,0-3.6972656,2.7050781-6.2792969,6.5791016-6.2792969,3.8515625,0,6.5419922,2.5820312,6.5419922,6.2792969,0,3.675293-2.6904297,6.2416992-6.5419922,6.2416992Z"/>
</svg>