<?xml version="1.0" encoding="UTF-8"?>
<svg id="Layer_1" data-name="Layer 1" xmlns="http://www.w3.org/2000/svg" viewBox="0 0 1000 775">
  <defs>
    <style>
      .cls-1 {
        fill: #7c297d;
      }

      .cls-2 {
        fill: #f79a23;
      }

      .cls-3 {
        fill: #fff;
        stroke: #fff;
        stroke-miterlimit: 10;
        stroke-width: 1.75962px;
      }

      .cls-4 {
        fill: #dd552c;
      }

      .cls-5 {
        fill: #d22128;
      }
    </style>
  </defs>
  <g>
    <g>
      <path class="cls-1" d="M6.3517296,414.8553208c0-31.0307617,21.6054688-52.7817383,52.3466797-52.7817383,25.8105469,0,46.1113281,15.6606445,51.9111328,40.1665039h-23.7802734c-3.7705078-11.3105469-14.5009766-18.2705078-27.40625-18.2705078-17.2558594,0-29.5810547,12.4702148-29.5810547,30.8857422,0,18.2705078,12.1806641,30.8857422,29.4365234,30.8857422,13.3398438,0,24.0703125-7.25,28.2753906-18.9956055h23.78125c-5.0751953,24.6508789-25.8115234,40.8916016-52.4921875,40.8916016-30.8857422,0-52.4912109-21.7509766-52.4912109-52.7817383Z"/>
      <path class="cls-1" d="M126.3282921,414.8553208c0-30.8857422,22.3300781-52.7817383,54.0869141-52.7817383,31.6103516,0,54.0859375,21.8959961,54.0859375,52.7817383s-22.4755859,52.7817383-54.0859375,52.7817383c-31.7568359,0-54.0869141-21.8959961-54.0869141-52.7817383ZM211.0109093,414.8553208c0-18.2705078-12.6152344-30.8857422-30.5957031-30.8857422-17.9814453,0-30.5966797,12.6152344-30.5966797,30.8857422s12.6152344,30.8857422,30.5966797,30.8857422c17.9804688,0,30.5957031-12.6152344,30.5957031-30.8857422Z"/>
      <path class="cls-1" d="M255.9611046,364.1038559h19.4306641l36.1064453,52.6367188,36.1054688-52.6367188h19.4306641v101.5029297h-22.9101562v-61.046875l-24.6513672,35.9609375h-15.9501953l-24.6503906-35.9609375v61.046875h-22.9111328v-101.5029297Z"/>
      <path class="cls-1" d="M394.5128624,364.1038559h19.4306641l36.1064453,52.6367188,36.1054688-52.6367188h19.4306641v101.5029297h-22.9101562v-61.046875l-24.6513672,35.9609375h-15.9501953l-24.6503906-35.9609375v61.046875h-22.9111328v-101.5029297Z"/>
      <path class="cls-1" d="M532.1505577,423.7005356v-59.5966797h23.2011719v58.1464844c0,15.515625,6.3798828,23.4907227,19.2851562,23.4907227s19.4306641-7.9750977,19.4306641-23.4907227v-58.1464844h23.0556641v59.5966797c0,27.4057617-16.0957031,43.9365234-42.4863281,43.9365234s-42.4863281-16.5307617-42.4863281-43.9365234Z"/>
      <path class="cls-1" d="M643.5284874,364.1038559h19.5761719l44.8056641,62.0615234v-62.0615234h22.765625v101.5029297h-19.5751953l-44.8066406-62.2070312v62.2070312h-22.765625v-101.5029297Z"/>
      <path class="cls-1" d="M757.9376671,364.1038559h23.0556641v101.5029297h-23.0556641v-101.5029297Z"/>
      <path class="cls-1" d="M830.2648155,385.7093247h-32.0458984v-21.6054688h87.2929688v21.6054688h-32.0458984v79.8974609h-23.2011719v-79.8974609Z"/>
      <path class="cls-1" d="M935.507003,430.0809067l-37.4111328-65.9770508h26.2460938l12.6152344,23.4907227,10.1503906,18.4155273,10.0048828-18.4155273,12.4707031-23.4907227h26.2460938l-37.2666016,65.6870117v35.815918h-23.0556641v-35.5258789Z"/>
      <path class="cls-1" d="M11.053878,546.8509263c0-22.1333008,16.0029297-37.8242188,38.7597656-37.8242188,22.6533203,0,38.7597656,15.690918,38.7597656,37.8242188s-16.1064453,37.8237305-38.7597656,37.8237305c-22.7568359,0-38.7597656-15.6904297-38.7597656-37.8237305ZM71.7394249,546.8509263c0-13.0932617-9.0410156-22.1333008-21.9257812-22.1333008s-21.9257812,9.0400391-21.9257812,22.1333008c0,13.0927734,9.0410156,22.1333008,21.9257812,22.1333008s21.9257812-9.0405273,21.9257812-22.1333008Z"/>
      <path class="cls-1" d="M130.0187218,510.4812973h17.7685547l9.6640625,25.8745117,8.7285156,23.0683594,8.7285156-23.0683594,9.5605469-25.8745117h17.6650391l-27.953125,72.7387695h-16.2099609l-27.9521484-72.7387695Z"/>
      <path class="cls-1" d="M251.0929405,510.4812973h47.6953125v13.9243164h-31.2773438v14.9633789h28.5751953v13.9243164h-28.5751953v15.8984375h32.4199219v14.0283203h-48.8378906v-72.7387695Z"/>
      <path class="cls-1" d="M353.0362999,510.4812973h30.9658203c16.7294922,0,27.328125,9.5600586,27.328125,25.0429688,0,10.8071289-5.0908203,18.7041016-13.8203125,22.4453125l15.0673828,25.2504883h-19.1191406l-13.09375-22.652832h-10.8066406v22.652832h-16.5214844v-72.7387695ZM381.819503,546.6429184c8.2089844,0,12.6777344-3.9487305,12.6777344-11.0146484s-4.46875-11.0146484-12.6777344-11.0146484h-12.4697266v22.0292969h12.4697266Z"/>
      <path class="cls-2" d="M498.8321983,503.8309067h15.4824219l-28.0556641,86.0395508h-15.3798828l27.953125-86.0395508Z"/>
      <path class="cls-1" d="M558.6779014,546.8509263c0-22.2373047,15.4833984-37.8242188,37.5126953-37.8242188,18.4960938,0,33.0439453,11.2226562,37.2011719,28.7836914h-17.0419922c-2.7021484-8.1049805-10.3916016-13.0927734-19.6396484-13.0927734-12.3652344,0-21.1982422,8.9360352-21.1982422,22.1333008,0,13.0927734,8.7285156,22.1333008,21.0947266,22.1333008,9.5595703,0,17.2490234-5.1958008,20.2626953-13.612793h17.0419922c-3.6376953,17.6650391-18.4970703,29.3032227-37.6162109,29.3032227-22.1337891,0-37.6171875-15.5864258-37.6171875-37.8237305Z"/>
      <path class="cls-1" d="M682.069503,546.8509263c0-22.1333008,16.0029297-37.8242188,38.7597656-37.8242188,22.6533203,0,38.7597656,15.690918,38.7597656,37.8242188s-16.1064453,37.8237305-38.7597656,37.8237305c-22.7568359,0-38.7597656-15.6904297-38.7597656-37.8237305ZM742.7550499,546.8509263c0-13.0932617-9.0410156-22.1333008-21.9257812-22.1333008s-21.9257812,9.0400391-21.9257812,22.1333008c0,13.0927734,9.0410156,22.1333008,21.9257812,22.1333008s21.9257812-9.0405273,21.9257812-22.1333008Z"/>
      <path class="cls-1" d="M812.3829796,510.4812973h28.7832031c22.9648438,0,38.34375,14.7558594,38.34375,36.3696289,0,21.7172852-15.3789062,36.3691406-38.34375,36.3691406h-28.7832031v-72.7387695ZM840.7501671,568.0486802c12.9892578,0,21.7177734-8.4165039,21.7177734-21.1977539s-8.7285156-21.1982422-21.9248047-21.1982422h-11.6386719v42.3959961h11.8457031Z"/>
      <path class="cls-1" d="M932.2628624,510.4812973h47.6953125v13.9243164h-31.2773438v14.9633789h28.5751953v13.9243164h-28.5751953v15.8984375h32.4199219v14.0283203h-48.8378906v-72.7387695Z"/>
    </g>
    <g>
      <path class="cls-4" d="M513.445067,143.0558339c8.5091709-21.0410564,18.0033855-42.040843,28.1904976-60.6535004-15.2068169-11.294879-29.8087062-35.650548-35.8080246-46.4415016-2.1547154,2.4479478-3.5535427,5.2673234-4.1877936,7.5610527-5.6517837,20.4068055,14.4672196,45.0491906-1.7376737,36.0458687-13.5017246-7.5024062-43.904498-23.932111-55.5012979-7.6023224,12.9880248,16.6881838,46.9584595,58.6747244,69.0442922,71.090403Z"/>
      <path class="cls-2" d="M541.6355646,82.4023336c9.8710726-18.0348809,20.3905148-33.8303348,31.2965893-45.2099254,0,0-10.8778373,15.7454958-26.4148123,47.2212827,9.4095031,2.5913059,36.2076896,7.9085874,73.5350927-1.7333295.9177089-6.7834437-3.6425985-14.2445801-26.3681123-16.7424861-14.8364752-1.6290691,17.8078972-35.4268225-5.8407557-51.4112484-.7634904-.5169579-1.5139482-.9730973-2.2492014-1.3814506-.7928136-.2845441-1.6301551-.5451951-2.523971-.777609-27.6192374-7.2070017-31.4475497,39.6254765-42.4687451,29.5578296-17.8100693-16.26897-29.0517321-12.4678088-34.7741088-5.964565,5.9993184,10.7909537,20.6012077,35.1466226,35.8080246,46.4415016Z"/>
      <path class="cls-5" d="M491.2310809,203.678925c6.2349904-18.6778201,13.7352245-39.6624021,22.2139861-60.6230911-22.0858327-12.4156786-56.0562674-54.4022192-69.0442922-71.090403-2.3187083,3.2624824-3.9032495,7.8130154-4.4310679,14.0360593-2.8324081,33.4263256,31.6517264,58.1729712,24.7770548,62.6930949-9.0934637,5.9797696-27.1924213-14.3640452-34.3255718-1.437925,10.3391585,13.2823433,31.3997637,37.2817892,60.809891,56.4222649Z"/>
      <path class="cls-4" d="M586.7792412,131.5893596c-17.4603625-6.2273881,18.2455738-22.9286044,29.8402015-40.6463598,1.4835389-2.2654921,3.017036-5.1934723,3.4329916-8.2626384-37.3274031,9.6419169-64.1255896,4.3246354-73.5350927,1.7333295-8.0432571,16.2972072-17.331123,36.8343382-27.0175678,61.5961883,10.0882819,4.313775,51.2798368,20.2482427,109.4614964,20.3307822,9.7820169-25.4786406-25.6111382-28.8432113-42.182029-34.7513018Z"/>
      <path class="cls-5" d="M497.977599,207.0413236c10.2598771,3.1973196,44.2552909,12.7480087,80.3598061,11.3100837,4.8502817-13.132469-13.2834294-14.4140033-14.760452-24.946478-1.1436065-8.1496896,47.7219499,6.8486065,63.4446387-22.7852463.7949857-1.4987436,1.415118-2.9127755,1.9396783-4.2790215-58.1816595-.0825395-99.3732145-16.0170073-109.4614964-20.3307822-7.0788482,18.0956995-14.3607871,38.4047608-21.5221748,61.0314444Z"/>
      <path class="cls-1" d="M497.977599,207.0413236c-4.6102655,14.5638777-9.1586264,30.1225735-13.5734037,46.5653109-1.5660784,5.8298953-3.1136941,11.7683951-4.6395888,17.8372205,34.2680113,11.3122558,65.8230796.0260651,66.892835-13.9622081.0086884-.1107767-.0119465-.1933162-.0054302-.2997487.8156206-14.8158404-21.3907632-6.60316-20.8651169-15.5109098.5278184-8.9729125,38.7685862-.0521302,50.5945418-19.2903501.9068485-1.4748505,1.4976575-2.7846221,1.955969-4.0292309-36.1045152,1.437925-70.099929-8.1127641-80.3598061-11.3100837Z"/>
      <path class="cls-1" d="M430.4211899,147.2566601c-.4995812.9057624-.9502903,1.9527108-1.3347506,3.2038359-6.6411717,21.5840794,40.31946,50.5793371,33.930251,56.9001252-5.7593023,5.6952255-13.2649666-7.3199504-22.5202511-1.9440224-1.014367.5908091-2.0439387,1.3358367-3.1006615,2.4197106-10.4673119,10.7236188-.163993,41.617285,29.5339366,58.1078084-6.9300599,23.2696229-13.8297105,49.2673935-20.583831,76.4554705,2.4501199-.8579764,5.3824443-1.7181249,6.1122672-4.0292309,1.0958205-4.5049191,7.8684037-31.9167216,18.8646201-69.1051108,0,0,2.0070131-7.6175271,5.6811069-20.1678753,3.3971521-11.6054882,8.2246268-27.4335235,14.2272034-45.4184462-29.4101273-19.1404758-50.4707325-43.1399216-60.809891-56.4222649Z"/>
    </g>
  </g>
  <g>
    <polygon class="cls-4" points="742.8479304 683.2697826 283.3216143 683.2697826 257.1520696 763.390131 716.6783857 763.390131 742.8479304 683.2697826"/>
    <g>
      <path class="cls-3" d="M309.9923546,730.8645981h2.9677734c.296875,5.1445312,4.2539062,8.112793,10.2890625,8.112793,5.7392578,0,9.2509766-2.5722656,9.2509766-6.6289062,0-3.7099609-2.8193359-5.8867188-9.8935547-7.4697266-8.5087891-1.8305664-12.0214844-4.7983398-12.0214844-9.9433594,0-5.4912109,4.453125-9.1020508,11.8232422-9.1020508,7.5693359,0,12.21875,3.7592773,12.515625,10.3881836h-2.9179688c-.296875-4.9960938-3.8095703-7.7172852-9.5976562-7.7172852-5.5898438,0-8.8544922,2.5727539-8.8544922,6.4311523,0,3.6113281,2.6708984,5.7382812,9.8935547,7.3710938,8.7070312,1.9291992,12.0703125,4.9960938,12.0703125,9.9428711,0,5.7880859-4.6992188,9.3994141-12.2685547,9.3994141-7.9150391,0-12.9111328-4.105957-13.2568359-10.7841797Z"/>
      <path class="cls-3" d="M356.6661827,728.2918442l-13.109375-21.8652344h3.4130859l6.7285156,11.1801758,4.4521484,7.519043,11.1796875-18.6992188h3.4130859l-13.109375,21.815918v12.8125h-2.9677734v-12.7631836Z"/>
      <path class="cls-3" d="M384.0167686,706.4266098h10.8339844c11.2294922,0,18.1552734,6.7773438,18.1552734,17.3144531,0,10.5366211-6.9257812,17.3139648-18.1552734,17.3139648h-10.8339844v-34.628418ZM394.850753,738.2352036c9.3496094,0,15.0878906-5.5898438,15.0878906-14.4941406,0-8.9047852-5.7382812-14.4946289-15.1865234-14.4946289h-7.7666016v28.9887695h7.8652344Z"/>
      <path class="cls-3" d="M426.2443077,706.4266098h2.7216797l21.2714844,29.4838867v-29.4838867h2.9179688v34.628418h-2.6708984l-21.2714844-29.5332031v29.5332031h-2.96875v-34.628418Z"/>
      <path class="cls-3" d="M468.6446983,706.4266098h20.3818359v2.6713867h-17.4130859v12.9609375h16.1269531v2.7207031h-16.1269531v13.5546875h17.9570312v2.7207031h-20.9257812v-34.628418Z"/>
      <path class="cls-3" d="M512.6925499,728.2918442l-13.109375-21.8652344h3.4130859l6.7285156,11.1801758,4.4521484,7.519043,11.1796875-18.6992188h3.4130859l-13.109375,21.815918v12.8125h-2.9677734v-12.7631836Z"/>
      <path class="cls-3" d="M558.4015343,738.7796372l14.8408203-13.5546875c3.6113281-3.3144531,5.2431641-6.0351562,5.2431641-9.1518555,0-4.5014648-3.3144531-7.6181641-8.1621094-7.6181641-4.9960938,0-8.4101562,3.3144531-8.6074219,8.409668h-2.7705078c.1982422-6.6782227,4.7490234-11.03125,11.3779297-11.03125,6.4804688,0,11.0810547,4.1552734,11.0810547,10.1904297,0,3.8583984-1.9785156,7.4204102-6.3320312,11.328125l-11.9716797,10.9824219h19.2431641v2.7207031h-23.9423828v-2.2753906Z"/>
      <path class="cls-3" d="M593.2960655,723.741063c0-11.0810547,5.1943359-17.9077148,13.5048828-17.9077148,8.4101562,0,13.5546875,6.8266602,13.5546875,17.9077148s-5.1445312,17.9077148-13.5546875,17.9077148c-8.3105469,0-13.5048828-6.8266602-13.5048828-17.9077148ZM617.4366905,723.741063c0-9.3994141-4.0068359-15.1376953-10.6357422-15.1376953-6.5791016,0-10.5859375,5.7382812-10.5859375,15.1376953,0,9.3989258,4.0068359,15.137207,10.5859375,15.137207,6.6289062,0,10.6357422-5.7382812,10.6357422-15.137207Z"/>
      <path class="cls-3" d="M631.4425499,738.7796372l14.8408203-13.5546875c3.6113281-3.3144531,5.2431641-6.0351562,5.2431641-9.1518555,0-4.5014648-3.3144531-7.6181641-8.1621094-7.6181641-4.9960938,0-8.4101562,3.3144531-8.6074219,8.409668h-2.7705078c.1982422-6.6782227,4.7490234-11.03125,11.3779297-11.03125,6.4804688,0,11.0810547,4.1552734,11.0810547,10.1904297,0,3.8583984-1.9785156,7.4204102-6.3320312,11.328125l-11.9716797,10.9824219h19.2431641v2.7207031h-23.9423828v-2.2753906Z"/>
      <path class="cls-3" d="M665.4230186,729.9739731c0-3.0668945.9394531-5.7880859,3.0664062-8.8056641l10.2402344-14.7416992h3.3642578l-9.0039062,13.0102539c1.5830078-.7416992,3.3144531-1.1376953,5.1943359-1.1376953,6.9257812,0,11.9716797,4.8974609,11.9716797,11.6748047,0,6.8759766-5.1943359,11.6748047-12.4169922,11.6748047-7.2714844,0-12.4160156-4.7988281-12.4160156-11.6748047ZM687.3370811,729.9739731c0-5.3427734-3.9072266-9.1518555-9.4980469-9.1518555-5.6386719,0-9.546875,3.809082-9.546875,9.1518555s3.9082031,9.1025391,9.546875,9.1025391c5.5908203,0,9.4980469-3.7597656,9.4980469-9.1025391Z"/>
    </g>
  </g>
</svg>