<?xml version="1.0" encoding="UTF-8"?>
<svg id="Layer_1" data-name="Layer 1" xmlns="http://www.w3.org/2000/svg" viewBox="0 0 1000 775">
  <defs>
    <style>
      .cls-1 {
        fill: #fff;
      }
    </style>
  </defs>
  <path class="cls-1" d="M59.2784874,445.7402957c-17.2558594,0-29.4365234-12.6152344-29.4365234-30.8857422,0-18.4150391,12.3251953-30.8857422,29.5810547-30.8857422,12.9052734,0,23.6357422,6.9599609,27.40625,18.2705078h23.7802734c-5.7998047-24.5058594-26.1005859-40.1660156-51.9111328-40.1660156-30.7412109,0-52.3466797,21.7509766-52.3466797,52.78125,0,31.03125,21.6054688,52.7822266,52.4912109,52.7822266,26.6806641,0,47.4169922-16.2412109,52.4921875-40.8916016h-23.78125c-4.2050781,11.7451172-14.9355469,18.9951172-28.2753906,18.9951172Z"/>
  <path class="cls-1" d="M180.4152061,467.63678c31.6103516,0,54.0859375-21.8964844,54.0859375-52.7822266s-22.4755859-52.78125-54.0859375-52.78125c-31.7568359,0-54.0869141,21.8955078-54.0869141,52.78125s22.3300781,52.7822266,54.0869141,52.7822266ZM180.4152061,383.9688113c17.9804688,0,30.5957031,12.6152344,30.5957031,30.8857422s-12.6152344,30.8857422-30.5957031,30.8857422c-17.9814453,0-30.5966797-12.6152344-30.5966797-30.8857422s12.6152344-30.8857422,30.5966797-30.8857422Z"/>
  <polygon class="cls-1" points="278.8722374 404.5596316 303.522628 440.5205691 319.4728233 440.5205691 344.1241905 404.5596316 344.1241905 465.6065066 367.0343468 465.6065066 367.0343468 364.1035769 347.6036827 364.1035769 311.4982139 416.7402957 275.3917686 364.1035769 255.9611046 364.1035769 255.9611046 465.6065066 278.8722374 465.6065066 278.8722374 404.5596316"/>
  <polygon class="cls-1" points="417.4239952 404.5596316 442.0743858 440.5205691 458.0245811 440.5205691 482.6759483 404.5596316 482.6759483 465.6065066 505.5861046 465.6065066 505.5861046 364.1035769 486.1554405 364.1035769 450.0499718 416.7402957 413.9435264 364.1035769 394.5128624 364.1035769 394.5128624 465.6065066 417.4239952 465.6065066 417.4239952 404.5596316"/>
  <path class="cls-1" d="M532.1505577,364.1035769v59.5966797c0,27.4052734,16.0957031,43.9365234,42.4863281,43.9365234s42.4863281-16.53125,42.4863281-43.9365234v-59.5966797h-23.0556641v58.1464844c0,15.515625-6.5253906,23.4902344-19.4306641,23.4902344s-19.2851562-7.9746094-19.2851562-23.4902344v-58.1464844h-23.2011719Z"/>
  <polygon class="cls-1" points="666.2941124 403.3994753 711.100753 465.6065066 730.6759483 465.6065066 730.6759483 364.1035769 707.9103233 364.1035769 707.9103233 426.1651003 663.1046593 364.1035769 643.5284874 364.1035769 643.5284874 465.6065066 666.2941124 465.6065066 666.2941124 403.3994753"/>
  <rect class="cls-1" x="757.9376671" y="364.1035769" width="23.0556641" height="101.5029297"/>
  <polygon class="cls-1" points="798.2189171 385.7090457 830.2648155 385.7090457 830.2648155 465.6065066 853.4659874 465.6065066 853.4659874 385.7090457 885.5118858 385.7090457 885.5118858 364.1035769 798.2189171 364.1035769 798.2189171 385.7090457"/>
  <polygon class="cls-1" points="957.1124718 387.5938113 947.1075889 406.0098269 936.9571983 387.5938113 924.3419639 364.1035769 898.0958702 364.1035769 935.507003 430.0801394 935.507003 465.6065066 958.5626671 465.6065066 958.5626671 429.7901003 995.8292686 364.1035769 969.5831749 364.1035769 957.1124718 387.5938113"/>
  <path class="cls-1" d="M49.8136436,509.0264285c-22.7568359,0-38.7597656,15.6904297-38.7597656,37.8242188,0,22.1328125,16.0029297,37.8232422,38.7597656,37.8232422,22.6533203,0,38.7597656-15.6904297,38.7597656-37.8232422,0-22.1337891-16.1064453-37.8242188-38.7597656-37.8242188ZM49.8136436,568.9834597c-12.8847656,0-21.9257812-9.0400391-21.9257812-22.1328125,0-13.09375,9.0410156-22.1337891,21.9257812-22.1337891s21.9257812,9.0400391,21.9257812,22.1337891c0,13.0927734-9.0410156,22.1328125-21.9257812,22.1328125Z"/>
  <polygon class="cls-1" points="174.9083702 536.35553 166.1798546 559.4238894 157.4513389 536.35553 147.7872764 510.48053 130.0187218 510.48053 157.9708702 583.2197878 174.1808311 583.2197878 202.1339561 510.48053 184.4689171 510.48053 174.9083702 536.35553"/>
  <polygon class="cls-1" points="299.9308311 569.1914675 267.5109093 569.1914675 267.5109093 553.29303 296.0861046 553.29303 296.0861046 539.3682253 267.5109093 539.3682253 267.5109093 524.4053347 298.788253 524.4053347 298.788253 510.48053 251.0929405 510.48053 251.0929405 583.2197878 299.9308311 583.2197878 299.9308311 569.1914675"/>
  <path class="cls-1" d="M353.0362999,583.2197878h16.5214844v-22.6533203h10.8066406l13.09375,22.6533203h19.1191406l-15.0673828-25.2509766c8.7294922-3.7412109,13.8203125-11.6376953,13.8203125-22.4453125,0-15.4824219-10.5986328-25.0429688-27.328125-25.0429688h-30.9658203v72.7392578ZM369.3497764,524.6133425h12.4697266c8.2089844,0,12.6777344,3.9482422,12.6777344,11.0146484,0,7.0654297-4.46875,11.0146484-12.6777344,11.0146484h-12.4697266v-22.0292969Z"/>
  <polygon class="cls-1" points="470.8790733 589.8701785 486.2589561 589.8701785 514.3146202 503.8301394 498.8321983 503.8301394 470.8790733 589.8701785"/>
  <path class="cls-1" d="M596.710128,524.7168582c9.2480469,0,16.9375,4.9882812,19.6396484,13.0927734h17.0419922c-4.1572266-17.5605469-18.7050781-28.7832031-37.2011719-28.7832031-22.0292969,0-37.5126953,15.5869141-37.5126953,37.8242188s15.4833984,37.8232422,37.6171875,37.8232422c19.1191406,0,33.9785156-11.6376953,37.6162109-29.3027344h-17.0419922c-3.0136719,8.4169922-10.703125,13.6123047-20.2626953,13.6123047-12.3662109,0-21.0947266-9.0400391-21.0947266-22.1328125,0-13.1972656,8.8330078-22.1337891,21.1982422-22.1337891Z"/>
  <path class="cls-1" d="M682.069503,546.8506472c0,22.1328125,16.0029297,37.8232422,38.7597656,37.8232422,22.6533203,0,38.7597656-15.6904297,38.7597656-37.8232422,0-22.1337891-16.1064453-37.8242188-38.7597656-37.8242188-22.7568359,0-38.7597656,15.6904297-38.7597656,37.8242188ZM742.7550499,546.8506472c0,13.0927734-9.0410156,22.1328125-21.9257812,22.1328125s-21.9257812-9.0400391-21.9257812-22.1328125c0-13.09375,9.0410156-22.1337891,21.9257812-22.1337891s21.9257812,9.0400391,21.9257812,22.1337891Z"/>
  <path class="cls-1" d="M841.1661827,510.48053h-28.7832031v72.7392578h28.7832031c22.9648438,0,38.34375-14.6523438,38.34375-36.3691406,0-21.6142578-15.3789062-36.3701172-38.34375-36.3701172ZM840.7501671,568.0479128h-11.8457031v-42.3955078h11.6386719c13.1962891,0,21.9248047,8.4169922,21.9248047,21.1982422s-8.7285156,21.1972656-21.7177734,21.1972656Z"/>
  <polygon class="cls-1" points="948.6808311 553.29303 977.2560264 553.29303 977.2560264 539.3682253 948.6808311 539.3682253 948.6808311 524.4053347 979.9581749 524.4053347 979.9581749 510.48053 932.2628624 510.48053 932.2628624 583.2197878 981.100753 583.2197878 981.100753 569.1914675 948.6808311 569.1914675 948.6808311 553.29303"/>
  <path class="cls-1" d="M513.4449913,143.0558474c8.5092773-21.0410767,18.003418-42.0408936,28.1904297-60.6534424-15.206543-11.2949219-29.8085938-35.6506348-35.8081055-46.4416504-2.1542969,2.447998-3.5532227,5.267334-4.1875,7.5611572-5.6518555,20.4068604,14.4672852,45.0491943-1.737793,36.0457764-13.5014648-7.5023193-43.9042969-23.9321289-55.5014648-7.6022949,12.9882812,16.6882324,46.9584961,58.6747437,69.0444336,71.0904541Z"/>
  <path class="cls-1" d="M541.635421,82.402405c9.8710938-18.0349121,20.390625-33.8303223,31.296875-45.2099609,0,0-10.8779297,15.7454834-26.4150391,47.2211914,9.409668,2.5913086,36.2075195,7.9086914,73.5351562-1.7332764.9174805-6.7834473-3.6425781-14.2445068-26.3681641-16.7425537-14.8364258-1.6290283,17.8081055-35.4267578-5.8408203-51.4111328-.7631836-.5170898-1.5136719-.9731445-2.2490234-1.3814697-.7929688-.2845459-1.6303711-.5452881-2.5239258-.77771-27.6191406-7.2069092-31.4477539,39.6254883-42.46875,29.5578613-17.8100586-16.2689209-29.0517578-12.4677734-34.7744141-5.9645996,5.9995117,10.7910156,20.6015625,35.1467285,35.8081055,46.4416504Z"/>
  <path class="cls-1" d="M491.2311241,203.6789553c6.2348633-18.6778564,13.7353516-39.6624146,22.2138672-60.6231079-22.0859375-12.4157104-56.0561523-54.4022217-69.0444336-71.0904541-2.3183594,3.2624512-3.902832,7.8129883-4.4306641,14.0361328-2.8325195,33.4262695,31.6513672,58.1729126,24.7768555,62.6930542-9.0932617,5.9797974-27.1923828-14.3640137-34.3256836-1.4379272,10.3393555,13.2823486,31.3999023,37.2817993,60.8100586,56.4223022Z"/>
  <path class="cls-1" d="M546.5172569,84.4136355c-8.0429688,16.2972412-17.3310547,36.8344727-27.0175781,61.5962524,10.0883789,4.3137817,51.2797852,20.24823,109.4614258,20.3307495,9.7822266-25.4786377-25.6108398-28.8432007-42.1816406-34.7512817-17.4604492-6.227356,18.2451172-22.9286499,29.8398438-40.6464233,1.4838867-2.2653809,3.0170898-5.1933594,3.4331055-8.2625732-37.3276367,9.6419678-64.1254883,4.324585-73.5351562,1.7332764Z"/>
  <path class="cls-1" d="M497.9777061,207.041321c10.2597656,3.1973267,44.2553711,12.7479858,80.3598633,11.3100586,4.8500977-13.1324463-13.2836914-14.4140015-14.7607422-24.9464722-1.1435547-8.1496582,47.722168,6.8486328,63.4448242-22.7852173.7949219-1.4987793,1.4150391-2.9127808,1.9394531-4.2790527-58.1816406-.0825195-99.3730469-16.0169678-109.4614258-20.3307495-7.0786133,18.0957031-14.3608398,38.4047241-21.5219727,61.0314331Z"/>
  <path class="cls-1" d="M497.9777061,207.041321c-4.6103516,14.5639038-9.1586914,30.1225586-13.5732422,46.5653076-1.5664062,5.829895-3.1137695,11.7683716-4.6396484,17.8372192,34.2675781,11.3122559,65.8227539.026062,66.8925781-13.9622192.0087891-.1107788-.0117188-.1932983-.0053711-.2997437.8154297-14.8158569-21.390625-6.6031494-20.8652344-15.5109253.527832-8.9729004,38.7685547-.052124,50.5947266-19.2903442.9067383-1.4748535,1.4975586-2.7846069,1.9560547-4.0292358-36.1044922,1.4379272-70.1000977-8.1127319-80.3598633-11.3100586Z"/>
  <path class="cls-1" d="M463.0167686,207.360596c-5.7592773,5.6952515-13.2651367-7.3199463-22.5205078-1.9439697-1.0141602.5907593-2.0439453,1.3358154-3.1005859,2.4196777-10.4672852,10.7236328-.1640625,41.6173096,29.5341797,58.1077881-6.9301758,23.2696533-13.8300781,49.267395-20.5839844,76.4555054,2.4501953-.8579712,5.3823242-1.7181396,6.1123047-4.0292358,1.0957031-4.5049438,7.8681641-31.916748,18.8647461-69.1051025,0,0,2.0068359-7.6175537,5.6811523-20.1679077,3.3969727-11.6054688,8.2246094-27.4335327,14.2270508-45.418396-29.4101562-19.1405029-50.4707031-43.1399536-60.8100586-56.4223022-.4995117.9057617-.9501953,1.9526978-1.3344727,3.2038574-6.6411133,21.5840454,40.3193359,50.5793457,33.9301758,56.9000854Z"/>
  <g>
    <path class="cls-1" d="M606.1089243,709.4822017c-6.078125,0-9.7060547,5.3300781-9.7060547,14.2578125s3.6279297,14.2573242,9.7060547,14.2573242c6.1083984,0,9.7558594-5.3295898,9.7558594-14.2573242s-3.6474609-14.2578125-9.7558594-14.2578125Z"/>
    <path class="cls-1" d="M328.1977914,709.9768306h-9.3603516v11.2504883h9.3105469c4.2509766,0,6.6884766-2.0415039,6.6884766-5.6005859,0-3.5908203-2.4199219-5.6499023-6.6386719-5.6499023Z"/>
    <path class="cls-1" d="M282.8458017,683.2697994l-26.1695557,80.1203613h460.4779663l26.1695557-80.1203613h-460.4779663ZM328.8403696,741.9338619h-14.7314453v-36.3881836h14.2861328c6.7402344,0,11.2685547,3.9521484,11.2685547,9.8339844,0,3.4091797-1.5400391,6.1948242-4.2138672,7.7915039,3.3037109,1.6142578,5.1542969,4.6293945,5.1542969,8.5332031,0,6.2143555-4.6171875,10.2294922-11.7636719,10.2294922ZM375.1040414,741.9338619h-22.6855469v-36.3881836h22.1416016v4.4311523h-17.4130859v11.2011719h16.1269531v4.4804688h-16.1269531v11.7949219h17.9570312v4.4804688ZM390.5044321,741.9338619h-4.7285156v-36.3881836h4.7285156v36.3881836ZM418.2056039,730.3689205c0,7.4575195-4.1777344,11.5649414-11.7626953,11.5649414h-5.9257812v-4.6289062h5.8759766c4.8652344,0,7.0351562-2.2001953,7.0351562-7.1342773v-24.625h4.7773438v24.8232422ZM436.4849008,741.9338619h-4.7285156v-36.3881836h4.7285156v36.3881836ZM478.7944711,741.9338619h-4.0009766l-19.9414062-27.6860352v27.6860352h-4.7285156v-36.3881836h4.0517578l19.9414062,27.6401367v-27.6401367h4.6777344v36.3881836ZM521.8315805,737.3552486c-3.3232422,3.3837891-7.8525391,5.1723633-13.0966797,5.1723633-10.8583984,0-18.4414062-7.7255859-18.4414062-18.7875977s7.5429688-18.7880859,18.3427734-18.7880859c8.3203125,0,14.9902344,4.5727539,17.4072266,11.934082l.3789062,1.1542969h-5.0751953l-.2216797-.5532227c-2.0087891-5.0244141-6.5253906-7.9057617-12.390625-7.9057617-8.1435547,0-13.6142578,5.6899414-13.6142578,14.1586914s5.4912109,14.1586914,13.6640625,14.1586914c7.265625,0,12.3857422-4.440918,13.2763672-11.3989258h-15.34375v-4.4311523h20.3447266l.015625.8637695c.1035156,5.7504883-1.7597656,10.8725586-5.2460938,14.4228516ZM582.5317758,741.9338619h-25.7021484v-3.543457l15.1269531-13.815918c3.4746094-3.1884766,4.9570312-5.7314453,4.9570312-8.5024414,0-4.0302734-2.9267578-6.7382812-7.2822266-6.7382812-4.5166016,0-7.5507812,2.96875-7.7285156,7.5639648l-.0322266.8457031h-4.5234375l.0263672-.9057617c.2119141-7.109375,5.1376953-11.8857422,12.2578125-11.8857422,7.0419922,0,11.9609375,4.5527344,11.9609375,11.0708008,0,4.1186523-2.1044922,7.9262695-6.6240234,11.9829102l-10.2988281,9.4477539h17.8623047v4.4804688ZM606.1089243,742.5276119c-8.8730469,0-14.3847656-7.1992188-14.3847656-18.7875977,0-11.5888672,5.5117188-18.7880859,14.3847656-18.7880859,8.9033203,0,14.4345703,7.1992188,14.4345703,18.7880859,0,11.5883789-5.53125,18.7875977-14.4345703,18.7875977ZM655.5727914,741.9338619h-25.7021484v-3.543457l15.1269531-13.815918c3.4746094-3.1884766,4.9570312-5.7314453,4.9570312-8.5024414,0-4.0302734-2.9267578-6.7382812-7.2822266-6.7382812-4.5166016,0-7.5507812,2.96875-7.7285156,7.5639648l-.0322266.8457031h-4.5234375l.0263672-.9057617c.2119141-7.109375,5.1376953-11.8857422,12.2578125-11.8857422,7.0419922,0,11.9609375,4.5527344,11.9609375,11.0708008,0,4.1186523-2.1044922,7.9262695-6.6240234,11.9829102l-10.2988281,9.4477539h17.8623047v4.4804688ZM677.1460336,742.5276119c-7.828125,0-13.2958984-5.1625977-13.2958984-12.5546875,0-3.2739258.9951172-6.1459961,3.2275391-9.3125l10.4990234-15.1147461h5.5029297l-8.4414062,12.1972656c.9550781-.2158203,1.9423828-.324707,2.953125-.324707,7.4462891,0,12.8515625,5.2802734,12.8515625,12.5546875s-5.5917969,12.5546875-13.296875,12.5546875Z"/>
    <path class="cls-1" d="M677.1460336,721.7009517c-5.1035156,0-8.6669922,3.4013672-8.6669922,8.2719727,0,4.8413086,3.5634766,8.222168,8.6669922,8.222168,5.0742188,0,8.6181641-3.3808594,8.6181641-8.222168,0-4.8706055-3.5439453-8.2719727-8.6181641-8.2719727Z"/>
    <path class="cls-1" d="M335.776893,731.5559322c0-3.8105469-2.6728516-5.9960938-7.3320312-5.9960938h-9.6074219v11.9428711h9.8056641c4.5332031,0,7.1337891-2.1674805,7.1337891-5.9467773Z"/>
  </g>
</svg>