<svg width="42" height="25" viewBox="0 0 42 25" fill="none" xmlns="http://www.w3.org/2000/svg">
<path d="M3.56298 21.4375C3.36485 21.2478 3.13122 21.0992 2.87548 21C2.36827 20.7916 1.79936 20.7916 1.29215 21C1.03642 21.0992 0.802784 21.2478 0.604651 21.4375C0.414983 21.6356 0.266306 21.8693 0.167151 22.125C0.00761057 22.5044 -0.0359783 22.9225 0.0418844 23.3267C0.119747 23.7308 0.315573 24.1029 0.604651 24.3958C0.807153 24.5799 1.03968 24.7278 1.29215 24.8333C1.54153 24.9436 1.81117 25.0005 2.08382 25.0005C2.35647 25.0005 2.62611 24.9436 2.87548 24.8333C3.12795 24.7278 3.36048 24.5799 3.56298 24.3958C3.85206 24.1029 4.04789 23.7308 4.12575 23.3267C4.20361 22.9225 4.16003 22.5044 4.00049 22.125C3.90133 21.8693 3.75265 21.6356 3.56298 21.4375V21.4375ZM10.4172 4.16667H39.5838C40.1364 4.16667 40.6663 3.94717 41.057 3.55647C41.4477 3.16577 41.6672 2.63587 41.6672 2.08333C41.6672 1.5308 41.4477 1.0009 41.057 0.610195C40.6663 0.219494 40.1364 0 39.5838 0H10.4172C9.86462 0 9.33471 0.219494 8.94401 0.610195C8.55331 1.0009 8.33382 1.5308 8.33382 2.08333C8.33382 2.63587 8.55331 3.16577 8.94401 3.55647C9.33471 3.94717 9.86462 4.16667 10.4172 4.16667ZM3.56298 11.0208C3.27002 10.7318 2.89799 10.5359 2.49385 10.4581C2.0897 10.3802 1.67155 10.4238 1.29215 10.5833C1.03968 10.6888 0.807153 10.8368 0.604651 11.0208C0.414983 11.219 0.266306 11.4526 0.167151 11.7083C0.0569319 11.9577 0 12.2274 0 12.5C0 12.7726 0.0569319 13.0423 0.167151 13.2917C0.272655 13.5441 0.420628 13.7767 0.604651 13.9792C0.807153 14.1632 1.03968 14.3112 1.29215 14.4167C1.54153 14.5269 1.81117 14.5838 2.08382 14.5838C2.35647 14.5838 2.62611 14.5269 2.87548 14.4167C3.12795 14.3112 3.36048 14.1632 3.56298 13.9792C3.74701 13.7767 3.89498 13.5441 4.00049 13.2917C4.1107 13.0423 4.16764 12.7726 4.16764 12.5C4.16764 12.2274 4.1107 11.9577 4.00049 11.7083C3.90133 11.4526 3.75265 11.219 3.56298 11.0208V11.0208ZM39.5838 10.4167H10.4172C9.86462 10.4167 9.33471 10.6362 8.94401 11.0269C8.55331 11.4176 8.33382 11.9475 8.33382 12.5C8.33382 13.0525 8.55331 13.5824 8.94401 13.9731C9.33471 14.3638 9.86462 14.5833 10.4172 14.5833H39.5838C40.1364 14.5833 40.6663 14.3638 41.057 13.9731C41.4477 13.5824 41.6672 13.0525 41.6672 12.5C41.6672 11.9475 41.4477 11.4176 41.057 11.0269C40.6663 10.6362 40.1364 10.4167 39.5838 10.4167ZM3.56298 0.604167C3.36485 0.414499 3.13122 0.265821 2.87548 0.166667C2.49609 0.00712603 2.07793 -0.0364624 1.67379 0.0414004C1.26964 0.119263 0.897618 0.315088 0.604651 0.604167C0.420628 0.806669 0.272655 1.0392 0.167151 1.29167C0.0569319 1.54104 0 1.81069 0 2.08333C0 2.35598 0.0569319 2.62562 0.167151 2.875C0.272655 3.12747 0.420628 3.36 0.604651 3.5625C0.807153 3.74652 1.03968 3.8945 1.29215 4C1.67155 4.15954 2.0897 4.20313 2.49385 4.12527C2.89799 4.0474 3.27002 3.85158 3.56298 3.5625C3.74701 3.36 3.89498 3.12747 4.00049 2.875C4.1107 2.62562 4.16764 2.35598 4.16764 2.08333C4.16764 1.81069 4.1107 1.54104 4.00049 1.29167C3.89498 1.0392 3.74701 0.806669 3.56298 0.604167V0.604167ZM39.5838 20.8333H10.4172C9.86462 20.8333 9.33471 21.0528 8.94401 21.4435C8.55331 21.8342 8.33382 22.3641 8.33382 22.9167C8.33382 23.4692 8.55331 23.9991 8.94401 24.3898C9.33471 24.7805 9.86462 25 10.4172 25H39.5838C40.1364 25 40.6663 24.7805 41.057 24.3898C41.4477 23.9991 41.6672 23.4692 41.6672 22.9167C41.6672 22.3641 41.4477 21.8342 41.057 21.4435C40.6663 21.0528 40.1364 20.8333 39.5838 20.8333Z" fill="#C23939"/>
</svg>
