<svg width="50" height="50" viewBox="0 0 50 50" fill="none" xmlns="http://www.w3.org/2000/svg">
<path d="M5.56298 29.4375C5.36485 29.2478 5.13122 29.0992 4.87548 29C4.36827 28.7916 3.79936 28.7916 3.29215 29C3.03642 29.0992 2.80278 29.2478 2.60465 29.4375C2.41498 29.6356 2.26631 29.8693 2.16715 30.125C2.00761 30.5044 1.96402 30.9225 2.04188 31.3267C2.11975 31.7308 2.31557 32.1029 2.60465 32.3958C2.80715 32.5799 3.03968 32.7278 3.29215 32.8333C3.54153 32.9436 3.81117 33.0005 4.08382 33.0005C4.35647 33.0005 4.62611 32.9436 4.87548 32.8333C5.12795 32.7278 5.36048 32.5799 5.56298 32.3958C5.85206 32.1029 6.04789 31.7308 6.12575 31.3267C6.20361 30.9225 6.16003 30.5044 6.00049 30.125C5.90133 29.8693 5.75265 29.6356 5.56298 29.4375V29.4375ZM12.4172 12.1667H41.5838C42.1364 12.1667 42.6663 11.9472 43.057 11.5565C43.4477 11.1658 43.6672 10.6359 43.6672 10.0833C43.6672 9.5308 43.4477 9.0009 43.057 8.61019C42.6663 8.21949 42.1364 8 41.5838 8H12.4172C11.8646 8 11.3347 8.21949 10.944 8.61019C10.5533 9.0009 10.3338 9.5308 10.3338 10.0833C10.3338 10.6359 10.5533 11.1658 10.944 11.5565C11.3347 11.9472 11.8646 12.1667 12.4172 12.1667ZM5.56298 19.0208C5.27002 18.7318 4.89799 18.5359 4.49385 18.4581C4.0897 18.3802 3.67155 18.4238 3.29215 18.5833C3.03968 18.6888 2.80715 18.8368 2.60465 19.0208C2.41498 19.219 2.26631 19.4526 2.16715 19.7083C2.05693 19.9577 2 20.2274 2 20.5C2 20.7726 2.05693 21.0423 2.16715 21.2917C2.27265 21.5441 2.42063 21.7767 2.60465 21.9792C2.80715 22.1632 3.03968 22.3112 3.29215 22.4167C3.54153 22.5269 3.81117 22.5838 4.08382 22.5838C4.35647 22.5838 4.62611 22.5269 4.87548 22.4167C5.12795 22.3112 5.36048 22.1632 5.56298 21.9792C5.74701 21.7767 5.89498 21.5441 6.00049 21.2917C6.1107 21.0423 6.16764 20.7726 6.16764 20.5C6.16764 20.2274 6.1107 19.9577 6.00049 19.7083C5.90133 19.4526 5.75265 19.219 5.56298 19.0208V19.0208ZM41.5838 18.4167H12.4172C11.8646 18.4167 11.3347 18.6362 10.944 19.0269C10.5533 19.4176 10.3338 19.9475 10.3338 20.5C10.3338 21.0525 10.5533 21.5824 10.944 21.9731C11.3347 22.3638 11.8646 22.5833 12.4172 22.5833H41.5838C42.1364 22.5833 42.6663 22.3638 43.057 21.9731C43.4477 21.5824 43.6672 21.0525 43.6672 20.5C43.6672 19.9475 43.4477 19.4176 43.057 19.0269C42.6663 18.6362 42.1364 18.4167 41.5838 18.4167ZM5.56298 8.60417C5.36485 8.4145 5.13122 8.26582 4.87548 8.16667C4.49609 8.00713 4.07793 7.96354 3.67379 8.0414C3.26964 8.11926 2.89762 8.31509 2.60465 8.60417C2.42063 8.80667 2.27265 9.0392 2.16715 9.29167C2.05693 9.54104 2 9.81069 2 10.0833C2 10.356 2.05693 10.6256 2.16715 10.875C2.27265 11.1275 2.42063 11.36 2.60465 11.5625C2.80715 11.7465 3.03968 11.8945 3.29215 12C3.67155 12.1595 4.0897 12.2031 4.49385 12.1253C4.89799 12.0474 5.27002 11.8516 5.56298 11.5625C5.74701 11.36 5.89498 11.1275 6.00049 10.875C6.1107 10.6256 6.16764 10.356 6.16764 10.0833C6.16764 9.81069 6.1107 9.54104 6.00049 9.29167C5.89498 9.0392 5.74701 8.80667 5.56298 8.60417V8.60417ZM41.5838 28.8333H12.4172C11.8646 28.8333 11.3347 29.0528 10.944 29.4435C10.5533 29.8342 10.3338 30.3641 10.3338 30.9167C10.3338 31.4692 10.5533 31.9991 10.944 32.3898C11.3347 32.7805 11.8646 33 12.4172 33H41.5838C42.1364 33 42.6663 32.7805 43.057 32.3898C43.4477 31.9991 43.6672 31.4692 43.6672 30.9167C43.6672 30.3641 43.4477 29.8342 43.057 29.4435C42.6663 29.0528 42.1364 28.8333 41.5838 28.8333Z" fill="#C23939"/>
</svg>
