<svg width="150" height="150" viewBox="0 0 150 150" fill="none" xmlns="http://www.w3.org/2000/svg">
<rect x="2.5" y="2.5" width="145" height="145" rx="72.5" stroke="white" stroke-width="5"/>
<path d="M99.8219 88.2188L79.4062 67.6562H63.25L51.5 55.9062L35.3438 72.0625L42.6875 79.4062C43.275 81.6094 45.3312 83.9594 46.6531 84.8406L66.4812 104.963L68.9781 107.459C72.7969 111.278 76.3219 108.487 78.0844 105.256C81.6094 107.019 85.4281 105.109 86.8969 102.319C91.3031 104.522 95.1219 99.9688 94.8281 97.6188C99.5281 97.6188 103.2 92.625 99.8219 88.2188Z" stroke="white" stroke-width="2" stroke-miterlimit="10"/>
<path d="M97.0312 57.375C97.0312 57.375 91.0093 63.1031 89.6874 63.25C87.9249 63.5437 79.9937 59.725 78.3781 59.4312C76.7624 58.9906 60.7531 64.1312 59.5781 66.0406C58.4031 67.95 63.1031 72.5031 67.6562 71.9156C72.2093 71.3281 78.9655 68.9781 81.0218 70.8875C84.253 74.1188 93.5062 83.9594 97.9124 87.7781C101.584 91.0094 107.9 79.8469 109.516 78.0844C109.516 78.0844 112.453 76.0281 114.509 74.4125L97.0312 57.375Z" fill="#D84B27" stroke="white" stroke-width="2" stroke-miterlimit="10"/>
<path d="M78.0844 105.403L71.3281 98.5" stroke="white" stroke-width="2" stroke-miterlimit="10"/>
<path d="M86.8969 102.466L76.9094 92.478" stroke="white" stroke-width="2" stroke-miterlimit="10"/>
<path d="M94.8281 97.9126L83.0781 86.1626" stroke="white" stroke-width="2" stroke-miterlimit="10"/>
<path d="M98.5659 51.4329L91.1921 58.8066L111.755 79.37L119.129 71.9963L98.5659 51.4329Z" fill="#D84B27" stroke="white" stroke-width="2" stroke-miterlimit="10"/>
<path d="M98.5 58.8438L101.438 61.7812" stroke="white" stroke-width="2" stroke-miterlimit="10"/>
<path d="M51.537 51.5363L30.9736 72.0996L38.3474 79.4733L58.9107 58.91L51.537 51.5363Z" fill="#D84B27" stroke="white" stroke-width="2" stroke-miterlimit="10"/>
<path d="M51.5 58.8438L48.5625 61.7812" stroke="white" stroke-width="2" stroke-miterlimit="10"/>
<path d="M64.5719 119.65C46.8001 115.537 33.875 101.291 30.6438 84.3999" stroke="white" stroke-width="2" stroke-miterlimit="10"/>
<path d="M84.8406 119.65C100.997 115.831 114.509 103.347 118.475 86.0156" stroke="white" stroke-width="2" stroke-miterlimit="10"/>
<path d="M107.606 45.1845C101.731 38.8688 93.9469 34.1688 84.8406 32.1126C68.6844 28.4407 52.5281 33.8751 41.9531 45.1845" stroke="white" stroke-width="2" stroke-miterlimit="10"/>
<path d="M58.1094 105.55C59.2844 106.725 61.0469 106.725 62.2219 105.55L65.3063 102.466C66.4813 101.291 66.1875 99.2346 64.7188 97.7658C63.25 96.2971 61.3407 96.0033 60.0188 97.1783C61.1938 96.0033 60.9 93.9471 59.4313 92.4784C57.9625 91.0096 56.0532 90.7158 54.7313 91.8908C55.9063 90.7158 55.6125 88.6596 54.1438 87.1908C52.675 85.7221 50.7657 85.4284 49.4438 86.6034C50.6188 85.4284 50.325 83.3721 48.8563 81.9033C47.3875 80.4346 45.4782 80.1408 44.1563 81.3158L41.0719 84.4002C39.8969 85.5752 39.8969 87.3377 41.0719 88.5127L58.1094 105.55Z" fill="#D84B27" stroke="white" stroke-width="2" stroke-miterlimit="10"/>
</svg>
