<svg width="150" height="150" viewBox="0 0 150 150" fill="none" xmlns="http://www.w3.org/2000/svg">
<rect x="2.5" y="2.5" width="145" height="145" rx="72.5" stroke="white" stroke-width="5"/>
<path d="M125.625 97.0625H22.6875V98.75C22.6875 104.656 27.4125 110.562 33.3188 110.562H114.825C120.731 110.562 125.456 104.656 125.456 98.75V97.0625H125.625Z" stroke="white" stroke-width="3" stroke-miterlimit="10"/>
<path d="M68.25 103.812H86.8125" stroke="white" stroke-width="3" stroke-miterlimit="10"/>
<path d="M110.775 39.6875C115.331 39.6875 118.875 43.2313 118.875 47.6188V97.0625H31.125V47.6188C31.125 43.0625 33.9937 39.6875 38.55 39.6875H110.775Z" stroke="white" stroke-width="3" stroke-miterlimit="10"/>
<path d="M98.1188 86.9375C97.4438 84.2375 96.4312 81.5375 94.9125 79.3438L100.144 74.1125L93.0563 67.025L87.825 72.2562C85.4625 70.7375 82.9312 69.725 80.2312 69.05V61.625H70.1063V68.8812C67.4062 69.5562 64.7063 70.5688 62.5125 72.0875L57.2812 66.8562L50.1937 73.9437L55.425 79.175C53.9062 81.5375 52.8938 84.0688 52.2188 86.7688H44.625V91.8313H68.25C68.25 88.1188 71.2875 85.0813 75 85.0813C78.7125 85.0813 81.75 88.1188 81.75 91.8313H105.375V86.7688H98.1188V86.9375Z" fill="#D84B27"/>
<path d="M37.875 92V46.4375H112.125V92" stroke="white" stroke-width="3" stroke-miterlimit="10"/>
<path d="M105.375 92V86.9375H98.1188C97.4438 84.2375 96.4312 81.5375 94.9125 79.3438L100.144 74.1125L93.0563 67.025L87.825 72.2562C85.4625 70.7375 82.9312 69.725 80.2312 69.05V61.625H70.1063V68.8812C67.4063 69.5562 64.7063 70.5688 62.5125 72.0875L57.2812 66.8562L50.1937 73.9437L55.425 79.175C53.9062 81.5375 52.8938 84.0688 52.2188 86.7688H44.625V91.8313" stroke="white" stroke-width="3" stroke-miterlimit="10"/>
<path d="M59.8125 92C59.8125 83.5625 66.5625 76.8125 75 76.8125C83.4375 76.8125 90.1875 83.5625 90.1875 92" stroke="white" stroke-width="3" stroke-miterlimit="10"/>
<path d="M68.25 92C68.25 88.2875 71.2875 85.25 75 85.25C78.7125 85.25 81.75 88.2875 81.75 92" stroke="white" stroke-width="3" stroke-miterlimit="10"/>
</svg>
