<svg width="150" height="150" viewBox="0 0 150 150" fill="none" xmlns="http://www.w3.org/2000/svg">
<rect x="2.5" y="2.5" width="145" height="145" rx="72.5" stroke="white" stroke-width="5"/>
<path d="M45.1562 69.375L35.9375 74.0625V75.625L75 95.9375L120.312 72.5V71.0938L107.656 64.6875" stroke="white" stroke-width="2" stroke-miterlimit="10"/>
<path d="M35.9375 79.6875V83.4375L75 103.75L120.312 80.3125V76.5625" stroke="white" stroke-width="2" stroke-miterlimit="10"/>
<path d="M35.9375 87.5V91.25L75 111.563L120.312 88.125V84.375" stroke="white" stroke-width="2" stroke-miterlimit="10"/>
<path d="M35.9375 95.3125V99.0625L75 119.375L120.312 95.9375V92.1875" stroke="white" stroke-width="2" stroke-miterlimit="10"/>
<path d="M95.3125 60.9375V53.125H89.6875C89.375 51.5625 88.9062 51.0938 88.2812 50L92.0313 46.4062L86.5625 40.9375L83.125 44.6875C82.0313 44.0625 81.4062 43.5937 79.8437 43.2812V37.5H72.0313V43.2812C70.4688 43.5937 69.5312 44.0625 68.4375 44.6875L64.6875 40.9375L59.0625 46.4062L62.5 50C61.875 51.0938 61.4063 51.5625 61.0938 53.125H56.25V60.9375H61.0938C61.4063 62.5 61.875 63.5938 62.5 64.6875L58.75 68.5938L64.2188 74.2188L68.125 70.625C69.2188 71.25 70.1562 71.7188 71.7187 72.0312V76.7187H79.5313V72.0312C81.0938 71.7188 81.7188 71.25 82.8125 70.625L86.4062 74.375L91.875 68.9062L88.125 64.8438C88.75 63.75 89.2188 62.6562 89.5312 61.0938H95.3125V60.9375Z" fill="#D84B27" stroke="white" stroke-width="2" stroke-miterlimit="10"/>
<path d="M75.3125 63.125C78.3328 63.125 80.7812 60.6766 80.7812 57.6562C80.7812 54.6359 78.3328 52.1875 75.3125 52.1875C72.2922 52.1875 69.8438 54.6359 69.8438 57.6562C69.8438 60.6766 72.2922 63.125 75.3125 63.125Z" fill="white" stroke="white" stroke-width="2" stroke-miterlimit="10"/>
<path d="M57.8125 36.7188C67.9688 28.125 82.8125 28.125 92.9688 36.7188" stroke="white" stroke-width="2" stroke-miterlimit="10"/>
<path d="M54.5312 75.3125C45.9375 65.1562 45.9375 50.3125 54.5312 40.1562" stroke="white" stroke-width="2" stroke-miterlimit="10"/>
<path d="M92.9688 78.5938C82.8125 87.1875 67.9688 87.1875 57.8125 78.5938" stroke="white" stroke-width="2" stroke-miterlimit="10"/>
<path d="M96.25 40.1562C104.844 50.3125 104.844 65.1562 96.25 75.3125" stroke="white" stroke-width="2" stroke-miterlimit="10"/>
</svg>
