<svg width="150" height="150" viewBox="0 0 150 150" fill="none" xmlns="http://www.w3.org/2000/svg">
<rect x="2.5" y="2.5" width="145" height="145" rx="72.5" stroke="white" stroke-width="5"/>
<path d="M78.4281 94.6344C77.0938 90.8219 73.4719 88.3438 69.4688 88.3438H56.125V75.5719L59.9375 78.8125C59.9375 78.8125 68.1344 78.8125 73.2812 78.8125C82.05 78.8125 80.9062 69.2812 80.9062 69.2812H67.5625L54.2188 55.9375H46.5938C42.4 55.9375 38.9688 59.9406 38.9688 64.1344V92.7281C38.9688 99.0187 44.1156 103.594 50.4062 103.594H67.5625L79 126.469H89.4844L78.4281 94.6344Z" fill="#D84B27"/>
<path d="M52.3125 50.5999C46.975 50.5999 42.7812 46.2155 42.7812 40.878V37.6374C42.7812 32.2999 46.975 27.9155 52.3125 27.9155C57.65 27.9155 61.8438 32.2999 61.8438 37.6374V40.878C61.8438 46.2155 57.65 50.5999 52.3125 50.5999Z" fill="#D84B27" stroke="white" stroke-width="3" stroke-miterlimit="10"/>
<path d="M56.125 78.8125H122.844" stroke="white" stroke-width="3" stroke-miterlimit="10"/>
<path d="M84.7188 71.1875H96.1562V78.8125" stroke="white" stroke-width="3" stroke-miterlimit="10"/>
<path d="M103.781 78.8125V71.1875H111.406H115.219V48.3125H105.688" stroke="white" stroke-width="3" stroke-miterlimit="10"/>
<path d="M103.781 63.5625H98.0625V23.5312H103.781C105.878 23.5312 107.594 25.8188 107.594 27.9156V60.3219C107.594 62.4187 105.878 63.5625 103.781 63.5625Z" stroke="white" stroke-width="3" stroke-miterlimit="10"/>
<path d="M48.5 115.031V126.469" stroke="white" stroke-width="3" stroke-miterlimit="10"/>
<path d="M40.875 124.562H37.0625" stroke="white" stroke-width="3" stroke-miterlimit="10"/>
<path d="M59.9375 124.562H56.125" stroke="white" stroke-width="3" stroke-miterlimit="10"/>
<path d="M79 126.659L67.5625 103.594H50.4062C44.1156 103.594 38.9688 99.0188 38.9688 92.7281V64.1344C38.9688 59.9406 42.4 55.9375 46.5937 55.9375H54.2187L67.5625 69.2813H80.9062C80.9062 69.2813 82.05 78.8125 73.2812 78.8125C68.1344 78.8125 59.9375 78.8125 59.9375 78.8125L48.5 67.5656" fill="#D84B27"/>
<path d="M79 126.659L67.5625 103.594H50.4062C44.1156 103.594 38.9688 99.0188 38.9688 92.7281V64.1344C38.9688 59.9406 42.4 55.9375 46.5937 55.9375H54.2187L67.5625 69.2813H80.9062C80.9062 69.2813 82.05 78.8125 73.2812 78.8125C68.1344 78.8125 59.9375 78.8125 59.9375 78.8125L48.5 67.5656" stroke="white" stroke-width="3" stroke-miterlimit="10"/>
<path d="M56.125 75V88.3437H69.4688C73.4719 88.3437 77.0938 91.2031 78.4281 95.0156L89.4844 126.659" stroke="white" stroke-width="3" stroke-miterlimit="10"/>
<path d="M31.3438 59.75V96.5406C31.3438 104.928 38.2062 111.219 46.5938 111.219H63.75" stroke="white" stroke-width="3" stroke-miterlimit="10"/>
<path d="M31.3438 88.3438H46.5938L52.3125 95.9688" stroke="white" stroke-width="3" stroke-miterlimit="10"/>
<path d="M126.656 78.8125H130.469" stroke="white" stroke-width="3" stroke-miterlimit="10"/>
<path d="M52.3125 124.562H44.6875" stroke="white" stroke-width="3" stroke-miterlimit="10"/>
</svg>
