<svg width="150" height="150" viewBox="0 0 150 150" fill="none" xmlns="http://www.w3.org/2000/svg">
<rect x="2.5" y="2.5" width="145" height="145" rx="72.5" stroke="white" stroke-width="5"/>
<path d="M106.913 53.4375C110.794 53.4375 113.812 56.4563 113.812 60.1938V103.75H37.625V60.1938C37.625 56.3125 40.0687 53.4375 43.95 53.4375H106.913Z" stroke="white" stroke-width="2" stroke-miterlimit="10"/>
<path d="M119.562 103.75H30.4375V105.188C30.4375 110.219 34.4625 115.25 39.4938 115.25H110.362C115.394 115.25 119.419 110.219 119.419 105.188V103.75H119.562Z" stroke="white" stroke-width="2" stroke-miterlimit="10"/>
<path d="M69.25 109.5H85.0625" stroke="white" stroke-width="2" stroke-miterlimit="10"/>
<path d="M43.375 99.4375V59.1875H57.75H95.125H108.062V99.4375" stroke="white" stroke-width="2" stroke-miterlimit="10"/>
<path d="M119.562 39.0625V62.2063C119.562 64.5063 117.694 66.375 115.394 66.375H92.1063L83.3375 77.4438C82.475 78.45 80.75 77.875 80.75 76.5812V66.375H77.875C75.4312 66.375 73.5625 64.3625 73.5625 62.0625V39.0625C73.5625 36.6187 75.4312 34.75 77.875 34.75H115.25C117.694 34.75 119.562 36.6187 119.562 39.0625Z" fill="#D84B27" stroke="white" stroke-width="2" stroke-miterlimit="10"/>
<path d="M89.375 50.5625H92.25" stroke="white" stroke-width="2" stroke-miterlimit="10"/>
<path d="M95.125 50.5625H98" stroke="white" stroke-width="2" stroke-miterlimit="10"/>
<path d="M100.875 50.5625H103.75" stroke="white" stroke-width="2" stroke-miterlimit="10"/>
<path d="M64.9375 80.7501C68.3875 80.7501 70.6875 77.8751 70.6875 74.4251V72.2688C70.6875 68.8188 68.3875 65.9438 64.9375 65.9438C61.4875 65.9438 59.1875 68.8188 59.1875 72.2688V74.4251C59.1875 78.0188 61.4875 80.7501 64.9375 80.7501Z" fill="#D84B27" stroke="white" stroke-width="2" stroke-miterlimit="10"/>
<path d="M73.5625 99.4375V92.25H82.1875C86.5 92.25 89.375 88.225 89.375 85.0625C87.075 85.0625 64.65 85.0625 62.0625 85.0625C55.3063 85.0625 52 87.2188 52 93.6875V99.4375" fill="#D84B27"/>
<path d="M73.5625 99.4375V92.25H82.1875C86.5 92.25 89.375 88.225 89.375 85.0625C87.075 85.0625 64.65 85.0625 62.0625 85.0625C55.3063 85.0625 52 87.2188 52 93.6875V99.4375" stroke="white" stroke-width="2" stroke-miterlimit="10"/>
<path d="M59.1875 92.25V99.4375" stroke="white" stroke-width="2" stroke-miterlimit="10"/>
</svg>
